<?xml version="1.0" standalone="no"?>
<!DOCTYPE svg PUBLIC "-//W3C//DTD SVG 1.1//EN" "http://www.w3.org/Graphics/SVG/1.1/DTD/svg11.dtd" >
<svg xmlns="http://www.w3.org/2000/svg">
<metadata></metadata>
<defs>
<font id="marker_felt_thin_plainregular" horiz-adv-x="884" >
<font-face units-per-em="2048" ascent="1638" descent="-410" />
<missing-glyph horiz-adv-x="512" />
<glyph unicode="&#xd;" horiz-adv-x="512" />
<glyph unicode=" "  horiz-adv-x="512" />
<glyph unicode="&#x09;" horiz-adv-x="512" />
<glyph unicode="&#xa0;" horiz-adv-x="512" />
<glyph unicode="!" horiz-adv-x="417" d="M66 1348q0 115 4 182t21.5 86.5t98.5 19.5q63 0 109.5 -18.5t53.5 -48t7 -37.5q0 -20 -14 -64.5t-14 -62.5v-680q0 -29 15 -86t15 -74q1 -38 -30 -61q-33 -25 -84 -25q-47 0 -92 20.5t-66.5 48t-21.5 64.5q0 16 3 47t3 33q0 147 -3 342t-5 314zM82 82q0 23 4 81t4 70 t-4 33t-4 31q0 6 5 23.5t31.5 27.5t59.5 10q53 0 106.5 -23.5t67 -55t13.5 -56.5q0 -18 -6.5 -59t-6.5 -66q0 -20 2 -38.5t4 -34.5q0 -27 -14 -50q-25 -37 -86 -36q-47 0 -89 18t-64.5 48t-22.5 77z" />
<glyph unicode="&#x22;" horiz-adv-x="626" d="M37 1585q31 55 113 55q41 0 74.5 -17t42.5 -43t9 -42q-6 -39 -6 -63l-12 -185q0 -18 5 -49t5 -35q0 -23 -10 -39q-20 -33 -70 -32q-45 0 -87 26.5t-52 67.5q-4 23 4 53.5t8 44.5v160zM332 1536q31 55 112 55q41 0 75 -17.5t43 -43t9 -41.5q-6 -39 -6 -64l-12 -184 q0 -18 5 -49t5 -35q0 -23 -10 -39q-20 -33 -70 -33q-45 0 -87 27t-52 68q-4 23 4 53.5t8 44.5v160z" />
<glyph unicode="#" horiz-adv-x="983" d="M41 723q0 18 8 27.5t25 9.5q37 -6 73 -10l123 24v20.5t2 32.5q0 53 -6 95q-2 0 -35.5 -18.5t-58.5 -18.5q-39 0 -75 33.5t-36 68.5q0 16 12.5 30.5t42 18.5t44.5 8l110 37q0 63 -12 116.5t-25 111.5q0 37 44.5 54t91.5 17q41 0 69.5 -15t28.5 -50q0 -16 -18.5 -37 t-18.5 -37v-111l148 37v86q-4 33 -5 50q0 16 5.5 29.5t28 23.5t46.5 10q37 0 69 -17.5t38 -42t6 -30.5q0 -39 -29 -72q16 2 58.5 18.5t56.5 16.5q20 0 46 -19.5t26 -80.5q0 -70 -52 -82q-12 -2 -35.5 7t-37.5 5l-49 -12l12 -160q31 8 50 12t36 0q31 -8 53.5 -39.5 t22.5 -64.5q0 -27 -18.5 -49.5t-63.5 -22.5q-33 0 -56 17v-185q0 -14 6.5 -38.5t6.5 -34.5q0 -16 -15.5 -35t-42.5 -19q-29 0 -60.5 20.5t-50 44t-18.5 72.5v36t2 40q0 12 -2 28.5t-2 25.5l-172 -37q0 -43 12.5 -76t12.5 -35q0 -10 -8 -20q-25 -29 -74 -29q-59 0 -82 27.5 t-23 56.5q0 16 7 35l-99 -13q-8 0 -23.5 -16t-29.5 -12q-35 10 -62.5 55t-27.5 82zM426 811l164 49v148l-164 -50v-147z" />
<glyph unicode="$" horiz-adv-x="626" d="M20 979q-25 61 104.5 264t227.5 203q66 0 133.5 -61.5t63.5 -90.5q-6 -51 -35 -78.5t-68 -27.5q-8 0 -24 3t-38 34.5t-40 31.5q-29 0 -94.5 -96t-48.5 -108q8 -6 128 27.5t171 33.5q43 0 69.5 -13.5t33.5 -37t7 -49.5q0 -123 -101.5 -294t-189.5 -171q-86 0 -163.5 78 t-77.5 137q0 23 18.5 33t44.5 10q51 0 78 -14.5t42 -35t28 -20.5q20 0 60 65.5t40 102.5q0 14 -8 21q-10 6 -95 -20.5t-124 -26.5q-47 0 -83 22.5t-59 77.5zM231 1544q0 39 18.5 51.5t43.5 12.5q31 0 66.5 -10.5t51 -26t15.5 -39.5q0 -35 -24.5 -50.5t-59.5 -15.5 t-67.5 12.5t-36.5 24.5q-6 18 -7 41zM258 401v52q5 27 25 43q16 12 51 12q39 0 75.5 -13.5t40 -26.5t3.5 -30q0 -68 -72 -94q-23 -8 -73 15.5t-50 41.5z" />
<glyph unicode="%" horiz-adv-x="1437" d="M57 946q0 111 81 245t152.5 178t130 48t71.5 8l589 172q25 6 72 36t76 30q8 0 59 -13.5t85 -39t34 -68.5q0 -12 -3 -27.5t-11.5 -40t-53.5 -63.5t-49 -47l-688 -1008q-16 -25 -56 -127t-95 -118q-23 -6 -45 -7q-57 0 -96.5 39t-39.5 111q0 49 30 75.5t56 51.5l652 983 l-439 -135q8 -39 9 -84q0 -145 -92.5 -258t-227.5 -113q-104 0 -152.5 46t-48.5 126zM266 1001q0 -16 8 -22q16 -10 40 15.5t33 52t16.5 51t7.5 45.5q0 27 -19 33q-20 8 -53 -62t-33 -113zM727 223q0 117 92 203t213 86q100 0 193.5 -72.5t93.5 -136.5q0 -168 -83 -262 t-179 -94q-111 0 -212.5 65t-115.5 176q-2 12 -2 35zM971 178q0 -14 8 -22t20 -9q16 0 33 14.5t38.5 42t32.5 50t11 35.5q0 16 -16 22q-18 8 -34.5 -2t-54.5 -45t-38 -86z" />
<glyph unicode="&#x26;" horiz-adv-x="1142" d="M47 276q0 121 69.5 231.5t153.5 229.5q-12 -2 -32 -2t-44 6.5t-46.5 12.5t-55.5 31.5t-43 70.5q-14 66 86.5 252t235.5 344t219 158q68 0 115 -41t83.5 -102.5t54 -121t17.5 -106.5q0 -41 -12 -59.5t-37 -28.5t-55 -10q-51 0 -82 25.5t-51.5 93t-44.5 67.5 q-43 0 -169 -187.5t-102 -205.5q14 -12 41 -12q41 0 143.5 61t135.5 61q51 0 88 -27.5t37 -78.5q0 -55 -52 -127q-43 -25 -73.5 -41t-40.5 -37q-106 -72 -196.5 -237.5t-90.5 -268.5q0 -29 11.5 -51t45.5 -22q63 0 151.5 87t119.5 177q-25 -4 -33 -4q-39 0 -64.5 18.5 t-41 47t-15.5 52.5q0 12 15.5 41t296 115t333.5 74q39 -8 65.5 -44t26.5 -77q0 -37 -18 -56.5t-69.5 -22.5t-76 -9t-53 -18.5t-59.5 -30.5q-84 -150 -161 -261.5t-185.5 -203.5t-218.5 -92q-66 0 -129.5 35.5t-128 115.5t-64.5 178z" />
<glyph unicode="'" horiz-adv-x="319" d="M37 1585q31 55 113 55q41 0 74.5 -17t42.5 -43t9 -42q-6 -39 -6 -63l-12 -185q0 -18 5 -49t5 -35q0 -23 -10 -39q-20 -33 -70 -32q-45 0 -87 26.5t-52 67.5q-4 23 4 53.5t8 44.5v160z" />
<glyph unicode="(" horiz-adv-x="540" d="M61 868q0 109 34 320t89 348q10 72 19.5 91.5t31 37.5t66.5 18q68 0 133.5 -40.5t65.5 -104.5q0 -20 -3 -28.5t-42 -58.5t-45 -83q-35 -57 -63 -238.5t-28 -273.5q0 -137 23 -318.5t72 -299.5q4 -29 42.5 -83.5t30.5 -93.5q-10 -45 -50 -68.5t-95 -23.5q-102 0 -142 48.5 t-45 92.5t-8 62q-47 174 -66.5 363.5t-19.5 332.5z" />
<glyph unicode=")" horiz-adv-x="540" d="M49 121q0 20 3 28.5t42 58.5t45 83q35 57 62.5 238.5t27.5 273.5q0 137 -22.5 318.5t-71.5 299.5q-4 29 -43 83t-31 93q10 45 50.5 69t95.5 24q102 0 142 -48.5t45 -92.5t7 -62q47 -174 66.5 -363.5t19.5 -332.5q0 -109 -33.5 -320t-88.5 -348q-10 -72 -19.5 -91.5 t-31 -38t-66.5 -18.5q-68 0 -133.5 41t-65.5 105z" />
<glyph unicode="*" horiz-adv-x="786" d="M47 1135l4 16q6 18 42 29.5t40 13.5l154 84l-109 53q-33 10 -63 23q-8 10 -9 28q0 37 46.5 74t93.5 37q10 0 25.5 -4t34 -33t44.5 -45l4 98q-4 29 -4 41t5 19.5t32 14.5t53 7q29 0 48.5 -7t26.5 -22.5t7 -27.5q0 -14 -6 -63.5t-6 -73.5l57 28q25 20 38 29.5t26 9.5 q35 0 65.5 -26.5t30.5 -59.5q0 -16 -8 -27.5t-30.5 -16.5t-33.5 -11l-84 -59l109 -60q6 -4 25.5 -11t28.5 -18.5t9 -29.5q0 -33 -33.5 -58.5t-78.5 -25.5q-31 0 -56.5 14.5t-76.5 69.5v-84q0 -10 9 -32t3 -36q-23 -51 -78 -51q-47 0 -68.5 25.5t-21.5 58.5q0 16 4 63.5 t4 75.5q-39 -29 -110 -63q-18 -14 -28.5 -23.5t-37.5 -11.5q-41 -4 -84 15.5t-43 52.5z" />
<glyph unicode="+" horiz-adv-x="909" d="M41 868q0 70 30.5 87.5t41.5 17.5q35 -8 71 -15l103 17l-21 168q-2 14 -11 37.5t-9 31.5t12 25.5t64.5 34t105.5 16.5q37 0 66.5 -8t42 -22.5t12.5 -26.5q0 -10 -10.5 -35t-10.5 -41l13 -147l90 16q23 4 59.5 16.5t54.5 12.5q20 0 48 -12.5t54.5 -52.5t26.5 -81 q0 -39 -23.5 -61.5t-62.5 -22.5q-31 2 -45 2q-20 0 -30 -2l-148 -24l17 -131q12 -53 24 -105q0 -14 -4 -22q-12 -31 -52 -48.5t-87 -17.5q-37 0 -59.5 7t-45 33t-34 117t-17.5 130l-86 -37q-33 -12 -74 -12q-47 4 -76.5 51t-29.5 104z" />
<glyph unicode="," horiz-adv-x="393" d="M-57 -131q0 2 67.5 69.5t83.5 122.5q10 12 14.5 52.5t16.5 52.5t41 12q47 0 103.5 -25.5t61.5 -52t5 -37.5q0 -27 -12 -47q-23 -29 -37 -45q-82 -115 -129 -178t-82 -63q-45 0 -94.5 45t-38.5 94z" />
<glyph unicode="-" horiz-adv-x="811" d="M98 664q0 39 16.5 58t82 21t86.5 7l233 61q41 12 65.5 18.5t49.5 6.5q23 0 49.5 -14.5t42.5 -52.5t16 -81q0 -51 -21.5 -69.5t-45.5 -18.5q-8 0 -45 7t-58 3l-221 -53q-23 -4 -62.5 -21.5t-60.5 -17.5q-23 0 -41 10q-86 41 -86 136z" />
<glyph unicode="." horiz-adv-x="380" d="M49 61q0 18 11.5 46t14.5 40.5t3 38.5q-2 31 -2 45q0 18 4 34t22.5 34t73.5 18q53 0 99.5 -23.5t54.5 -62.5q4 -27 -5.5 -56.5t-17.5 -57.5q-4 -47 -5 -74.5t-21 -50.5q-10 -10 -31 -16.5t-49 -6.5q-57 0 -104.5 24.5t-47.5 67.5z" />
<glyph unicode="/" horiz-adv-x="1069" d="M0 123q0 33 34 73t40 50l676 1265q18 70 29.5 102t28.5 42t28.5 12t25.5 2q63 0 122.5 -47t59.5 -111q0 -20 -49 -69t-53 -58l-631 -1196q-10 -18 -40.5 -114.5t-61.5 -102.5q-49 -10 -129 36t-80 116z" />
<glyph unicode="0" horiz-adv-x="983" d="M37 811q0 307 119.5 566t228.5 271.5t133 12.5q215 0 321.5 -263t106.5 -587q0 -350 -112.5 -617.5t-354.5 -267.5q-244 0 -343 262.5t-99 622.5zM332 811q0 -215 39.5 -414.5t107.5 -199.5q59 0 115.5 208.5t56.5 405.5q0 264 -26.5 414.5t-132.5 150.5 q-61 0 -110.5 -188.5t-49.5 -376.5z" />
<glyph unicode="1" horiz-adv-x="651" d="M16 1389q63 133 140 207.5t143 74.5q10 2 18 2q80 0 139.5 -53t59.5 -133q0 -23 -22.5 -55.5t-22.5 -55.5l33 -1081q0 -43 35.5 -106.5t35.5 -92.5q0 -27 -3 -41t-15 -43.5t-50 -46t-87 -16.5q-102 0 -189.5 53t-74.5 129q4 29 43 69.5t39 69.5l-37 910q0 47 -92.5 94 t-92.5 115z" />
<glyph unicode="2" horiz-adv-x="1118" d="M25 88q0 41 55 73.5t67 57.5q33 35 168.5 307.5t252 532.5t104.5 270q-23 16 -84.5 -32t-79.5 -78q-25 -16 -39 -77t-47 -73t-51 -12q-63 0 -131 50t-76 116q-4 33 59.5 94t145.5 115q106 109 203.5 183.5t189.5 74.5q98 0 171 -57.5t87 -151.5q8 -49 -48.5 -180.5 t-217 -472.5t-258.5 -572q53 6 146 25.5t152.5 33t81 19.5t46.5 6q39 0 73.5 -18.5t70.5 -66.5t36 -91q0 -51 -41 -87t-78 -44t-55 -8q-29 0 -87.5 16t-70.5 14q-12 2 -41 2q-72 0 -261 -68.5t-214 -68.5q-61 0 -145 53.5t-84 114.5z" />
<glyph unicode="3" horiz-adv-x="995" d="M12 258q-8 49 31 86t92 37q63 0 126.5 -49t100.5 -49q27 0 163.5 182t136.5 248q0 18 -16.5 27.5t-33.5 9.5q-27 0 -63.5 -26t-69.5 -48q-27 -10 -64.5 -44t-70.5 -34q-61 0 -129 67.5t-68 145.5q0 53 93.5 84t142.5 68.5t150.5 179t101.5 207.5q0 18 -8 26 q-12 12 -92 -54.5t-146 -137.5q-20 -16 -52 -68.5t-62.5 -64t-55.5 -11.5q-63 0 -119.5 49.5t-74.5 110.5q-8 31 125 147.5t295.5 220t242.5 103.5q102 0 161.5 -71.5t59.5 -174.5q0 -164 -43 -246.5t-166 -220.5q109 -29 170.5 -70.5t77 -92t15.5 -60.5q0 -141 -230.5 -446 t-367.5 -330q-70 -12 -205 113t-148 186z" />
<glyph unicode="4" horiz-adv-x="1167" d="M20 643q0 43 25 64q39 27 78 55l418 749q12 23 12 58v35q0 18 2 30.5t21.5 35t66.5 22.5q72 0 157 -69t99 -119t14 -60q0 -25 -49 -134.5t-49 -162.5v-324q72 27 107.5 38t60.5 11q68 0 126 -45t58 -114q0 -51 -33.5 -87t-64.5 -43.5t-38 -7.5h-9q-8 0 -40 7.5t-52 7.5 q-55 -4 -111 -8v-164v-76q0 -59 -4 -76q0 -37 27.5 -110.5t27.5 -94.5q0 -35 -25.5 -65.5t-64.5 -49t-57 -18.5q-70 0 -153 79t-83 153q0 23 35 65.5t35 85.5l-4 217q-59 -16 -130 -27.5t-107.5 -18.5t-70.5 -31.5t-61 -20.5q-53 8 -108.5 75.5t-55.5 137.5zM381 737l172 37 l12 320z" />
<glyph unicode="5" horiz-adv-x="1069" d="M8 299q12 43 50 63.5t92 20.5q23 0 50 -4t86.5 -56.5t106.5 -52.5q53 0 155.5 222.5t102.5 322.5q0 27 -12 33q-29 16 -162 -83t-182 -89q-35 8 -60.5 41t-50.5 65q-45 35 -73.5 58.5t-28.5 62.5q0 29 45 68t45 73v238q0 27 -14.5 114t-14.5 107q0 31 14.5 54.5t171 26.5 t216 10.5t129 17.5t120 19t87.5 14.5t57 5.5q61 0 96 -37t35 -139q0 -49 -40 -87t-95 -49q-31 -6 -76 16.5t-72 20.5l-331 -45v-157v-138q63 45 124.5 63.5t145.5 18.5q100 0 173 -63.5t73 -169.5q0 -160 -102.5 -394.5t-231.5 -421t-178 -180.5q-96 12 -281.5 181.5 t-169.5 228.5z" />
<glyph unicode="6" horiz-adv-x="995" d="M53 692q0 424 125 703.5t318 279.5q119 0 202.5 -64.5t149.5 -189.5q47 -33 77.5 -70.5t30.5 -80.5q0 -18 -9 -46t-58 -49.5t-111 -21.5q-113 0 -140.5 33t-31.5 47t-4 29q4 39 4 57q0 31 -20 49q-12 61 -66 62q-45 0 -102.5 -151t-57.5 -300q63 94 172 94 q172 0 283 -142.5t111 -336.5q0 -166 -103.5 -402.5t-253.5 -236.5q-236 0 -376 197.5t-140 539.5zM387 420q0 -80 13.5 -133.5t45.5 -61.5q55 -16 109.5 74t68 160.5t17.5 103.5t4 70q0 86 -20.5 141.5t-67.5 65.5q-45 12 -92 -85.5t-62.5 -181.5t-15.5 -153z" />
<glyph unicode="7" horiz-adv-x="983" d="M25 131q0 57 59.5 105t71.5 75l471 1053l-246 -86q-25 -8 -73 -36t-79 -28q-14 0 -42.5 6.5t-72.5 71t-44 131.5q0 45 20.5 70t37.5 34t52 9h31q29 -4 59 -6q25 0 49 6q113 16 331 85t222 67q78 -20 122 -76t44 -129q0 -25 -8 -59.5t-69.5 -73.5t-75.5 -72l-443 -995 q-16 -35 -21 -174.5t-60.5 -161t-92.5 -21.5q-90 0 -166.5 64.5t-76.5 140.5z" />
<glyph unicode="8" horiz-adv-x="909" d="M41 291q0 119 108.5 284.5t145.5 223.5q-233 127 -234 405q0 125 122 273.5t222.5 171t147.5 22.5q143 0 219 -99t76 -245q0 -139 -50 -220t-159 -235q121 -121 177 -216t56 -226t-182 -309t-305 -178q-86 0 -215 118.5t-129 229.5zM317 266q0 -20 13.5 -30.5t25.5 -10.5 q29 0 72 35t75 75t44 78t12 76q0 79 -47 97q-129 -176 -162 -230.5t-33 -89.5zM369 1147q-1 -66 65 -111q51 94 99.5 185.5t48.5 128.5q0 16 -11.5 24t-23.5 8q-35 0 -77 -34.5t-71.5 -93t-29.5 -107.5z" />
<glyph unicode="9" horiz-adv-x="1007" d="M55 356q0 18 9.5 46t58.5 49.5t110 21.5q113 0 140.5 -32.5t32 -47t4.5 -28.5q0 -10 -2 -30t-2 -28q0 -29 20 -49q12 -61 66 -61q45 0 102 150.5t57 299.5q-63 -94 -172 -94q-172 0 -282.5 142.5t-110.5 336.5q0 166 103.5 402.5t252.5 236.5q236 0 376 -197.5 t140 -539.5q0 -424 -124.5 -703.5t-317.5 -279.5q-119 0 -203 64.5t-149 189.5q-47 33 -78 70.5t-31 80.5zM367 993q0 -86 20.5 -141.5t67.5 -65.5q45 -12 92 85.5t62.5 181.5t15.5 153q0 80 -13.5 133.5t-46.5 61.5q-55 16 -109.5 -74t-67.5 -160.5t-17 -103.5t-4 -70z" />
<glyph unicode=":" horiz-adv-x="466" d="M49 61q0 18 11.5 46t14.5 40.5t3 38.5q-2 31 -2 45q0 18 4 34t22.5 34t73.5 18q53 0 99.5 -23.5t54.5 -62.5q4 -27 -5.5 -56.5t-17.5 -57.5q-4 -47 -5 -74.5t-21 -50.5q-10 -10 -31 -16.5t-49 -6.5q-57 0 -104.5 24.5t-47.5 67.5zM111 860q0 18 11 46t14 40t3 39 q-2 31 -2 45q0 18 4 33.5t22.5 34t74.5 18.5q53 0 99 -23.5t54 -62.5q4 -27 -5 -56.5t-17 -58.5q-4 -47 -5.5 -74t-21.5 -50q-10 -10 -30.5 -16.5t-49.5 -6.5q-57 0 -104 24.5t-47 67.5z" />
<glyph unicode=";" horiz-adv-x="393" d="M-106 -131q0 2 67.5 69.5t83.5 122.5q10 12 14 52.5t15.5 51.5t31.5 11q51 0 122 -35t76 -56.5t5 -27.5v-10q0 -25 -19.5 -45t-39.5 -43q-55 -72 -111 -143q-51 -62 -88 -62q-51 0 -109.5 34t-47.5 81zM61 860q0 18 11.5 46t14.5 40t3 39q-2 31 -2 45q0 18 4 33.5 t22.5 34t73.5 18.5q53 0 99.5 -23.5t54.5 -62.5q4 -27 -5 -56.5t-18 -58.5q-4 -47 -5 -74t-21 -50q-10 -10 -30.5 -16.5t-49.5 -6.5q-57 0 -104.5 24.5t-47.5 67.5z" />
<glyph unicode="&#x3c;" horiz-adv-x="1191" d="M29 1159q0 147 48 268t106.5 138.5t105.5 17.5t93 -17.5t86 -58.5t63.5 -126t23.5 -189q0 -176 -67.5 -305t-198.5 -129q-129 0 -194.5 117.5t-65.5 283.5zM197 1186q0 -133 15.5 -208t76.5 -85q39 -6 71.5 105.5t32.5 234.5q0 94 -20.5 151.5t-67.5 61.5 q-45 0 -76.5 -85t-31.5 -175zM233 575q0 27 12.5 44.5t27 22.5t36.5 5h62l460 47q16 2 52.5 17.5t60.5 9.5q86 -20 86 -90q0 -16 -8 -33.5t-27 -32.5q-4 -4 -37.5 -2t-58.5 2h-20l-443 -49q-59 -20 -119 -41q-8 0 -24 4q-27 8 -43.5 37t-16.5 59zM606 1159q0 147 48 268 t106.5 138.5t105.5 17.5t93.5 -17.5t86 -58.5t63.5 -126t24 -189q0 -176 -68 -305t-199 -129q-129 0 -194.5 117.5t-65.5 283.5zM774 1186q0 -133 15.5 -208t76.5 -85q39 -6 72 105.5t33 234.5q0 94 -20.5 151.5t-67.5 61.5q-45 0 -77 -85t-32 -175z" />
<glyph unicode="=" horiz-adv-x="811" d="M98 664q0 39 16.5 58t82 21t86.5 7l233 61q41 12 65.5 18.5t49.5 6.5q23 0 49.5 -14.5t42.5 -52.5t16 -81q0 -51 -21.5 -69.5t-45.5 -18.5q-8 0 -45 7t-58 3l-221 -53q-23 -4 -62.5 -21.5t-60.5 -17.5q-23 0 -41 10q-86 41 -86 136zM123 987q0 39 16.5 58.5t82 21.5 t85.5 6l234 62q41 12 65.5 18t48.5 6q23 0 49.5 -14.5t43 -52t16.5 -80.5q0 -51 -21.5 -69.5t-46.5 -18.5q-8 0 -45 7t-57 3l-221 -53q-23 -4 -63 -21.5t-60 -17.5q-23 0 -41 10q-86 41 -86 135z" />
<glyph unicode="&#x3e;" horiz-adv-x="995" d="M53 1327q0 115 51.5 205t145.5 90q115 0 168 -114.5t53 -266.5q0 -160 -48 -307.5t-124 -147.5t-109 19q-35 29 -63 47q-31 10 -42 24.5t-11 32.5q0 35 35.5 67t70.5 23q12 -2 27.5 -23.5t30.5 -21.5q23 0 30.5 41t10.5 49q-25 -4 -35 -4q-90 0 -140.5 89.5t-50.5 197.5z M92 600q0 27 12.5 44.5t26.5 22.5t37 5h61l461 47q16 2 52 17.5t61 8.5q86 -20 86 -90q0 -16 -8.5 -33.5t-26.5 -31.5q-4 -4 -38 -2t-58 2h-21l-442 -49q-59 -20 -119 -41q-8 0 -24 4q-27 8 -43.5 36.5t-16.5 59.5zM217 1323q0 -66 6 -102.5t31 -36.5q18 0 35.5 45t17.5 90 q0 53 -13 100t-40 47q-18 0 -27.5 -45t-9.5 -98zM528 1327q0 115 51.5 205t145.5 90q115 0 168 -114.5t53 -266.5q0 -160 -48 -307.5t-124 -147.5t-108 19q-35 29 -64 47q-31 10 -42 24.5t-11 32.5q0 35 36 67t70 23q12 -2 27.5 -23.5t30.5 -21.5q23 0 31 41t10 49 q-25 -4 -35 -4q-90 0 -140.5 89.5t-50.5 197.5zM692 1323q0 -66 6 -102.5t31 -36.5q18 0 35.5 45t17.5 90q0 53 -13 100t-40 47q-18 0 -27.5 -45t-9.5 -98z" />
<glyph unicode="?" horiz-adv-x="847" d="M12 1241q0 41 28 71.5t71 47.5q143 174 235 233.5t176 59.5q45 0 89 -15.5t123 -79t79 -186.5q0 -86 -47 -181t-143.5 -259t-121 -230.5t-24.5 -83.5q2 -14 5 -24t1 -25q0 -20 2 -38.5t4 -36.5q0 -20 -5 -33t-21 -23q-20 -14 -51 -14q-63 0 -129 57.5t-66 124.5 q0 70 81 230.5t164 325.5t83 237q0 31 -17 51q-23 25 -97.5 -51t-139.5 -170q-12 -10 -29.5 -48t-42 -51.5t-57.5 -13.5q-57 0 -103.5 36t-46.5 89zM283 272q0 16 13 36t81 20q53 0 98 -16.5t60.5 -43t19.5 -46t4 -40.5q-2 -37 -2 -59q2 -25 12.5 -61.5t10.5 -53.5 q-1 -23 -11 -41q-14 -25 -32.5 -35t-44.5 -10q-45 0 -95.5 35t-69 67.5t-22.5 53t-4 43.5q2 35 2 55q0 18 -10 51t-10 45z" />
<glyph unicode="@" horiz-adv-x="1253" d="M92 528q0 264 189.5 462t435.5 198q240 0 364.5 -142.5t124.5 -336.5q0 -170 -88 -293t-233 -123q-63 0 -113.5 46t-66.5 128q-61 -119 -109.5 -182.5t-124.5 -63.5q-86 0 -128 57.5t-42 149.5q0 145 87 304t152.5 185.5t82.5 26.5q35 0 64.5 -21.5t29.5 -50.5 q0 -4 -5 -16t-36 -18.5t-37 -22.5q-72 -39 -130 -174t-58 -215q0 -33 14 -33q10 0 30.5 21.5t47 54.5t38 65.5t20.5 62.5t5 62l-8 70q6 27 26.5 38t55.5 11q51 0 98 -27.5t57.5 -161.5t49.5 -134q66 0 115 85t49 193q0 127 -81 217t-255 90q-186 0 -329.5 -190.5 t-143.5 -392.5q0 -131 73.5 -214t227.5 -83q45 0 78.5 11t89.5 42q16 4 43.5 28.5t50.5 24.5q35 0 67.5 -28.5t32.5 -63.5q0 -12 -2 -18q-12 -47 -49 -67.5t-102 -27.5q-121 -47 -242 -47q-180 0 -298 120t-118 394z" />
<glyph unicode="A" horiz-adv-x="1267" d="M55 96q0 27 10 48t37 44q74 371 166 697.5t207 593.5q-4 33 -4 51q0 47 16.5 82t49 50t79.5 15q53 0 106.5 -17.5t81 -44t27.5 -77.5q0 -66 -36 -121q23 -205 65.5 -399.5t102.5 -403.5q41 8 86 20.5t63 12.5q25 0 70 -34.5t45 -112.5q0 -43 -19.5 -76t-57.5 -38t-97 -5 q6 -43 35.5 -105.5t70.5 -123.5q53 -37 53 -103q0 -37 -19 -63.5t-44 -32.5t-39 -6h-23q-47 0 -92 16.5t-63.5 43t-20.5 62t-2 42.5q-12 12 -45 86.5t-65 150.5q-115 -18 -238 -36.5t-176 -32.5q-2 -6 -27.5 -75t-25.5 -98q4 -10 4 -20v-20q0 -53 -38 -83t-89 -30 q-18 0 -48 6t-68 48t-38 89zM430 524l283 49q-25 96 -55.5 227.5t-55.5 268.5q-63 -137 -112.5 -298t-59.5 -247z" />
<glyph unicode="B" horiz-adv-x="1007" d="M68 1524q0 55 25.5 81.5t72.5 26.5t97 -23.5t81 -60.5q123 45 191.5 59.5t132.5 14.5q66 0 114.5 -21.5t76.5 -74.5t28 -121q0 -102 -62.5 -221t-169.5 -230q94 -29 189 -57q86 -33 113.5 -89t27.5 -118q0 -147 -168 -325.5t-231 -245.5q-37 -70 -74 -139 q-47 -72 -109 -72q-12 2 -18 2q-137 16 -200.5 102t-63.5 125q0 45 43 78q-20 119 -36.5 557t-16.5 612q-18 29 -30.5 65t-12.5 75zM360 1278l9 -254q82 70 150.5 167t68.5 144q0 14 -9.5 23.5t-29.5 9.5q-35 0 -75 -21.5t-114 -68.5zM393 627l8 -312q94 74 193.5 177.5 t99.5 169.5q0 16 -14 35.5t-62 19.5q-51 0 -114.5 -25.5t-110.5 -64.5z" />
<glyph unicode="C" horiz-adv-x="927" d="M41 682q0 348 98.5 652t198.5 315.5t133 11.5q170 0 251 -133t126 -383q10 -31 22.5 -62.5t12.5 -60.5q0 -33 -18.5 -58.5t-50.5 -40t-60 -14.5q-55 0 -117 32t-79 60.5t-17 45.5q0 20 9 40.5t19 38.5q0 90 -29.5 170t-68.5 90q-3 1 -7 1q-55 0 -95 -215 q-43 -228 -43 -455q0 -199 26.5 -358.5t85.5 -170.5q3 -1 6 -1q35 1 81 89q50 96 83 218q-4 29 -4 38q0 59 40 91t108 32q14 0 24 -1t52 -10t66 -34.5t24 -62.5q0 -33 -15.5 -62.5t-42.5 -52.5q-70 -174 -172 -331.5t-217 -157.5q-236 0 -333 217t-97 522z" />
<glyph unicode="D" horiz-adv-x="995" d="M84 1464q0 31 18 52q52 69 138 69h2q47 0 82 -29q135 53 221 79t133 26t104.5 -28.5t125 -117t67.5 -180.5q0 -186 -106.5 -519t-250 -599t-204 -284.5t-82.5 -18.5q-72 0 -135.5 61.5t-63.5 126.5q1 38 19 58q0 242 -7.5 521.5t-12.5 448t-5 230.5q-23 37 -33 58.5 t-10 45.5zM389 840q0 -147 2.5 -238.5t14.5 -216.5q109 258 204 563t95 410q0 31 -13.5 47t-48.5 16q-45 0 -98 -34.5t-152 -112.5q0 -59 -2 -205.5t-2 -228.5z" />
<glyph unicode="E" horiz-adv-x="872" d="M92 127q0 12 10.5 44t12.5 38q0 217 -4.5 658.5t-4.5 611.5q-14 20 -14 41q0 33 39 55t86 31q5 1 10 1q24 0 58 -16q25 -14 51 -26q68 23 155 49t104 35.5t38.5 21.5t54.5 12q8 0 46 -6t83 -68.5t45 -117.5q0 -37 -34.5 -64.5t-106.5 -27.5q-33 0 -74 6 q-70 -23 -146.5 -51.5t-112.5 -59.5v-487q6 4 28 8t35 8q25 43 86 43q16 0 57 -13t99.5 -60.5t58.5 -96.5q0 -12 -13.5 -46t-48.5 -51t-84 -17q-16 0 -34.5 1t-41.5 3q-14 0 -34.5 -6.5t-51 -22.5t-56.5 -29q0 -74 1.5 -133t11.5 -104q39 10 71 20.5t73 28.5 q12 20 32.5 32.5t61.5 12.5q55 0 117.5 -62.5t62.5 -125.5q0 -35 -21.5 -63t-63.5 -34t-120 -6l-192 -98q-6 -2 -50 -39q-35 -29 -62 -29q-8 0 -15 2q-61 18 -107.5 61.5t-71 82.5t-24.5 53z" />
<glyph unicode="F" horiz-adv-x="860" d="M98 94q-2 10 -2 18q0 16 8 25q21 17 31 27v1319q-2 25 -2 37q0 49 27.5 76.5t103.5 27.5q31 0 62.5 -4t46.5 -12q14 -16 28 -31q25 6 61 19.5t56.5 20.5t52 27.5t80.5 20.5q59 0 130 -51t71 -111q0 -92 -67.5 -108.5t-118.5 -16.5q-57 0 -83 -12t-72 -32.5t-93 -39.5 q-12 -111 -12 -239q0 -84 2 -143.5t6 -104.5q8 8 34.5 24.5t47.5 30.5q16 18 37.5 37t44.5 19q70 0 137 -62.5t67 -134.5q0 -25 -17 -59.5t-113.5 -39t-131.5 -32.5q-29 -8 -57.5 -39t-44.5 -47q-6 -53 -6 -139q0 -78 2 -136.5t4 -109.5q10 -23 10 -51q0 -68 -49 -93.5 t-86 -25.5q-66 0 -124 41t-71 104z" />
<glyph unicode="G" horiz-adv-x="983" d="M41 709q0 356 107.5 659t310.5 303q150 0 232.5 -165t111.5 -388q33 -41 33 -90q0 -86 -48.5 -101.5t-68.5 -15.5q-53 0 -115.5 28t-79 55.5t-16.5 45.5q0 14 7 39t9 39q-16 129 -26.5 183.5t-38.5 54.5q-33 0 -86.5 -232.5t-53.5 -410.5q0 -129 43.5 -292t71.5 -163 q27 0 49.5 72.5t36.5 169.5q-57 27 -117.5 81t-60.5 107q0 37 41 76t338 39q53 27 78.5 36t46.5 9q10 0 51 -10.5t87 -61.5t46 -106q0 -39 -20.5 -64.5t-39 -33t-50.5 -7.5h-52q-43 0 -69 -4q-27 -211 -103 -390t-164 -216q-16 -6 -34 -6q-133 0 -295 222t-162 538z" />
<glyph unicode="H" horiz-adv-x="1007" d="M55 764q0 12 3 25.5t23.5 29t41.5 29.5q0 203 2 360.5t2 298.5q-6 14 -12 29.5t-6 30.5q0 23 13 41t46 32.5t80 14.5q68 0 122 -20.5t66.5 -51.5t12.5 -45q0 -29 -36 -88t-36 -90q0 -63 -2 -257t-2 -231q55 10 146 28t120 26q0 76 2 263t2 322q-18 49 -18 84q0 61 45 85 t78 24q74 0 146.5 -38t72.5 -101q0 -27 -37 -74t-37 -74q2 -102 3 -230t1 -265q37 -32 74 -90q27 -43 27 -70q0 -10 -3 -17q-12 -29 -41.5 -42t-56.5 -23q0 -109 1 -237t3 -234q0 -18 13.5 -59t13.5 -52q0 -27 -18.5 -42t-42 -24t-44.5 -9q-59 0 -130.5 30.5t-87 60 t-15.5 50.5q0 27 18.5 67.5t38.5 83.5v353l-274 -58l4 -467q0 -25 13 -80t13 -69q0 -25 -5 -38t-26.5 -34.5t-72.5 -21.5t-100 26.5t-66.5 55t-17.5 41.5q0 8 7 21.5t9 21.5l-4 540q-6 14 -39 69.5t-33 88.5z" />
<glyph unicode="I" horiz-adv-x="491" d="M53 1550q0 16 11.5 37t39 45.5t91.5 24.5q70 0 140.5 -33t81.5 -62.5t11 -41.5q0 -25 -14.5 -54.5t-28.5 -56.5l21 -1241q0 -25 18 -63.5t18 -59.5q0 -18 -7 -37.5t-35.5 -32t-67.5 -12.5h-27q-18 4 -71.5 12.5t-94.5 30t-52 51t-11 41.5q0 20 13.5 43t33.5 43l-37 1254 q0 25 -16.5 59.5t-16.5 52.5z" />
<glyph unicode="J" d="M2 532q0 37 81 57.5t165 20.5q53 0 75.5 -18.5t29.5 -86t22 -91.5q14 -49 32.5 -98.5t49.5 -49.5q33 0 46 216t13 511q0 195 -1 285t-5 172q0 18 -4 55t-4 54q0 45 22.5 72.5t87.5 39.5q7 1 15 1q46 0 131 -50q100 -59 100 -123q0 -43 -32.5 -69.5t-32.5 -49.5 q-6 -12 -8.5 -305t-9.5 -580.5t-24.5 -373.5t-82 -137.5t-136.5 -51.5q-14 2 -22 2q-66 8 -131.5 68.5t-119.5 138t-175 265.5q-41 29 -61.5 48t-20.5 78z" />
<glyph unicode="K" horiz-adv-x="1134" d="M47 1563q0 18 11.5 38.5t33 38t72.5 17.5q76 0 140.5 -19.5t83 -54.5t18.5 -53q0 -20 -18.5 -57t-18.5 -60v-500l344 611q23 66 38 105.5t46.5 48t48.5 8.5q66 0 138 -50q62 -44 61 -96q0 -8 -1 -16q-6 -45 -41.5 -65.5t-44.5 -33.5l-413 -720l475 -361q59 -37 97 -60.5 t47.5 -55t9.5 -56.5q0 -82 -68 -157.5t-148 -75.5q-27 0 -71.5 17t-71.5 117.5t-65 131.5l-369 287l25 -246q18 -78 38 -154q0 -41 -29.5 -71.5t-54 -39t-55.5 -8.5q-68 0 -130 44t-71.5 74t-9.5 46q0 20 22.5 46.5t22.5 49.5l-53 1209q0 27 -19.5 65.5t-19.5 55.5z" />
<glyph unicode="L" horiz-adv-x="860" d="M43 1587q0 27 38 60.5t116 33.5q70 0 130 -27.5t71.5 -52t14.5 -36t3 -21.5q0 -18 -17.5 -37.5t-17.5 -31.5l74 -1131l123 49q53 25 84.5 39t60.5 14q37 0 69.5 -28.5t71.5 -102.5q12 -29 13 -57q0 -51 -32 -97t-63.5 -58.5t-66.5 -16.5t-58 -4h-45h-33.5t-47 -9.5 t-70.5 -58.5t-137 -63q-10 -2 -20 -2l-102 42q-61 50 -74 91t-13 49v12q0 27 28.5 59.5t28.5 55.5l-86 1241q-8 16 -25.5 41t-17.5 47z" />
<glyph unicode="M" horiz-adv-x="1892" d="M100 1511q0 18 7.5 35t27 38.5t53 31.5t76.5 10q135 0 188.5 -44t62.5 -62.5t9 -38.5q-2 -25 -2 -37q0 -14 6 -31l406 -983l455 1045q8 18 8 43q-2 33 -2 49q0 27 8 43t39 39.5t88 23.5q86 0 169 -53t83 -121q0 -33 -29 -55.5t-29 -38.5l86 -1208q0 -20 31 -71.5 t31 -80.5q0 -25 -18.5 -51.5t-55.5 -43t-78 -16.5q-82 0 -164.5 51.5t-90 84t-7.5 43.5q0 33 29 73q25 35 25 63q0 5 -1 9l-61 688l-352 -794q-6 -12 -6 -41q0 -16 5 -53.5t5 -47.5q0 -33 -8.5 -48t-32 -30.5t-55 -23.5t-66.5 -8q-74 0 -132 35.5t-65.5 73.5t-8.5 49.5 t-1 15.5q0 12 4 32.5t4 30.5l-4 23l-295 786l50 -725q0 -29 12 -82t12 -78q0 -39 -22.5 -66.5t-63.5 -42.5t-59 -15q-63 0 -137 47t-86.5 93t-12.5 52q0 23 24.5 47.5t24.5 44.5l-45 1151q0 25 -19.5 73t-19.5 66z" />
<glyph unicode="N" horiz-adv-x="1228" d="M90 1536q0 16 6 27.5t32 26t85 14.5q61 0 123.5 -21.5t83 -46.5t25 -37t4.5 -24q0 -10 -5.5 -38t-1.5 -36q20 -98 120 -301t204 -389.5t106 -186.5l-24 1000q0 18 -14.5 40.5t-14.5 34.5t8.5 26.5t33 40.5t71.5 26q76 0 155.5 -52.5t79.5 -115.5q0 -39 -32.5 -62.5 t-32.5 -44.5l28 -1122q0 -31 29 -78t29 -70q0 -72 -48 -122t-120 -50q-170 0 -238 172l-32 160q-35 53 -96.5 154.5t-141.5 244t-131 265.5q0 -141 10 -364.5t23 -422.5q0 -8 20.5 -57t20.5 -70q0 -20 -5.5 -34.5t-30 -47t-93.5 -32.5q-74 0 -144.5 47t-79.5 108q-1 8 -1 16 q0 40 27 62q32 27 32 45l-62 1254q0 12 -4 32.5t-4 28.5z" />
<glyph unicode="O" horiz-adv-x="1105" d="M68 860q0 233 78.5 485t130 287t77.5 35q18 0 58.5 -11t56.5 -11q27 0 95.5 11t88.5 11q29 0 126.5 -40t184.5 -264t87 -503q0 -281 -103.5 -569.5t-175.5 -312t-88 -25.5t-39 -2t-53.5 4t-59.5 8q-242 29 -353 291t-111 606zM338 860q0 -213 72.5 -444.5t142.5 -231.5 q63 0 142 237.5t79 438.5q0 217 -54 409.5t-169 192.5q-25 0 -36 -3t-37.5 -16t-83 -219t-56.5 -364z" />
<glyph unicode="P" d="M74 1561q0 18 11 31.5t35.5 22.5t49.5 14t43 5q23 0 50.5 -4t64.5 -8q90 33 170 59.5t141 26.5q78 0 149.5 -36t117.5 -100.5t46 -148.5q0 -215 -191.5 -549.5t-257 -360.5t-79.5 -26q-31 0 -47 37q-6 -53 -6 -118q0 -92 4 -159t10 -124q0 -16 10.5 -47t10.5 -47 q0 -20 -11.5 -38t-41 -31t-66.5 -13q-68 0 -130.5 32.5t-69.5 63.5t-7 38v9q0 33 21.5 59.5t21.5 30.5l-37 1327q0 6 -6 24.5t-6 29.5zM356 1294l9 -471q88 66 194.5 270.5t106.5 309.5q0 47 -19.5 55t-30.5 8q-49 0 -123.5 -51t-136.5 -121z" />
<glyph unicode="Q" horiz-adv-x="1179" d="M61 811q0 274 140.5 555t277.5 281q25 0 57.5 -10.5t53.5 -10.5q23 0 74 10.5t86 10.5q156 0 250 -222.5t94 -478.5q0 -217 -26 -375.5t-122 -324.5l197 -176q37 -16 67.5 -29.5t38.5 -65.5q2 -12 2 -23q0 -51 -38 -86q-46 -44 -115 -44q-14 2 -21 2q-61 8 -147 108.5 t-135 141.5q-57 -57 -94 -86t-128 -29q-268 0 -390 254t-122 598zM369 811q0 -236 46 -429.5t146 -193.5q29 0 42 20.5t28 41.5l-103 86q-33 16 -50 26.5t-23 47.5q-1 6 -1 13q0 44 49 84q56 46 111 46q23 0 33 -6t14.5 -22.5t10.5 -20.5l69 -58q43 111 56.5 211.5 t13.5 239.5q0 203 -43 363.5t-137 160.5q-80 0 -171 -207.5t-91 -402.5z" />
<glyph unicode="R" horiz-adv-x="1167" d="M51 1513q0 14 12.5 40t64.5 48.5t110 22.5q43 0 69.5 -10t35.5 -34t26 -24q82 31 186 65t186 34q76 0 140.5 -24.5t104.5 -69.5t40 -103q0 -152 -167 -415t-343 -416l528 -369q2 -2 81 -39t86.5 -64.5t7.5 -43.5q0 -59 -73 -102.5t-151 -43.5q-45 0 -67.5 15.5t-41 53.5 t-34.5 48l-453 303l19 -188q0 -14 29.5 -60.5t29.5 -75.5q0 -23 -11 -43t-46 -43.5t-88 -23.5q-74 0 -142.5 43t-77 77.5t-8.5 49.5q0 25 28 48.5t28 39.5l-66 1167q0 27 -21.5 73t-21.5 64zM369 813q129 141 230 310t101 245q0 23 -11 31t-21 8q-45 0 -113 -57.5 t-182 -169.5z" />
<glyph unicode="S" horiz-adv-x="989" d="M18 397q0 18 8.5 30.5t43 31t73.5 30t72 11.5q88 0 137 -60.5t66 -120.5q35 -70 57.5 -108.5t65.5 -38.5q74 0 96 55.5t22 137.5v41q0 115 -36.5 140t-193.5 90.5t-237.5 198t-80.5 271.5q0 221 114.5 399t290.5 178q207 0 288 -137t81 -280q8 -29 15 -68t7 -74 q0 -41 -20.5 -92t-110.5 -51q-70 0 -127 50t-71 149q-1 8 -1 15q0 27 16 53q21 34 13 42q8 29 -7 53.5t-62 24.5q-70 0 -105 -82t-35 -184q0 -98 61.5 -164t203 -131.5t223.5 -161.5t82 -305q0 -160 -101.5 -280.5t-251.5 -120.5q-201 0 -295 91t-147 197q-55 37 -104.5 83 t-49.5 87z" />
<glyph unicode="T" horiz-adv-x="983" d="M20 1352q0 8 4.5 31.5t152 69.5t302 93t185.5 68q18 6 47.5 37.5t68.5 31.5q41 0 118 -66.5t77 -139.5q0 -23 -3 -34t-14.5 -32.5t-40 -31t-63.5 -9.5q-37 2 -55 2q-31 0 -49 -8l-177 -74q0 -219 3.5 -417.5t7.5 -405.5t6 -295q0 -29 21.5 -76t21.5 -67t-19.5 -50 t-55.5 -45.5t-79 -15.5q-78 0 -148.5 43t-80.5 100v6q0 27 32 67q36 44 37 71q-2 94 -3 244.5t-2 355.5t-3 407q-14 -4 -54 -19t-62 -15q-31 0 -63 24.5t-72 61t-40 88.5z" />
<glyph unicode="U" horiz-adv-x="1105" d="M59 1503q0 61 35 99t103 38q80 0 148.5 -39.5t68.5 -107.5q0 -35 -22 -74q-19 -33 -20 -57q0 -4 1 -8q-2 -4 -2 -41q0 -260 45 -677t114 -417q92 0 147.5 386t55.5 683q0 49 -4 78v6q-1 25 -31 75q-34 56 -34 83q0 35 35.5 86t150.5 51q63 0 112.5 -22.5t74 -67.5 t24.5 -70q0 -14 -8.5 -34.5t-16.5 -38.5v-81t2 -77q0 -313 -29.5 -599t-137 -519.5t-314.5 -233.5q-197 0 -304.5 203t-144 475t-36.5 549q0 111 2 150.5t6 95.5q-20 61 -21 106z" />
<glyph unicode="V" horiz-adv-x="1105" d="M4 1536q0 45 51 68.5t123 23.5q78 0 139.5 -24.5t70.5 -56t9 -38.5q0 -18 -16 -52t-12 -56l147 -770l209 819q4 16 4 47q-2 31 -2 43q0 33 11.5 57.5t37 42t51 23.5t50.5 6q82 0 153.5 -44t71.5 -103q0 -18 -8.5 -36t-44 -39.5t-41.5 -45.5l-332 -1204q-2 -6 -2 -21 q0 -18 5 -57t5 -49q0 -31 -7 -54.5t-36 -54.5t-80 -31q-76 0 -153.5 70t-100.5 152q-6 20 4 55t8 51l-233 1167q-4 16 -43 47t-39 64z" />
<glyph unicode="W" horiz-adv-x="1929" d="M18 1507q0 12 12.5 42t60.5 55.5t106 25.5q66 0 106.5 -30.5t46.5 -88.5q2 -55 6 -110l148 -791l233 852q4 16 -5 46t-9 40q0 27 20.5 53.5t61.5 41t84 14.5q57 0 103 -17.5t67.5 -44t27 -41t5.5 -30.5q0 -14 -6.5 -43t-6.5 -45q0 -14 2 -23l230 -803l250 840 q8 29 8 102.5t54 116.5t146 43q45 0 79 -15.5t55.5 -50t21.5 -63.5q0 -27 -25.5 -70t-31.5 -67l-303 -995q-8 -27 -10.5 -49.5t-2.5 -57.5q0 -37 2 -71.5t5 -67.5q0 -61 -14.5 -98t-76 -75t-143.5 -38q-111 0 -167 53t-67.5 83t-11.5 67q0 16 7.5 69t7.5 80q0 37 -9 64 l-176 622l-209 -725q-1 -4 -1 -9q0 -22 23 -52q28 -36 28 -53q0 -164 -63.5 -240t-139.5 -76q-49 0 -94 22.5t-66.5 56.5t-24 86.5t-6.5 72.5l-295 1274q-23 59 -43 118z" />
<glyph unicode="X" horiz-adv-x="1241" d="M6 80q0 14 7 33.5t34 36t35 30.5l348 680l-332 615q-6 10 -39.5 24t-33.5 47q0 49 89 94.5t173 45.5q29 0 57.5 -13.5t35.5 -57.5t13 -79l205 -410l168 373q8 18 16.5 69.5t36 78t96.5 26.5q80 0 143.5 -43t63.5 -117q0 -47 -46 -65t-56 -39l-266 -549l389 -651 q6 -10 48 -39t42 -68q0 -92 -45 -133t-117 -41q-63 0 -130 30t-88.5 59.5t-21.5 52.5q0 16 11.5 42.5t11.5 37.5q0 10 -6 22l-246 422l-233 -483q-4 -8 -6.5 -19.5t-2.5 -19.5q0 -12 4.5 -30.5t4.5 -27.5q0 -23 -27 -49t-98 -26q-82 0 -160 42t-78 99z" />
<glyph unicode="Y" horiz-adv-x="1191" d="M43 1583q0 14 12.5 40t62.5 38t105 12q84 0 129 -28.5t52.5 -89t13.5 -117.5l192 -598l250 647q31 84 48.5 117.5t56.5 52t86 18.5q76 0 135 -41t59 -102q0 -49 -72.5 -129t-74.5 -88l-389 -979l20 -209q0 -16 3 -46t3 -32q0 -37 -14 -59.5t-55 -36.5t-82 -14 q-82 0 -147.5 42t-65.5 109q0 14 4 34.5t40 74t36 92.5l-21 225l-303 897q-10 29 -47 85t-37 85z" />
<glyph unicode="Z" horiz-adv-x="1228" d="M0 205q0 37 13.5 65.5t65.5 45.5t68 44l619 1024l-336 -45q-25 -2 -59.5 -19t-53.5 -17q-18 0 -55 17t-60.5 66.5t-23.5 104.5q0 63 29 92t65 29q59 -8 121 -15l553 50q25 0 59.5 30.5t63.5 30.5q51 0 109.5 -74.5t58.5 -140.5q0 -25 -16.5 -48.5t-81 -42t-82.5 -50.5 l-668 -1094h361q27 0 68.5 33t74.5 33q90 0 149.5 -61.5t59.5 -139.5q0 -86 -74 -135q-23 -12 -43 -13q-23 0 -80 20.5t-94 20.5h-541q-23 0 -65.5 -17t-61.5 -15q-63 12 -103 80.5t-40 140.5z" />
<glyph unicode="a" horiz-adv-x="929" d="M16 268q0 188 195 324q160 92 321 186q4 12 6.5 28.5t2.5 39.5q0 31 -7.5 50t-22.5 23.5t-33.5 8.5t-33.5 4q-41 0 -68.5 -27.5t-51.5 -52.5q-27 -16 -61 -69.5t-70 -57.5q-8 -1 -16 -1q-45 0 -81 37q-44 44 -43 101q0 35 32 86t150.5 123t333.5 72q184 0 218 -292 t51.5 -457t48.5 -207t31 -72q0 -8 -9.5 -43t-53.5 -61.5t-93 -26.5q-39 0 -67.5 18t-48 111t-44.5 159q0 -113 -116.5 -229.5t-237.5 -116.5q-70 0 -126 48.5t-81 137.5t-25 156zM250 287q0 -50 37 -103q19 -28 43 -28h2q51 0 114.5 120.5t110.5 313.5q-63 -35 -122.5 -68 t-101.5 -81t-62.5 -81.5t-20.5 -72.5z" />
<glyph unicode="b" d="M61 49q0 18 16.5 51t16.5 54v1167q0 27 -13 69t-13 56q0 23 16 72t119 49q55 0 100 -23.5t61.5 -58.5t16.5 -53q0 -20 -26.5 -77t-26.5 -83v-264q45 70 79.5 102.5t92.5 32.5q152 0 248 -185.5t96 -404.5q0 -236 -68.5 -407t-238.5 -171q-70 0 -123.5 35t-98.5 101 q2 -18 12.5 -48t10.5 -45q0 -18 -18.5 -40.5t-100.5 -22.5q-51 0 -94 15.5t-53.5 38t-10.5 40.5zM352 553q0 -123 38 -252t85 -129q61 0 80.5 62.5t19.5 177.5q0 35 -1 70.5t-1 70.5q0 129 -24.5 242.5t-73.5 113.5q-39 0 -81 -132t-42 -224z" />
<glyph unicode="c" horiz-adv-x="770" d="M45 492q0 258 103.5 460.5t275.5 202.5q133 0 211 -139t78 -287q0 -41 -6.5 -72.5t-40 -51t-76.5 -19.5q-82 0 -108.5 29.5t-31 59.5t-4.5 68v52.5t3 52.5q0 55 -5.5 77.5t-27.5 22.5q-35 0 -74 -199.5t-39 -377.5q0 -100 13.5 -153.5t48.5 -53.5q41 0 71.5 39t46.5 90 q14 18 16.5 69.5t24.5 67.5q29 16 74 16q63 0 110.5 -26.5t47.5 -79.5q0 -45 -48.5 -103.5t-64.5 -91.5q-61 -94 -122.5 -146t-143.5 -52q-162 0 -247 157.5t-85 387.5z" />
<glyph unicode="d" d="M37 553q0 217 96 403.5t248 186.5q55 0 91 -33t81 -102v264q0 33 -26.5 86t-26.5 76q0 16 15 49t63.5 58.5t99.5 25.5q102 0 118.5 -49.5t16.5 -71.5q0 -25 -13.5 -65t-13.5 -60v-1167q0 -20 16.5 -53t16.5 -52q0 -18 -10 -40.5t-53 -38t-97 -15.5q-41 0 -65.5 7 t-37.5 22.5t-13 33.5q0 14 10 44t12 49q-47 -68 -98 -102t-123 -34q-170 0 -238.5 169t-68.5 409zM305 410q0 -113 19.5 -175.5t81.5 -62.5q47 0 84.5 128t37.5 253q0 98 -41 227t-81 129q-47 0 -73 -111.5t-26 -244.5q0 -35 -1 -71t-1 -72z" />
<glyph unicode="e" horiz-adv-x="774" d="M59 496q0 246 95.5 440t187.5 208.5t110.5 14.5h28.5q117 0 193 -71.5t76 -210.5q0 -154 -121 -325t-324 -241q23 -84 42.5 -120.5t70.5 -36.5q45 0 96 33.5t66 62.5q8 4 16 46t31.5 54t40.5 12q43 0 88 -40.5t45 -88.5q0 -12 -7.5 -43.5t-32 -63.5t-73.5 -77 q-14 -23 -117.5 -60.5t-189.5 -37.5q-154 0 -238 158.5t-84 386.5zM289 512q94 29 177 142.5t83 199.5q0 51 -24.5 66.5t-47.5 15.5q-39 0 -75.5 -35t-62.5 -93t-38 -142t-12 -154z" />
<glyph unicode="f" horiz-adv-x="724" d="M6 901q0 27 15.5 55.5t93.5 41t106 22.5q0 303 60.5 465t165 194.5t126.5 32.5q57 0 119 -37t58 -65q-8 -43 -80 -65.5t-120 -82t-67.5 -146.5t-19.5 -231q100 23 201 45q49 0 94 -40.5t45 -90.5q0 -20 -11.5 -50.5t-67.5 -37t-110 -10.5l-147 -41l-2 -665 q0 -53 39 -101.5t39 -70.5q0 -14 -10.5 -41t-43 -44.5t-75.5 -17.5q-57 0 -107.5 30t-60.5 75q-8 31 -10.5 60.5t-2.5 74.5v639q-29 -14 -63 -15q-14 0 -48 5.5t-75 36t-41 75.5z" />
<glyph unicode="g" horiz-adv-x="860" d="M43 551q0 242 80 414t233 172q82 0 123 -33q37 -37 74 -72q-10 31 -10 53q0 35 24.5 57.5t65.5 22.5q47 0 87 -20.5t54 -57.5q0 -246 4 -489.5t10 -513.5q0 -268 -38.5 -360.5t-165.5 -102.5q-88 0 -158 18.5t-131 67.5q-63 18 -88 33.5t-35 64.5q-2 9 -2 17q0 36 38 56 q46 24 116 24q41 0 74.5 -8.5t68.5 -51.5t68 -43q31 0 41 38t10 128v25q0 41 -1 87t-1 99v33q-74 -127 -123 -180.5t-142 -53.5q-127 0 -201.5 172t-74.5 404zM258 565q0 -129 23.5 -236.5t74.5 -107.5q45 0 108.5 117t63.5 227q0 129 -34.5 236.5t-100.5 107.5 q-53 0 -94 -112.5t-41 -231.5z" />
<glyph unicode="h" horiz-adv-x="970" d="M94 559q0 131 1 321.5t3 351.5t4 312q0 10 -2 30.5t-2 31.5q0 31 17.5 63.5t91.5 32.5q68 0 122 -35q43 -28 43 -63q0 -9 -3 -19q-2 -8 -19.5 -28.5t-17.5 -32.5v-660q57 131 139 205t205 74t193.5 -184.5t70.5 -438.5q0 -190 -43 -348q4 -29 7 -46t3 -20q0 -23 -9 -39 t-49 -37.5t-97 -21.5q-41 0 -70 15.5t-38 38t-12 36t-3 23.5q0 25 23.5 56.5t23.5 55.5q12 53 18 135.5t6 172.5q0 147 -13 250.5t-36 105.5h-4q-59 0 -185 -257q-130 -265 -130 -480q-6 -12 -6 -27q0 -20 16 -57t16 -47q0 -20 -35.5 -70.5t-89.5 -50.5q-31 0 -57 23.5 t-48 59.5t-28 184.5t-6 383.5z" />
<glyph unicode="i" horiz-adv-x="417" d="M61 1001q0 35 9.5 60.5t35 51.5t82.5 26q53 0 108.5 -17.5t71 -40t15.5 -47.5q0 -27 -32 -88t-32 -98v-602q0 -41 23 -123t23 -96q0 -41 -44.5 -69t-101.5 -28q-75 1 -108 54q-25 41 -34 142t-9 263q0 115 2 233.5t4 237.5q0 27 -6.5 74t-6.5 67zM66 1298q-2 6 -2 13 q0 17 10 39q14 32 16 47q4 25 4 35t-2 33.5t-2 33.5q0 31 25.5 52.5t113.5 21.5q39 0 74 -9.5t47 -21.5t12 -29q0 -18 -14 -70t-16 -67q-2 -16 0 -41.5t4 -48.5q0 -41 -25.5 -55t-64.5 -14q-61 0 -114.5 22.5t-65.5 58.5z" />
<glyph unicode="j" horiz-adv-x="428" d="M-135 -242q0 16 15.5 36t45.5 20q8 0 31 -4.5t35 -4.5q20 0 44.5 17.5t37 251t12.5 600.5v272q0 16 -12.5 63.5t-12.5 69.5q0 23 13 39q31 33 102 33q47 0 85 -11.5t57.5 -32t28.5 -49t9 -61.5t-4 -52t-5 -26.5t-2 -47.5t-1 -64q0 -37 2 -150.5t2 -185.5 q0 -231 -17.5 -404t-72 -296t-158.5 -123q-82 0 -158.5 32.5t-76.5 77.5zM119 1282q0 12 6 34.5t6 31.5q0 12 -4 42.5t-4 49.5q0 25 5 41t19 30q33 33 86 33q72 0 96.5 -37t24.5 -59q-12 -61 -22 -121q0 -14 9 -36.5t9 -33.5q0 -10 -10 -35.5t-76 -25.5q-41 0 -80 15.5 t-52 36t-13 34.5z" />
<glyph unicode="k" horiz-adv-x="983" d="M70 51q0 8 4 35t4 53v1348q-2 35 -2 55q0 25 9 52.5t40 37.5t76 10q53 0 97 -12t60.5 -34.5t16.5 -51.5q0 -23 -15.5 -71t-15.5 -72v-440.5v-229.5q84 90 175 174t119 111.5t57.5 78t60 58.5t43.5 8q61 0 122.5 -45t61.5 -96q0 -29 -42 -70t-81 -78l-340 -352l365 -262 q4 -2 65.5 -25.5t66.5 -53t5 -48.5q0 -57 -39 -102t-81 -59.5t-64 -14.5q-37 0 -75 43t-50 51l-369 258v-172q0 -18 11.5 -47t11.5 -39q0 -24 -23 -49q-49 -55 -147 -55q-43 0 -74 15t-42 44t-11 47z" />
<glyph unicode="l" horiz-adv-x="417" d="M49 27q0 20 14.5 70t14.5 75l-8 1323q0 14 -2 39t-2 35q0 23 5 43t54 37.5t111 17.5q43 0 68.5 -7t43 -29.5t17.5 -57.5q0 -20 -16.5 -77.5t-16.5 -82.5v-1229q0 -29 17.5 -84t17.5 -69q0 -25 -15.5 -52.5t-57.5 -48t-91 -20.5q-102 0 -128 45t-26 72z" />
<glyph unicode="m" horiz-adv-x="1474" d="M68 1083q0 18 10 35t51 29t84 12q59 0 102 -15.5t53.5 -41t10.5 -39.5q0 -18 -19.5 -53t-19.5 -56v-233q20 41 76.5 157.5t85.5 170.5q10 25 23.5 53t36 47.5t73.5 19.5q86 0 168 -35.5t82 -89.5q0 -55 -16.5 -81.5t-16.5 -44.5l-4 -443q37 84 111.5 320.5t114.5 265.5 t130 29q68 0 118 -25t50 -70v-835q0 -23 41 -53.5t41 -67.5q0 -20 -11 -49t-44 -48.5t-76 -19.5q-49 0 -99 24.5t-70.5 55.5t-28 119t-7.5 209v180v33v26q0 96 -12 103q-43 -98 -84 -195q-70 -197 -99.5 -295t-31.5 -169.5t-36 -90t-69 -18.5q-57 0 -112.5 39t-67.5 83 t-14 138t-2 143v223v41v35q0 127 -12 131q-55 -90 -110.5 -204.5t-68.5 -231.5q-6 -14 -6 -43q0 -12 4 -48t4 -38q0 -33 -25.5 -53.5t-68.5 -20.5q-51 0 -99 26.5t-73 63.5q-20 35 -29.5 154t-9.5 291v168t2 170q-2 18 -16 57t-14 55z" />
<glyph unicode="n" horiz-adv-x="1007" d="M66 1051q0 35 17 61.5t36.5 34.5t46.5 8q53 0 112.5 -34t70.5 -60.5t11 -44.5q0 -20 -16 -61.5t-16 -57.5v-283q88 186 142 280.5t133 159t183 64.5q94 0 126 -158.5t32 -427.5v-38v-35v-31v-27q0 -43 -1 -85t-1 -83q6 -16 23.5 -43.5t17.5 -58.5q0 -45 -55.5 -76.5 t-124.5 -31.5q-47 0 -83 15t-56 48q2 41 3 96.5t1 130.5q0 188 -8.5 299t-32.5 113h-1q-28 1 -107 -191q-81 -196 -142 -374v-29q2 -45 2 -68q0 -51 -8 -80.5t-35 -52.5q-36 -30 -79 -30h-3q-39 0 -78 21.5t-65.5 46t-32.5 146.5t-6 296v263t2 281q0 16 -3 41t-5 56z" />
<glyph unicode="o" horiz-adv-x="847" d="M37 537q0 219 70.5 395t158.5 201.5t152 25.5q72 0 139.5 -24.5t125.5 -85t94 -185.5t36 -276q0 -256 -102.5 -448.5t-292.5 -192.5q-188 0 -284.5 172t-96.5 418zM283 578q0 -201 21.5 -309t113.5 -122h5q54 0 100 153q48 161 48 345q0 137 -29.5 225t-90.5 88 q-74 0 -121 -122.5t-47 -257.5z" />
<glyph unicode="p" d="M61 1069q0 18 10.5 41t53.5 38t96 15q41 0 65.5 -7t38 -22.5t13.5 -33.5q0 -14 -10.5 -44t-12.5 -48q47 68 98.5 101.5t123.5 33.5q170 0 238.5 -169t68.5 -409q0 -217 -96.5 -403.5t-247.5 -186.5q-55 0 -91 33t-81 103v-265q0 -33 26.5 -86t26.5 -75q0 -16 -15.5 -49 t-63.5 -59t-99 -26q-102 0 -118.5 49.5t-16.5 71.5q0 25 13 65t13 60v1168q0 20 -16.5 53t-16.5 51zM352 565q0 -98 41 -227t82 -129q49 0 80 114.5t31 241.5v76q0 182 -28 243.5t-83 61.5q-47 0 -85 -128t-38 -253z" />
<glyph unicode="q" d="M49 565q0 236 68.5 407t238.5 171q70 0 123 -35t99 -100q-2 18 -12.5 47.5t-10.5 44.5q0 18 18.5 40.5t100.5 22.5q51 0 94 -15t53 -38t10 -41t-16 -51t-16 -53v-1168q0 -27 13 -68.5t13 -56.5q0 -23 -16 -72t-119 -49q-55 0 -100 24t-61.5 58.5t-16.5 53.5 q0 20 26.5 76.5t26.5 82.5v265q-45 -70 -79.5 -103t-92.5 -33q-152 0 -248 185.5t-96 404.5zM317 635q0 -35 2 -70q0 -129 25 -242.5t74 -113.5q39 0 81 132t42 224q0 123 -38 252t-85 129q-61 0 -81 -62.5t-20 -176.5v-72z" />
<glyph unicode="r" horiz-adv-x="778" d="M45 1038q0 12 10.5 30.5t59.5 33t104 14.5q51 0 83 -11t39 -38t7 -39q0 -20 -16.5 -32.5t-16.5 -24.5l4 -74l177 186q31 35 63 72q39 37 86 37q70 0 131.5 -34t61.5 -93q0 -12 -5.5 -38t-81 -44t-98.5 -45l-334 -385v-311q0 -43 26 -98.5t26 -63.5q0 -25 -16.5 -59.5 t-55.5 -55t-86 -20.5q-74 0 -115 47q-28 30 -28 77q0 19 4 63t4 52v766q0 18 -16.5 45t-16.5 43z" />
<glyph unicode="s" horiz-adv-x="749" d="M20 287q10 23 53.5 37t90.5 14q49 0 86 -20.5t41 -62.5t24 -58q16 -23 35 -44.5t43 -21.5q25 0 48.5 37t23.5 86v33l-8 24q-162 109 -266.5 211.5t-104.5 247.5q0 156 89 270.5t231 114.5q142 -1 210 -99q61 -88 61 -169q0 -10 -1 -19q10 -10 17 -36.5t7 -47.5 q0 -27 -11 -53t-45 -59t-81 -33q-33 0 -63.5 21.5t-51 57.5t-20.5 79q0 25 2 48t4 48q0 57 -41 57q-27 0 -43 -32.5t-16 -83.5q0 -55 17.5 -104.5t51 -79t178 -108.5t144.5 -268q0 -141 -101.5 -244.5t-242.5 -103.5q-129 0 -252 158q-110 142 -110 193q0 5 1 10z" />
<glyph unicode="t" horiz-adv-x="724" d="M-55 885q0 10 10 33.5t59 30.5t68.5 15.5t44.5 19.5t123 67v178q0 20 -11.5 56t-11.5 48q0 14 18.5 46t55.5 51.5t82 19.5q43 0 85 -22.5t59.5 -56.5t17.5 -58q0 -23 -24.5 -49.5t-24.5 -49.5v-100q35 16 74.5 50t66.5 34l22 -4q61 -16 95 -61.5t34 -94.5 q0 -70 -33.5 -89t-52.5 -19q-14 0 -51 13t-53 13q-14 0 -27 -6l-75 -39v-700q0 -39 42 -101q35 -51 35 -84q0 -7 -2 -14q-12 -47 -60.5 -73.5t-107.5 -26.5q-51 0 -89 22.5t-54 60.5t-18 130t-2 151q0 137 2 275.5t4 271.5q-14 -4 -43 -26.5t-56 -22.5t-78 17.5t-87.5 38 t-36.5 55.5z" />
<glyph unicode="u" horiz-adv-x="847" d="M72 588q0 98 7 181t19 181q-14 51 -14 84q0 61 37 98t100 37q51 0 94 -20.5t50.5 -41t7.5 -40.5q-1 -27 -23 -85q-19 -49 -19 -82q0 -6 1 -11q-20 -119 -21 -289q0 -182 24.5 -305t78.5 -123q86 0 106.5 222t20.5 532q0 29 -4.5 53.5t-8.5 60.5q0 51 28 65.5t69 14.5 q68 0 129 -31.5t69 -89.5q1 -6 1 -12q0 -29 -16 -63q-20 -42 -22 -60v-133q0 -231 -21.5 -395t-101 -289t-233.5 -125q-201 0 -279.5 190.5t-78.5 475.5z" />
<glyph unicode="v" horiz-adv-x="909" d="M-49 1057q10 45 53 68.5t96 23.5q25 0 76 -11.5t122 -267.5t136 -501l213 655q14 47 29.5 73.5t50.5 45t84 18.5q92 0 115.5 -44t23.5 -70q0 -47 -42 -114t-81 -175.5t-98 -278.5t-104 -286q-27 -135 -73 -201t-146 -66t-127 31t-27 96v35q0 41 -6 59l-209 750 q-6 27 -50 75q-37 41 -37 73q0 6 1 12z" />
<glyph unicode="w" horiz-adv-x="1462" d="M-49 1028q0 29 9 55.5t53 41t96 14.5q72 0 93 -17.5t28.5 -43t7.5 -54.5v-49.5t4 -40.5l123 -492l172 504q4 8 4 16.5v12.5q0 14 -5.5 39.5t-5.5 32.5q0 10 10.5 33.5t46.5 41t83 17.5q68 0 119 -37t56 -101.5t11 -128.5l123 -491l197 590q4 20 4 28q0 12 -6.5 41 t-6.5 43q0 18 11.5 40t57.5 36.5t101 14.5q57 0 96.5 -13.5t47.5 -36t8 -37.5q0 -29 -44 -92t-48 -73l-226 -680q-6 -18 -8 -37t-2 -41v-44.5t2 -41.5q0 -53 -11 -74.5t-51 -50.5t-108 -29q-96 0 -138 48t-49 69.5t-7 44.5q2 27 2 41q0 20 -6 45l-123 455l-119 -410 q-6 -20 -10 -78.5t-31 -102.5t-77 -80t-105 -36q-37 0 -72 23q-39 25 -48 81t-17 111l-181 701q-8 33 -34.5 95t-26.5 97z" />
<glyph unicode="x" horiz-adv-x="847" d="M0 123q4 25 28.5 52.5t28.5 33.5l181 328l-127 397q-6 20 -42 50t-36 63q0 45 57 76.5t123 31.5q35 0 68.5 -20.5t46.5 -63.5q8 -45 16 -88l62 -192l135 241q18 39 39.5 79t53.5 53.5t58 13.5q53 0 102.5 -29t53.5 -64v-6q0 -25 -32 -53q-36 -30 -79 -68l-233 -405 l196 -381q20 -33 44 -66.5t24 -60.5q0 -14 -12.5 -47t-47 -54.5t-75.5 -21.5q-39 0 -83 19.5t-49 55.5t-9 73l-111 274l-123 -246q-16 -49 -26 -78.5t-39 -39.5q-16 -4 -27 -5q-60 -1 -118 45q-50 39 -49 87q0 8 1 16z" />
<glyph unicode="y" horiz-adv-x="958" d="M-16 1065q0 8 8 38t47 47t92 17q72 0 122 -29.5t53 -121.5t13 -123l136 -426l209 528q0 2 14 71t42 85t52 16q59 0 118.5 -44t67.5 -103q1 -6 1 -13q0 -39 -31 -93q-37 -62 -86 -180t-104.5 -253t-104.5 -266t-76 -234.5t-34 -156.5t-7 -66q0 -14 2 -32.5t2 -20.5 q0 -27 -23.5 -59.5t-93.5 -32.5q-49 0 -92 23.5t-57 64.5q-8 23 -8 39q0 18 17.5 44t19.5 44l49 258l-295 848q-6 16 -29.5 60t-23.5 71z" />
<glyph unicode="z" horiz-adv-x="983" d="M23 86q0 16 5 45t48 67t47 44l459 635l-222 -29q-45 -12 -88 -23q-14 0 -84.5 32t-70.5 122q0 49 26.5 80t44 38t39.5 7q63 -6 129 -10l320 36q68 16 135 33q8 0 44 -8q36 -7 78 -69q35 -52 35 -98q0 -9 -1 -17q-4 -37 -31 -66q-47 -43 -92 -86l-451 -610l307 49 q27 4 66 21.5t59 17.5q14 0 44 -7t63 -54.5t33 -102.5q0 -49 -29 -81t-72 -32q-23 0 -59.5 5.5t-42.5 5.5q-14 -2 -21 -2l-381 -62q-14 -2 -67 -25.5t-80 -23.5q-74 0 -132 50t-58 118z" />
<glyph unicode="&#xa2;" horiz-adv-x="577" d="M39 891q0 174 62.5 307t164.5 133q119 0 157 -44t52 -148q12 -29 22.5 -64t10.5 -59q0 -27 -13.5 -46.5t-37 -28.5t-58.5 -9q-68 0 -86 19.5t-18 43.5q0 18 2 37t4 37q0 29 -18 29q-20 0 -36 -68.5t-16 -159.5q0 -82 15.5 -142t44.5 -60q20 0 37 18q18 27 25 36 t16.5 29.5t34 30t51.5 9.5q45 0 70.5 -32t25.5 -79q0 -35 -59 -74q-27 -47 -71.5 -76.5t-146.5 -29.5q-115 0 -175 114.5t-60 276.5zM154 344q0 37 26.5 61.5t49 31.5t36.5 7q43 0 94.5 -30.5t51.5 -57.5q0 -29 -34 -55.5t-81 -40.5q-25 -8 -84 20.5t-59 63.5zM186 1450 q0 37 27 61.5t49.5 31.5t36.5 7q43 0 94 -30.5t51 -57.5q0 -29 -33.5 -55.5t-80.5 -40.5q-25 -8 -84.5 20.5t-59.5 63.5z" />
<glyph unicode="&#xa9;" horiz-adv-x="1253" d="M43 858q0 217 124 457.5t214 279.5q18 10 45 11q16 0 54 -8.5t50 -8.5q27 0 89.5 9.5t82.5 9.5q25 0 126.5 -30t235.5 -248t134 -472q0 -352 -140 -569t-225 -245t-101.5 -30t-37.5 -2q-20 0 -48.5 4.5t-55.5 8.5q-250 31 -398.5 247.5t-148.5 585.5zM250 860 q0 -303 137.5 -511t235.5 -208q111 0 239.5 175.5t128.5 543.5q0 227 -113.5 431t-277.5 204h-37q-18 -6 -69.5 -19.5t-147.5 -216t-96 -399.5zM373 799q0 182 70.5 322.5t191.5 140.5q96 0 149.5 -96.5t53.5 -204.5q0 -20 -4.5 -46t-28 -39.5t-53.5 -13.5q-57 0 -76 21.5 t-22 38t-3 49.5v39.5t2 40.5q0 66 -22 65q-25 0 -51.5 -139t-26.5 -262q0 -145 43 -146q27 0 48.5 26t33.5 64q12 14 12 49t17.5 46.5t50.5 11.5q41 0 75.5 -19.5t34.5 -54.5q0 -31 -32.5 -71.5t-59 -83.5t-72 -81t-100.5 -38q-113 0 -172 109.5t-59 271.5z" />
<glyph unicode="&#xad;" horiz-adv-x="811" d="M98 664q0 39 16.5 58t82 21t86.5 7l233 61q41 12 65.5 18.5t49.5 6.5q23 0 49.5 -14.5t42.5 -52.5t16 -81q0 -51 -21.5 -69.5t-45.5 -18.5q-8 0 -45 7t-58 3l-221 -53q-23 -4 -62.5 -21.5t-60.5 -17.5q-23 0 -41 10q-86 41 -86 136z" />
<glyph unicode="&#xae;" horiz-adv-x="1253" d="M43 858q0 217 124 457.5t214 279.5q18 10 45 11q16 0 54 -8.5t50 -8.5q27 0 89.5 9.5t82.5 9.5q25 0 126.5 -30t235.5 -248t134 -472q0 -352 -140 -569t-225 -245t-101.5 -30t-37.5 -2q-20 0 -48.5 4.5t-55.5 8.5q-250 31 -398.5 247.5t-148.5 585.5zM250 860 q0 -303 137.5 -511t235.5 -208q111 0 239.5 175.5t128.5 543.5q0 227 -113.5 431t-277.5 204h-37q-18 -6 -69.5 -19.5t-147.5 -216t-96 -399.5zM395 1167q20 39 82 39q14 0 31 -6q14 -12 29 -24q39 12 86 28.5t79 16.5q35 0 64 -11.5t47 -34t18 -45.5q0 -68 -73.5 -185.5 t-155.5 -188.5l182 -148q6 -4 39 -19.5t39 -35.5q6 -31 -26.5 -53.5t-71.5 -22.5q-25 0 -34 7.5t-15 23.5t-17 22l-147 117l6 -84q0 -6 13.5 -26.5t13.5 -32.5q0 -23 -20.5 -37t-43.5 -14q-33 0 -64.5 19.5t-37.5 45.5q-4 20 10 32.5t14 18.5l-30 525q0 12 -11.5 35.5 t-5.5 37.5zM537 844q66 68 114.5 157t28.5 103q-16 14 -53 -15.5t-88 -82.5z" />
<glyph unicode="&#xc0;" horiz-adv-x="1013" d="M45 76q0 45 37 76q59 301 133 561t166 471q-4 29 -4 43q0 37 13 63.5t31.5 35.5t33 12t37.5 3q45 0 87 -13t64.5 -34.5t22.5 -62.5q0 -53 -31 -96q18 -166 53 -322t82 -321q29 6 68 16t53 10q16 0 33 -10q57 -45 57 -109q0 -34 -18 -65q-10 -18 -33 -23.5t-62 -5.5h-26 q6 -43 34.5 -98t51.5 -86q43 -33 43 -82q0 -63 -44 -72.5t-57 -9.5q-41 0 -75.5 13.5t-47 31.5t-15.5 39.5t-5 46.5q-10 10 -35.5 69.5t-52.5 121.5q-92 -14 -186.5 -27.5t-145.5 -28.5q-16 -47 -28.5 -85t-12.5 -52q4 -25 4 -33q0 -45 -31.5 -68.5t-72.5 -23.5q-14 0 -37 5 t-53.5 39t-30.5 71zM344 420l225 39q-12 43 -37.5 149.5t-50.5 247.5q-51 -113 -90 -237.5t-47 -198.5zM375 1614q4 29 34.5 47t65.5 18q25 0 68 -25.5t73.5 -83t24.5 -108.5q-6 -37 -33.5 -55t-64.5 -18q-18 0 -38 7t-37 50t-21.5 49t-40 47t-31.5 72z" />
<glyph unicode="&#xc1;" horiz-adv-x="1013" d="M45 76q0 45 37 76q59 301 133 561t166 471q-4 29 -4 43q0 37 13 63.5t31.5 35.5t33 12t37.5 3q45 0 87 -13t64.5 -34.5t22.5 -62.5q0 -53 -31 -96q18 -166 53 -322t82 -321q29 6 68 16t53 10q16 0 33 -10q57 -45 57 -109q0 -35 -14.5 -59.5t-37 -29.5t-61.5 -5h-26 q6 -43 34.5 -98t51.5 -86q43 -33 43 -82q0 -63 -44 -72.5t-57 -9.5q-41 0 -75.5 13.5t-47 31.5t-15.5 39.5t-5 46.5q-10 10 -35.5 69.5t-52.5 121.5q-92 -14 -186.5 -27.5t-145.5 -28.5q-16 -47 -28.5 -85t-12.5 -52q4 -25 4 -33q0 -45 -31.5 -68.5t-72.5 -23.5q-14 0 -37 5 t-53.5 39t-30.5 71zM344 420l225 39q-12 43 -37.5 149.5t-50.5 247.5q-51 -113 -90 -237.5t-47 -198.5zM444 1462q-6 49 25 108.5t74 84t69 24.5q35 0 65 -18.5t34 -46.5q4 -31 -33 -74t-49.5 -69.5t-23.5 -48t-27 -27.5t-35 -6q-35 0 -63.5 18t-35.5 55z" />
<glyph unicode="&#xc2;" horiz-adv-x="1013" d="M45 76q0 45 37 76q59 301 133 561t166 471q-4 29 -4 43q0 37 13 63.5t31.5 35.5t33 12t37.5 3q45 0 87 -13t64.5 -34.5t22.5 -62.5q0 -53 -31 -96q18 -166 53 -322t82 -321q29 6 68 16t53 10q16 0 33 -10q57 -45 57 -109q0 -35 -14.5 -59.5t-37 -29.5t-61.5 -5h-26 q6 -43 34.5 -98t51.5 -86q43 -33 43 -82q0 -63 -44 -72.5t-57 -9.5q-41 0 -75.5 13.5t-47 31.5t-15.5 39.5t-5 46.5q-10 10 -35.5 69.5t-52.5 121.5q-92 -14 -186.5 -27.5t-145.5 -28.5q-16 -47 -28.5 -85t-12.5 -52q4 -25 4 -33q0 -45 -31.5 -68.5t-72.5 -23.5q-14 0 -37 5 t-53.5 39t-30.5 71zM231 1423q0 27 37 68t76 78q37 59 67.5 103t67.5 44q57 0 94 -39t68 -71q106 -92 140 -134t22 -71q-10 -25 -38 -41.5t-58 -16.5q-20 0 -34 5.5t-20 6.5t-49 48l-100 113q-53 -45 -87 -113t-61 -68q-39 -4 -82 23.5t-43 64.5zM344 420l225 39 q-12 43 -37.5 149.5t-50.5 247.5q-51 -113 -90 -237.5t-47 -198.5z" />
<glyph unicode="&#xc3;" horiz-adv-x="1013" d="M45 76q0 45 37 76q59 301 133 561t166 471q-4 29 -4 43q0 37 13 63.5t31.5 35.5t33 12t37.5 3q45 0 87 -13t64.5 -34.5t22.5 -62.5q0 -53 -31 -96q18 -166 53 -322t82 -321q29 6 68 16t53 10q16 0 33 -10q57 -45 57 -109q0 -35 -14.5 -59.5t-37 -29.5t-61.5 -5h-26 q6 -43 34.5 -98t51.5 -86q43 -33 43 -82q0 -63 -44 -72.5t-57 -9.5q-41 0 -75.5 13.5t-47 31.5t-15.5 39.5t-5 46.5q-10 10 -35.5 69.5t-52.5 121.5q-92 -14 -186.5 -27.5t-145.5 -28.5q-16 -47 -28.5 -85t-12.5 -52q4 -25 4 -33q0 -45 -31.5 -68.5t-72.5 -23.5q-14 0 -37 5 t-53.5 39t-30.5 71zM170 1464q0 39 20.5 61.5t66.5 49.5t87 27q8 0 25 -5l221 -61q33 -8 86 44t74 42q25 -12 39 -45t14 -72t-17 -67q-31 -23 -69.5 -42.5t-73.5 -11.5l-209 46q-39 8 -93 -39t-83 -39q-39 12 -63.5 42.5t-24.5 69.5zM344 420l225 39q-12 43 -37.5 149.5 t-50.5 247.5q-51 -113 -90 -237.5t-47 -198.5z" />
<glyph unicode="&#xc4;" horiz-adv-x="1013" d="M45 76q0 45 37 76q59 301 133 561t166 471q-4 29 -4 43q0 37 13 63.5t31.5 35.5t33 12t37.5 3q45 0 87 -13t64.5 -34.5t22.5 -62.5q0 -53 -31 -96q18 -166 53 -322t82 -321q29 6 68 16t53 10q16 0 33 -10q57 -45 57 -109q0 -35 -14.5 -59.5t-37 -29.5t-61.5 -5h-26 q6 -43 34.5 -98t51.5 -86q43 -33 43 -82q0 -63 -44 -72.5t-57 -9.5q-41 0 -75.5 13.5t-47 31.5t-15.5 39.5t-5 46.5q-10 10 -35.5 69.5t-52.5 121.5q-92 -14 -186.5 -27.5t-145.5 -28.5q-16 -47 -28.5 -85t-12.5 -52q4 -25 4 -33q0 -45 -31.5 -68.5t-72.5 -23.5q-14 0 -37 5 t-53.5 39t-30.5 71zM324 1456q0 12 8 32.5t11 28t3 27.5q-2 25 -2 37q0 25 15.5 40t56.5 15q37 0 70.5 -17t39.5 -44q4 -23 -3 -45.5t-11 -35.5t-6 -45t-14 -46q-16 -16 -58 -17q-39 0 -74.5 18.5t-35.5 51.5zM344 420l225 39q-12 43 -37.5 149.5t-50.5 247.5 q-51 -113 -90 -237.5t-47 -198.5zM608 1411q0 14 8.5 34.5t10.5 29t2 26.5q-2 23 -2 35q0 25 17.5 42t55.5 17q37 0 70 -16t39 -45q4 -18 -2 -41t-10 -36t-8.5 -48t-14.5 -49q-16 -16 -57 -17q-41 0 -75 18.5t-34 49.5z" />
<glyph unicode="&#xc5;" horiz-adv-x="1013" d="M45 76q0 45 37 76q59 301 133 561t166 471q-4 29 -4 43q0 37 13 63.5t31.5 35.5t33 12t37.5 3q45 0 87 -13t64.5 -34.5t22.5 -62.5q0 -53 -31 -96q18 -166 53 -322t82 -321q29 6 68 16t53 10q16 0 33 -10q57 -45 57 -109q0 -35 -14.5 -59.5t-37 -29.5t-61.5 -5h-26 q6 -43 34.5 -98t51.5 -86q43 -33 43 -82q0 -63 -44 -72.5t-57 -9.5q-41 0 -75.5 13.5t-47 31.5t-15.5 39.5t-5 46.5q-10 10 -35.5 69.5t-52.5 121.5q-92 -14 -186.5 -27.5t-145.5 -28.5q-16 -47 -28.5 -85t-12.5 -52q4 -25 4 -33q0 -45 -31.5 -68.5t-72.5 -23.5q-14 0 -37 5 t-53.5 39t-30.5 71zM340 1538q0 39 14 73.5t45 67.5q66 70 154 70q63 0 105 -44t42 -106q0 -82 -65.5 -147.5t-147.5 -65.5q-61 0 -104 42t-43 110zM344 420l225 39q-12 43 -37.5 149.5t-50.5 247.5q-51 -113 -90 -237.5t-47 -198.5zM428 1513q0 -18 11.5 -33.5t35.5 -15.5 q25 0 54.5 19.5t46 40t25.5 40t9 38.5q0 18 -14 32.5t-33 14.5q-18 0 -43 -17t-43 -33q-18 -18 -33.5 -42.5t-15.5 -43.5z" />
<glyph unicode="&#xc7;" horiz-adv-x="927" d="M41 682q0 348 98.5 652t198.5 315.5t133 11.5q170 0 251 -133t126 -383q10 -31 22.5 -62.5t12.5 -60.5q0 -33 -18.5 -58.5t-50.5 -40t-60 -14.5q-55 0 -117 32t-79 60.5t-17 45.5q0 20 9 40.5t19 38.5q0 90 -29.5 170t-68.5 90q-59 14 -102 -214t-43 -455 q0 -199 26.5 -358.5t85.5 -170.5q37 -8 87 87.5t83 218.5q-4 29 -4 38q0 59 40 91t108 32q14 0 24 -1t52 -10t66 -34.5t24 -62.5q0 -33 -15.5 -62.5t-42.5 -52.5q-41 -100 -185.5 -284.5t-175 -176t-104 -173t-90.5 -175.5q-43 12 -84 25q-61 29 -82 98q-6 18 59.5 131 t59.5 117q-104 96 -160.5 295.5t-56.5 392.5z" />
<glyph unicode="&#xc8;" horiz-adv-x="724" d="M74 1217q0 27 30.5 44t69.5 23q23 4 48.5 -9t45.5 -24l197 64q25 12 43 21.5t45 9.5q18 0 40.5 -5.5t59.5 -55.5t37 -91q0 -27 -28.5 -51.5t-86.5 -24.5q-27 0 -57 6q-55 -18 -116.5 -39.5t-90.5 -48.5v-391q2 2 20.5 6t28.5 8q18 33 68 33q10 0 45 -10t81 -47t46 -78 q0 -14 -10 -38.5t-39 -39t-68 -14.5q-12 0 -32.5 2t-26.5 2q-8 0 -23.5 -5t-48.5 -21.5l-41 -20.5q0 -43 1 -98.5t10 -90.5q33 8 54 15.5t60 23.5q8 12 20.5 25.5t55.5 9.5q45 0 94 -49t49 -100q0 -31 -15 -50.5t-40 -26.5t-63 -7q-31 0 -45 2l-154 -80q-4 -2 -40 -30.5 t-62 -20.5q-49 14 -86 48t-72 89q-4 8 -2 23.5t16 62.5q0 156 -1 310.5t-3 357t-2 348.5q-12 18 -12 33zM178 1577q6 47 62 47q31 0 78 -28.5t77.5 -86t24.5 -108.5q-4 -31 -19.5 -42t-38.5 -11q-27 0 -50 9t-40.5 52t-21.5 49t-40 47t-32 72z" />
<glyph unicode="&#xc9;" horiz-adv-x="724" d="M74 1217q0 27 30.5 44t69.5 23q23 4 48.5 -9t45.5 -24l197 64q25 12 43 21.5t45 9.5q18 0 40.5 -5.5t59.5 -55.5t37 -91q0 -27 -28.5 -51.5t-86.5 -24.5q-27 0 -57 6q-55 -18 -116.5 -39.5t-90.5 -48.5v-391q2 2 20.5 6t28.5 8q18 33 68 33q10 0 45 -10t81 -47t46 -78 q0 -14 -10 -38.5t-39 -39t-68 -14.5q-12 0 -32.5 2t-26.5 2q-8 0 -23.5 -5t-48.5 -21.5l-41 -20.5q0 -43 1 -98.5t10 -90.5q33 8 54 15.5t60 23.5q8 12 20.5 25.5t55.5 9.5q45 0 94 -49t49 -100q0 -31 -15 -50.5t-40 -26.5t-63 -7q-31 0 -45 2l-154 -80q-4 -2 -40 -30.5 t-62 -20.5q-49 14 -86 48t-72 89q-4 8 -2 23.5t16 62.5q0 156 -1 310.5t-3 357t-2 348.5q-12 18 -12 33zM260 1438q-6 49 24.5 108.5t73.5 84t70 24.5q35 0 64.5 -18.5t33.5 -47.5q4 -31 -32.5 -73.5t-49 -69.5t-24 -48.5t-27.5 -27.5t-35 -6q-35 0 -63.5 18.5t-34.5 55.5z " />
<glyph unicode="&#xca;" horiz-adv-x="724" d="M74 1217q0 27 30.5 44t69.5 23q23 4 48.5 -9t45.5 -24l197 64q25 12 43 21.5t45 9.5q18 0 40.5 -5.5t59.5 -55.5t37 -91q0 -27 -28.5 -51.5t-86.5 -24.5q-27 0 -57 6q-55 -18 -116.5 -39.5t-90.5 -48.5v-391q2 2 20.5 6t28.5 8q18 33 68 33q10 0 45 -10t81 -47t46 -78 q0 -14 -10 -38.5t-39 -39t-68 -14.5q-12 0 -32.5 2t-26.5 2q-8 0 -23.5 -5t-48.5 -21.5l-41 -20.5q0 -43 1 -98.5t10 -90.5q33 8 54 15.5t60 23.5q8 12 20.5 25.5t55.5 9.5q45 0 94 -49t49 -100q0 -31 -15 -50.5t-40 -26.5t-63 -7q-31 0 -45 2l-154 -80q-4 -2 -40 -30.5 t-62 -20.5q-49 14 -86 48t-72 89q-4 8 -2 23.5t16 62.5q0 156 -1 310.5t-3 357t-2 348.5q-12 18 -12 33zM96 1485q0 27 37 67.5t76 77.5q37 59 67.5 103.5t67.5 44.5q57 0 94 -39t68 -72q106 -92 140 -134t22 -71q-10 -25 -38 -41t-59 -16q-20 0 -33.5 5t-19.5 6t-49 48 l-100 113q-53 -45 -87 -112.5t-61 -67.5q-39 -4 -82 23.5t-43 64.5z" />
<glyph unicode="&#xcb;" horiz-adv-x="724" d="M74 1217q0 27 30.5 44t69.5 23q23 4 48.5 -9t45.5 -24l197 64q25 12 43 21.5t45 9.5q18 0 40.5 -5.5t59.5 -55.5t37 -91q0 -27 -28.5 -51.5t-86.5 -24.5q-27 0 -57 6q-55 -18 -116.5 -39.5t-90.5 -48.5v-391q2 2 20.5 6t28.5 8q18 33 68 33q10 0 45 -10t81 -47t46 -78 q0 -14 -10 -38.5t-39 -39t-68 -14.5q-12 0 -32.5 2t-26.5 2q-8 0 -23.5 -5t-48.5 -21.5l-41 -20.5q0 -43 1 -98.5t10 -90.5q33 8 54 15.5t60 23.5q8 12 20.5 25.5t55.5 9.5q45 0 94 -49t49 -100q0 -31 -15 -50.5t-40 -26.5t-63 -7q-31 0 -45 2l-154 -80q-4 -2 -40 -30.5 t-62 -20.5q-49 14 -86 48t-72 89q-4 8 -2 23.5t16 62.5q0 156 -1 310.5t-3 357t-2 348.5q-12 18 -12 33zM164 1493q0 12 8 32.5t11 28t3 27.5q-2 25 -2 37q0 25 15.5 40t56.5 15q37 0 70.5 -17.5t40.5 -43.5q4 -23 -3.5 -45.5t-11.5 -35.5t-6 -45t-14 -46q-16 -16 -58 -17 q-39 0 -74.5 18.5t-35.5 51.5zM449 1448q0 14 8 34.5t10 29t2 26.5q-2 23 -2 35q0 25 17.5 42t56.5 17q37 0 69.5 -16.5t38.5 -44.5q4 -18 -2 -41t-10 -36t-8.5 -48t-14.5 -49q-16 -16 -57 -17q-41 0 -74.5 18.5t-33.5 49.5z" />
<glyph unicode="&#xcc;" horiz-adv-x="430" d="M43 1241q0 27 31.5 56.5t81.5 29.5q53 0 111.5 -26.5t66.5 -52t8 -31.5q0 -18 -12.5 -43t-22.5 -48l17 -991q0 -23 15 -53.5t15 -46.5l-4 -23q-14 -43 -88 -43q-14 0 -64.5 8.5t-85 27t-43 43t-8.5 30.5q0 18 10.5 35.5t26.5 33.5l-28 1004q0 20 -13.5 50t-13.5 40z M92 1614q6 47 62 47q31 0 78 -28.5t77.5 -86t24.5 -108.5q-4 -31 -19.5 -42.5t-38.5 -11.5q-27 0 -50 9.5t-40.5 52.5t-21.5 49t-40 47t-32 72z" />
<glyph unicode="&#xcd;" horiz-adv-x="430" d="M43 1241q0 27 31.5 56.5t81.5 29.5q53 0 111.5 -26.5t66.5 -52t8 -31.5q0 -18 -12.5 -43t-22.5 -48l17 -991q0 -23 15 -53.5t15 -46.5l-4 -23q-14 -43 -88 -43q-14 0 -64.5 8.5t-85 27t-43 43t-8.5 30.5q0 18 10.5 35.5t26.5 33.5l-28 1004q0 20 -13.5 50t-13.5 40z M125 1462q-6 49 24.5 108.5t73.5 84t70 24.5q35 0 64.5 -18.5t33.5 -46.5q4 -31 -32.5 -74t-49 -69.5t-24 -48t-27.5 -27.5t-35 -6q-35 0 -63.5 18t-34.5 55z" />
<glyph unicode="&#xce;" horiz-adv-x="688" d="M59 1466q0 27 37 68t76 78q37 59 67.5 103t67.5 44q57 0 94 -39t68 -71q106 -92 140 -134t22 -71q-10 -25 -38 -41.5t-58 -16.5q-20 0 -34 5.5t-20 6.5t-49 48l-100 113q-53 -45 -87 -113t-61 -68q-39 -4 -82 24t-43 64zM215 1212q0 27 32 56.5t81 29.5q53 0 111.5 -26.5 t66.5 -52t8 -31.5q0 -18 -12.5 -43t-22.5 -47l17 -992q0 -23 15 -53t15 -47l-4 -22q-14 -43 -88 -43q-14 0 -64.5 8t-85 26.5t-43 43t-8.5 30.5q0 18 10.5 36t26.5 34l-28 1003q0 20 -13.5 50t-13.5 40z" />
<glyph unicode="&#xcf;" horiz-adv-x="589" d="M66 1481q0 12 8 32.5t11 27.5t3 28q-2 25 -2 37q0 25 15.5 40t56.5 15q37 0 70.5 -17.5t39.5 -44.5q4 -23 -3 -45t-11 -35.5t-6.5 -45.5t-14.5 -46q-16 -16 -57 -16q-39 0 -74.5 18.5t-35.5 51.5zM129 1241q0 27 32 56.5t81 29.5q53 0 111.5 -26.5t66.5 -52t8 -31.5 q0 -18 -12.5 -43t-22.5 -48l17 -991q0 -23 15 -53.5t15 -46.5l-4 -23q-14 -43 -88 -43q-14 0 -64.5 8.5t-85 27t-43 43t-8.5 30.5q0 18 10.5 35.5t26.5 33.5l-28 1004q0 20 -13.5 50t-13.5 40zM350 1436q0 14 8.5 34.5t10.5 28.5t2 27q-2 23 -2 35q0 25 17 42t56 17 q37 0 70 -16.5t39 -44.5q4 -18 -2 -41t-10 -36.5t-8.5 -48.5t-14.5 -49q-16 -16 -57 -16t-75 18.5t-34 49.5z" />
<glyph unicode="&#xd1;" horiz-adv-x="983" d="M72 1229q0 23 24.5 38t75.5 15q47 0 97 -16.5t69.5 -42t19.5 -45.5q-2 -20 -4 -37t0 -21q14 -78 91 -234.5t164 -311t89 -154.5l-20 799q0 16 -11.5 34.5t-11.5 26.5q0 20 26 46t64 26q61 0 125 -42t64 -91q0 -31 -26.5 -49.5t-26.5 -34.5l24 -899q0 -23 22.5 -58 t22.5 -59q0 -59 -38 -99t-97 -40q-137 0 -188 139q-8 16 -10.5 59t-16.5 68q-2 0 -61.5 96t-124 213t-109.5 221q0 -127 8.5 -298t18.5 -331q0 -6 16.5 -47t16.5 -55q0 -29 -17.5 -51.5t-39 -30.5t-48.5 -8q-59 0 -115.5 38t-62.5 85q-6 41 19.5 62.5t25.5 35.5l-49 1004 q0 14 -2 25.5t-4 23.5zM170 1464q0 39 20.5 61.5t66.5 49.5t87 27q8 0 25 -5l221 -61q33 -8 86 44t74 42q25 -12 39 -45t14 -72t-17 -67q-31 -23 -69.5 -42.5t-73.5 -11.5l-209 46q-39 8 -93 -39t-83 -39q-39 12 -63.5 42.5t-24.5 69.5z" />
<glyph unicode="&#xd2;" d="M53 688q0 186 62.5 388t104.5 229.5t61 27.5q18 0 51 -9t43 -9q23 0 78 9t71 9q20 0 99 -31.5t148 -209t69 -404.5q0 -225 -82 -455.5t-145.5 -251t-98.5 -20.5q-27 0 -46 3t-42 7q-195 23 -284 231t-89 486zM270 688q0 -170 58.5 -355.5t113.5 -185.5q51 0 115 170 t64 324q0 33 -3 47q0 174 -41.5 327.5t-136.5 153.5q-25 0 -52.5 -12t-72.5 -176t-45 -293z" />
<glyph unicode="&#xd3;" d="M53 688q0 186 62.5 388t104.5 229.5t61 27.5q18 0 51 -9t43 -9q23 0 78 9t71 9q20 0 99 -31.5t148 -209t69 -404.5q0 -225 -82 -455.5t-145.5 -251t-98.5 -20.5q-27 0 -46 3t-42 7q-195 23 -284 231t-89 486zM270 688q0 -170 58.5 -355.5t113.5 -185.5q51 0 115 170 t64 324q0 33 -3 47q0 174 -41.5 327.5t-136.5 153.5q-25 0 -52.5 -12t-72.5 -176t-45 -293zM408 1450q-6 49 24.5 108.5t73.5 84t69 24.5q35 0 65 -18.5t34 -46.5q4 -31 -33 -74t-49 -69.5t-23.5 -48.5t-27.5 -28t-35 -6q-35 0 -63.5 18.5t-34.5 55.5z" />
<glyph unicode="&#xd4;" d="M53 688q0 186 62.5 388t104.5 229.5t61 27.5q18 0 51 -9t43 -9q23 0 78 9t71 9q20 0 99 -31.5t148 -209t69 -404.5q0 -225 -82 -455.5t-145.5 -251t-98.5 -20.5q-27 0 -46 3t-42 7q-195 23 -284 231t-89 486zM109 1454q0 27 36.5 68t75.5 77q37 59 67.5 103.5t67.5 44.5 q57 0 94 -39t68 -72q106 -92 140 -133.5t22 -70.5q-10 -25 -38 -41.5t-58 -16.5q-20 0 -33.5 5t-20 6t-49.5 49l-100 112q-53 -45 -87 -112.5t-61 -67.5q-39 -4 -81.5 23.5t-42.5 64.5zM270 688q0 -170 58.5 -355.5t113.5 -185.5q51 0 115 170t64 324q0 33 -3 47 q0 174 -41.5 327.5t-136.5 153.5q-25 0 -52.5 -12t-72.5 -176t-45 -293z" />
<glyph unicode="&#xd5;" d="M53 688q0 186 62.5 388t104.5 229.5t61 27.5q18 0 51 -9t43 -9q23 0 78 9t71 9q20 0 99 -31.5t148 -209t69 -404.5q0 -225 -82 -455.5t-145.5 -251t-98.5 -20.5q-27 0 -46 3t-42 7q-195 23 -284 231t-89 486zM109 1452q0 39 20.5 61.5t66.5 49t87 26.5q8 0 24 -4l221 -61 q33 -8 86.5 44t73.5 42q25 -12 39 -45t14 -72t-16 -68q-31 -23 -70 -42t-73 -11l-209 45q-39 8 -93 -39t-83 -39q-39 12 -63.5 43t-24.5 70zM270 688q0 -170 58.5 -355.5t113.5 -185.5q51 0 115 170t64 324q0 33 -3 47q0 174 -41.5 327.5t-136.5 153.5q-25 0 -52.5 -12 t-72.5 -176t-45 -293z" />
<glyph unicode="&#xd6;" d="M53 688q0 186 62.5 388t104.5 229.5t61 27.5q18 0 51 -9t43 -9q23 0 78 9t71 9q20 0 99 -31.5t148 -209t69 -404.5q0 -225 -82 -455.5t-145.5 -251t-98.5 -20.5q-27 0 -46 3t-42 7q-195 23 -284 231t-89 486zM213 1481q0 12 8 32.5t11.5 27.5t3.5 28q-2 25 -3 37 q0 25 15.5 40t56.5 15q37 0 71 -17.5t40 -44.5q4 -23 -3 -45t-11.5 -35.5t-6.5 -45.5t-14 -46q-16 -16 -57 -16q-39 0 -75 18.5t-36 51.5zM270 688q0 -170 58.5 -355.5t113.5 -185.5q51 0 115 170t64 324q0 33 -3 47q0 174 -41.5 327.5t-136.5 153.5q-25 0 -52.5 -12 t-72.5 -176t-45 -293zM498 1436q0 14 8 34.5t10 28.5t2 27q-2 23 -2 35q0 25 17.5 42t56.5 17q37 0 69.5 -16.5t38.5 -44.5q4 -18 -2 -41t-10 -36.5t-8 -48.5t-14 -49q-16 -16 -58 -16q-41 0 -74.5 18.5t-33.5 49.5z" />
<glyph unicode="&#xd9;" d="M49 1202q0 51 31 88q23 23 76 23q66 0 121 -31t55 -88q0 -23 -18.5 -57.5t-14.5 -53.5q-2 -4 -2 -16v-18q0 -213 36 -543t91 -330q74 0 118 311.5t44 544.5q0 49 -2 62q4 20 -24 61t-28 70q0 31 28 70.5t120 39.5q47 0 90 -19.5t60.5 -53t17.5 -56.5q0 -12 -6 -28.5 t-13 -30.5v-53.5t2 -67.5q0 -246 -23.5 -478.5t-109.5 -420.5t-252 -188q-158 0 -243.5 161.5t-115.5 383t-30 442.5q0 76 2 124t4 68q-14 51 -14 84zM289 1577q6 47 61 47q31 0 78 -28.5t77.5 -86t24.5 -108.5q-4 -31 -19 -42t-38 -11q-27 0 -50.5 9t-40.5 52t-21.5 49 t-40 47t-31.5 72z" />
<glyph unicode="&#xda;" d="M49 1202q0 51 31 88q23 23 76 23q66 0 121 -31t55 -88q0 -23 -18.5 -57.5t-14.5 -53.5q-2 -4 -2 -16v-18q0 -213 36 -543t91 -330q74 0 118 311.5t44 544.5q0 49 -2 62q4 20 -24 61t-28 70q0 31 28 70.5t120 39.5q47 0 90 -19.5t60.5 -53t17.5 -56.5q0 -12 -6 -28.5 t-13 -30.5v-53.5t2 -67.5q0 -246 -23.5 -478.5t-109.5 -420.5t-252 -188q-158 0 -243.5 161.5t-115.5 383t-30 442.5q0 76 2 124t4 68q-14 51 -14 84zM383 1438q-6 49 24.5 108.5t73.5 84t70 24.5q35 0 64.5 -18.5t33.5 -47.5q4 -31 -32.5 -73.5t-49 -69.5t-24 -48.5 t-27.5 -27.5t-35 -6q-35 0 -63.5 18.5t-34.5 55.5z" />
<glyph unicode="&#xdb;" d="M49 1202q0 51 31 88q23 23 76 23q66 0 121 -31t55 -88q0 -23 -18.5 -57.5t-14.5 -53.5q-2 -4 -2 -16v-18q0 -213 36 -543t91 -330q74 0 118 311.5t44 544.5q0 49 -2 62q4 20 -24 61t-28 70q0 31 28 70.5t120 39.5q47 0 90 -19.5t60.5 -53t17.5 -56.5q0 -12 -6 -28.5 t-13 -30.5v-53.5t2 -67.5q0 -246 -23.5 -478.5t-109.5 -420.5t-252 -188q-158 0 -243.5 161.5t-115.5 383t-30 442.5q0 76 2 124t4 68q-14 51 -14 84zM160 1438q0 27 36.5 67.5t75.5 77.5q37 59 68 103.5t68 44.5q57 0 94 -39t67 -72q106 -92 140 -134t22 -71 q-10 -25 -37.5 -41t-58.5 -16q-20 0 -33.5 5t-20 6t-49.5 48l-100 113q-53 -45 -87 -112.5t-60 -67.5q-39 -4 -82 23.5t-43 64.5z" />
<glyph unicode="&#xdc;" d="M49 1202q0 51 31 88q23 23 76 23q66 0 121 -31t55 -88q0 -23 -18.5 -57.5t-14.5 -53.5q-2 -4 -2 -16v-18q0 -213 36 -543t91 -330q74 0 118 311.5t44 544.5q0 49 -2 62q4 20 -24 61t-28 70q0 31 28 70.5t120 39.5q47 0 90 -19.5t60.5 -53t17.5 -56.5q0 -12 -6 -28.5 t-13 -30.5v-53.5t2 -67.5q0 -246 -23.5 -478.5t-109.5 -420.5t-252 -188q-158 0 -243.5 161.5t-115.5 383t-30 442.5q0 76 2 124t4 68q-14 51 -14 84zM201 1481q0 12 8 32.5t11 27.5t3 28q-2 25 -2 37q0 25 15.5 40t56.5 15q37 0 70.5 -17.5t39.5 -44.5q4 -23 -3 -45 t-11 -35.5t-6 -45.5t-14 -46q-16 -16 -58 -16q-39 0 -74.5 18.5t-35.5 51.5zM485 1436q0 14 8.5 34.5t10.5 28.5t2 27q-2 23 -2 35q0 25 17.5 42t56.5 17q37 0 69.5 -16.5t38.5 -44.5q4 -18 -2 -41t-10 -36.5t-8.5 -48.5t-14.5 -49q-16 -16 -57 -16t-75 18.5t-34 49.5z" />
<glyph unicode="&#xe0;" horiz-adv-x="929" d="M16 268q0 188 195 324q160 92 321 186q4 12 6.5 28.5t2.5 39.5q0 31 -7.5 50t-22.5 23.5t-33.5 8.5t-33.5 4q-41 0 -68.5 -27.5t-51.5 -52.5q-27 -16 -61 -69.5t-70 -57.5q-53 -8 -96.5 36t-43.5 101q0 35 32 86t150.5 123t333.5 72q184 0 218 -292t51.5 -457t48.5 -207 t31 -72q-1 -9 -5 -29q-14 -49 -58 -75.5t-93 -26.5q-39 0 -67.5 18t-48 111.5t-44.5 158.5q0 -113 -116.5 -229.5t-237.5 -116.5q-70 0 -126 48.5t-81 137.5t-25 156zM223 1532q0 27 34 47t71 20q33 0 84 -53t101.5 -129t70.5 -131q4 -16 4 -22q0 -33 -35 -54.5t-82 -21.5 q-25 0 -48.5 10t-45 57.5t-33.5 73t-66.5 90t-54.5 113.5zM250 287q0 -49 28.5 -90t53.5 -41q51 0 114.5 120.5t110.5 313.5q-63 -35 -122.5 -68t-101.5 -81t-62.5 -81.5t-20.5 -72.5z" />
<glyph unicode="&#xe1;" horiz-adv-x="929" d="M16 268q0 188 195 324q160 92 321 186q4 12 6.5 28.5t2.5 39.5q0 31 -7.5 50t-22.5 23.5t-33.5 8.5t-33.5 4q-41 0 -68.5 -27.5t-51.5 -52.5q-27 -16 -61 -69.5t-70 -57.5q-53 -8 -96.5 36t-43.5 101q0 35 32 86t150.5 123t333.5 72q184 0 218 -292t51.5 -457t48.5 -207 t31 -72q0 -8 -9.5 -43t-53.5 -61.5t-93 -26.5q-39 0 -67.5 18t-48 111t-44.5 159q0 -113 -116.5 -229.5t-237.5 -116.5q-70 0 -126 48.5t-81 137.5t-25 156zM250 287q0 -50 37 -103q20 -29 45 -28q51 0 114.5 120.5t110.5 313.5q-63 -35 -122.5 -68t-101.5 -81t-62.5 -81.5 t-20.5 -72.5zM399 1288q0 6 4 23q23 57 72 131t100.5 128t83.5 54q39 0 72 -19.5t33 -48.5q0 -53 -50 -108t-65 -80q-23 -51 -41 -93t-43 -52q-27 -10 -51 -11q-45 0 -80 21.5t-35 54.5z" />
<glyph unicode="&#xe2;" horiz-adv-x="929" d="M16 268q0 188 195 324q160 92 321 186q4 12 6.5 28.5t2.5 39.5q0 31 -7.5 50t-22.5 23.5t-33.5 8.5t-33.5 4q-41 0 -68.5 -27.5t-51.5 -52.5q-27 -16 -61 -69.5t-70 -57.5q-53 -8 -96.5 36t-43.5 101q0 35 32 86t150.5 123t333.5 72q184 0 218 -292t51.5 -457t48.5 -207 t31 -72q-1 -9 -5 -29q-14 -49 -58 -75.5t-93 -26.5q-39 0 -67.5 18t-48 111.5t-44.5 158.5q0 -113 -116.5 -229.5t-237.5 -116.5q-70 0 -126 48.5t-81 137.5t-25 156zM182 1337q0 27 37 68t76 78q37 59 67.5 103t67.5 44q57 0 94 -39t68 -71q88 -76 124 -118t36 -69 q0 -6 -4 -18q-23 -57 -93 -58q-18 0 -31.5 5.5t-19.5 6.5t-49 48l-100 113q-53 -45 -87 -113t-61 -68q-39 -4 -82 23.5t-43 64.5zM250 287q0 -49 28.5 -90t53.5 -41q51 0 114.5 120.5t110.5 313.5q-63 -35 -122.5 -68t-101.5 -81t-62.5 -81.5t-20.5 -72.5z" />
<glyph unicode="&#xe3;" horiz-adv-x="929" d="M16 268q0 188 195 324q160 92 321 186q4 12 6.5 28.5t2.5 39.5q0 31 -7.5 50t-22.5 23.5t-33.5 8.5t-33.5 4q-41 0 -68.5 -27.5t-51.5 -52.5q-27 -16 -61 -69.5t-70 -57.5q-53 -8 -96.5 36t-43.5 101q0 35 32 86t150.5 123t333.5 72q184 0 218 -292t51.5 -457t48.5 -207 t31 -72q0 -8 -9.5 -43t-53.5 -61.5t-93 -26.5q-39 0 -67.5 18t-48 111t-44.5 159q0 -113 -116.5 -229.5t-237.5 -116.5q-70 0 -126 48.5t-81 137.5t-25 156zM170 1409q0 45 20.5 67.5t66.5 49t87 26.5q8 0 25 -4l221 -61q35 -10 86 41t74 45t38 -46t15 -85q0 -49 -17 -78 q-31 -23 -69.5 -42t-73.5 -11l-209 45q-39 8 -93 -39t-83 -39q-39 12 -63.5 49t-24.5 82zM250 287q0 -50 37 -103q20 -29 45 -28q51 0 114.5 120.5t110.5 313.5q-63 -35 -122.5 -68t-101.5 -81t-62.5 -81.5t-20.5 -72.5z" />
<glyph unicode="&#xe4;" horiz-adv-x="929" d="M16 268q0 188 195 324q160 92 321 186q4 12 6.5 28.5t2.5 39.5q0 31 -7.5 50t-22.5 23.5t-33.5 8.5t-33.5 4q-41 0 -68.5 -27.5t-51.5 -52.5q-27 -16 -61 -69.5t-70 -57.5q-53 -8 -96.5 36t-43.5 101q0 35 32 86t150.5 123t333.5 72q184 0 218 -292t51.5 -457t48.5 -207 t31 -72q0 -8 -9.5 -43t-53.5 -61.5t-93 -26.5q-39 0 -67.5 18t-48 111t-44.5 159q0 -113 -116.5 -229.5t-237.5 -116.5q-70 0 -126 48.5t-81 137.5t-25 156zM211 1313q0 12 6 28.5l14 38.5q4 20 5 31q-2 29 -3 43q0 14 3.5 24.5t19.5 25t55 14.5q41 0 79 -19.5t46 -50.5 q4 -25 -4 -49.5t-12 -36.5t-6.5 -50.5t-16.5 -54.5q-16 -18 -65 -18q-47 0 -84 19.5t-37 54.5zM250 287q0 -50 37 -103q20 -29 45 -28q51 0 114.5 120.5t110.5 313.5q-63 -35 -122.5 -68t-101.5 -81t-62.5 -81.5t-20.5 -72.5zM526 1292q0 16 8.5 39t11.5 32t3 32 q-2 23 -2 35q0 31 19.5 50t62.5 19q41 0 77.5 -19.5t43.5 -49.5q4 -20 -3.5 -45t-13.5 -48q-4 -37 -5 -59.5t-17 -40.5t-66 -18q-45 0 -82 19t-37 54z" />
<glyph unicode="&#xe5;" horiz-adv-x="929" d="M16 268q0 188 195 324q160 92 321 186q4 12 6.5 28.5t2.5 39.5q0 31 -7.5 50t-22.5 23.5t-33.5 8.5t-33.5 4q-41 0 -68.5 -27.5t-51.5 -52.5q-27 -16 -61 -69.5t-70 -57.5q-53 -8 -96.5 36t-43.5 101q0 35 32 86t150.5 123t333.5 72q184 0 218 -292t51.5 -457t48.5 -207 t31 -72q0 -8 -9.5 -43t-53.5 -61.5t-93 -26.5q-39 0 -67.5 18t-48 111t-44.5 159q0 -113 -116.5 -229.5t-237.5 -116.5q-70 0 -126 48.5t-81 137.5t-25 156zM250 287q0 -50 37 -103q20 -29 45 -28q51 0 114.5 120.5t110.5 313.5q-63 -35 -122.5 -68t-101.5 -81t-62.5 -81.5 t-20.5 -72.5zM276 1407q0 98 74 178q80 86 191 86q82 0 134 -54t52 -130q0 -102 -82 -184t-184 -82q-41 0 -71 11t-72 53t-42 122zM387 1378q0 -20 14.5 -40.5t44.5 -20.5q31 0 67 23.5t56.5 50t31.5 51t11 45.5q0 27 -17 44t-40 17q-25 0 -50 -16t-56 -45 q-29 -29 -45.5 -54.5t-16.5 -54.5z" />
<glyph unicode="&#xe7;" horiz-adv-x="770" d="M29 -246q49 61 126.5 150.5t71.5 95.5q-86 90 -129 227.5t-43 298.5q0 252 100.5 440.5t268.5 188.5q133 0 211 -139t78 -287q0 -41 -6.5 -72.5t-40 -51t-76.5 -19.5q-82 0 -108.5 29.5t-31 59.5t-4.5 68v52.5t3 52.5q0 55 -5.5 77.5t-27.5 22.5q-35 0 -74 -199.5 t-39 -377.5q0 -100 13.5 -153.5t48.5 -53.5q41 0 71.5 39t46.5 90q14 18 16.5 69.5t24.5 67.5q29 16 74 16q63 0 110.5 -26.5t47.5 -79.5q0 -45 -48.5 -103.5t-64.5 -91.5q-47 -74 -94 -121t-81 -58t-158 -178t-136 -167q-33 0 -83 62.5t-62 70.5z" />
<glyph unicode="&#xe8;" horiz-adv-x="774" d="M59 496q0 246 95.5 440t187.5 208.5t110.5 14.5h28.5q117 0 193 -71.5t76 -210.5q0 -154 -121 -325t-324 -241q23 -84 42.5 -120.5t70.5 -36.5q45 0 96 33.5t66 62.5q8 4 16 46t31.5 54t40.5 12q43 0 88 -40.5t45 -88.5q0 -12 -7.5 -43.5t-32 -63.5t-73.5 -77 q-14 -23 -117.5 -60.5t-189.5 -37.5q-154 0 -238 158.5t-84 386.5zM223 1532q0 27 34 47t71 20q33 0 84 -53t101.5 -129t70.5 -131q4 -16 4 -22q0 -33 -35 -54.5t-82 -21.5q-25 0 -48.5 10t-45 57.5t-33.5 73t-66.5 90t-54.5 113.5zM289 512q94 29 177 142.5t83 199.5 q0 51 -24.5 66.5t-47.5 15.5q-39 0 -75.5 -35t-62.5 -93t-38 -142t-12 -154z" />
<glyph unicode="&#xe9;" horiz-adv-x="774" d="M59 496q0 246 95.5 440t187.5 208.5t110.5 14.5h28.5q117 0 193 -71.5t76 -210.5q0 -154 -121 -325t-324 -241q23 -84 42.5 -120.5t70.5 -36.5q45 0 96 33.5t66 62.5q8 4 16 46t31.5 54t40.5 12q43 0 88 -40.5t45 -88.5q0 -12 -7.5 -43.5t-32 -63.5t-73.5 -77 q-14 -23 -117.5 -60.5t-189.5 -37.5q-154 0 -238 158.5t-84 386.5zM289 512q94 29 177 142.5t83 199.5q0 51 -24.5 66.5t-47.5 15.5q-39 0 -75.5 -35t-62.5 -93t-38 -142t-12 -154zM399 1288q0 6 4 23q23 57 72 131t100.5 128t83.5 54q39 0 72 -19.5t33 -48.5 q0 -53 -50 -108t-65 -80q-23 -51 -41 -93t-43 -52q-27 -10 -51 -11q-45 0 -80 21.5t-35 54.5z" />
<glyph unicode="&#xea;" horiz-adv-x="774" d="M59 496q0 246 95.5 440t187.5 208.5t110.5 14.5h28.5q117 0 193 -71.5t76 -210.5q0 -154 -121 -325t-324 -241q23 -84 42.5 -120.5t70.5 -36.5q45 0 96 33.5t66 62.5q8 4 16 46t31.5 54t40.5 12q43 0 88 -40.5t45 -88.5q0 -12 -7.5 -43.5t-32 -63.5t-73.5 -77 q-14 -23 -117.5 -60.5t-189.5 -37.5q-154 0 -238 158.5t-84 386.5zM182 1337q0 27 37 68t76 78q37 59 67.5 103t67.5 44q57 0 94 -39t68 -71q88 -76 124 -118t36 -69q0 -6 -4 -18q-23 -57 -93 -58q-18 0 -31.5 5.5t-19.5 6.5t-49 48l-100 113q-53 -45 -87 -113t-61 -68 q-39 -4 -82 23.5t-43 64.5zM289 512q94 29 177 142.5t83 199.5q0 51 -24.5 66.5t-47.5 15.5q-39 0 -75.5 -35t-62.5 -93t-38 -142t-12 -154z" />
<glyph unicode="&#xeb;" horiz-adv-x="774" d="M59 496q0 246 95.5 440t187.5 208.5t110.5 14.5h28.5q117 0 193 -71.5t76 -210.5q0 -154 -121 -325t-324 -241q23 -84 42.5 -120.5t70.5 -36.5q45 0 96 33.5t66 62.5q8 4 16 46t31.5 54t40.5 12q43 0 88 -40.5t45 -88.5q0 -12 -7.5 -43.5t-32 -63.5t-73.5 -77 q-14 -23 -117.5 -60.5t-189.5 -37.5q-154 0 -238 158.5t-84 386.5zM162 1313q0 12 6 28.5l14 38.5q4 20 4 31q-2 29 -2 43t3 24.5t19.5 25t55.5 14.5q41 0 79 -19.5t46 -50.5q4 -25 -4 -49.5t-12 -36.5t-6.5 -50.5t-16.5 -54.5q-16 -18 -65 -18q-47 0 -84 19.5t-37 54.5z M289 512q94 29 177 142.5t83 199.5q0 51 -24.5 66.5t-47.5 15.5q-39 0 -75.5 -35t-62.5 -93t-38 -142t-12 -154zM477 1292q0 16 8.5 39t11.5 32t3 32q-2 23 -2 35q0 31 19.5 50t62.5 19q41 0 77.5 -19.5t42.5 -49.5q4 -20 -3 -45t-13 -48q-4 -37 -5 -59.5t-17 -40.5t-66 -18 q-45 0 -82 19t-37 54z" />
<glyph unicode="&#xec;" horiz-adv-x="417" d="M14 1556q0 27 34 47.5t71 20.5q33 0 84 -53t101.5 -129t70.5 -131q4 -16 4 -23q0 -33 -35 -54.5t-82 -21.5q-25 0 -48.5 10.5t-45 57.5t-33.5 72.5t-66.5 90t-54.5 113.5zM61 1001q0 35 9.5 60.5t35 51.5t82.5 26q53 0 108.5 -17.5t71 -40t15.5 -47.5q0 -27 -32 -88 t-32 -98v-602q0 -41 23 -123t23 -96q0 -41 -44.5 -69t-101.5 -28q-75 1 -108 54q-25 41 -34 142t-9 263q0 115 2 233.5t4 237.5q0 27 -6.5 74t-6.5 67z" />
<glyph unicode="&#xed;" horiz-adv-x="430" d="M61 1001q0 35 9.5 60.5t35 51.5t82.5 26q53 0 108.5 -17.5t71 -40t15.5 -47.5q0 -27 -32 -88t-32 -98v-602q0 -41 23 -123t23 -96q0 -41 -44.5 -69t-101.5 -28q-75 1 -108 54q-25 41 -34 142t-9 263q0 115 2 233.5t4 237.5q0 27 -6.5 74t-6.5 67zM68 1288q0 6 4 23 q23 57 72 131t100 128t84 54q39 0 71.5 -19.5t32.5 -48.5q0 -53 -50 -108t-65 -80q-23 -51 -41 -93t-43 -52q-27 -10 -51 -11q-45 0 -79.5 21.5t-34.5 54.5z" />
<glyph unicode="&#xee;" horiz-adv-x="702" d="M82 1352q0 27 37 67.5t76 77.5q37 59 67.5 103.5t67.5 44.5q57 0 94 -39t68 -72q88 -76 123.5 -118t35.5 -68q0 -7 -4 -19q-23 -57 -92 -57q-18 0 -31.5 5t-19.5 6t-49 48l-101 113q-53 -45 -87 -112.5t-60 -67.5q-39 -4 -82 23.5t-43 64.5zM219 1030q0 35 9.5 60.5 t35 51t82.5 25.5q53 0 108.5 -17t71 -40t15.5 -47q0 -27 -32 -88.5t-32 -97.5v-603q0 -41 22.5 -122.5t22.5 -96.5q0 -41 -44 -68.5t-101 -27.5q-76 0 -109 53q-25 41 -34 142.5t-9 263.5q0 115 2 233.5t4 237.5q0 27 -6 74t-6 67z" />
<glyph unicode="&#xef;" horiz-adv-x="638" d="M51 1300q0 12 6 29t15 39q4 20 4 31q-2 29 -2 43t3 24.5t19.5 24.5t55.5 14q41 0 78.5 -19.5t45.5 -49.5q4 -25 -4 -49.5t-12 -37t-6 -50.5t-16 -54q-16 -18 -66 -18q-47 0 -84 19.5t-37 53.5zM160 1014q0 35 9 60.5t34.5 51t83.5 25.5q53 0 108.5 -17.5t70.5 -40 t15 -46.5q0 -27 -31.5 -88.5t-31.5 -98.5v-602q0 -41 22.5 -123t22.5 -96q0 -41 -44 -68.5t-102 -27.5q-75 0 -108 53q-25 41 -34 142.5t-9 262.5q0 115 2 234t4 237q0 27 -6 74t-6 68zM367 1280q0 16 8 38.5t11 32t3 31.5q-2 23 -2 35q0 31 19.5 50.5t62.5 19.5 q41 0 78 -19.5t43 -50.5q4 -20 -3 -44.5t-14 -47.5q-4 -37 -5 -59.5t-17 -40.5t-66 -19q-45 0 -81.5 19.5t-36.5 54.5z" />
<glyph unicode="&#xf1;" horiz-adv-x="1007" d="M66 1051q0 35 17 61.5t36.5 34.5t46.5 8q53 0 112.5 -34t70.5 -60.5t11 -44.5q0 -20 -16 -61.5t-16 -57.5v-283q88 186 142 280.5t133 159t183 64.5q94 0 126 -158.5t32 -427.5v-38v-35v-31v-27q0 -43 -1 -85t-1 -83q6 -16 23.5 -43.5t17.5 -58.5q0 -45 -55.5 -76.5 t-124.5 -31.5q-47 0 -83 15t-56 48q2 41 3 96.5t1 130.5q0 188 -8.5 299t-32.5 113q-27 4 -108 -191.5t-142 -373.5v-29q2 -45 2 -68q0 -51 -8 -80.5t-35 -52.5q-37 -31 -82 -30q-39 0 -78 21.5t-65.5 46t-32.5 146.5t-6 296v263t2 281q0 16 -3 41t-5 56zM170 1409 q0 45 20.5 67.5t66.5 49t87 26.5q8 0 25 -4l221 -61q35 -10 86 41t74 45t38 -46t15 -85q0 -49 -17 -78q-31 -23 -69.5 -42t-73.5 -11l-209 45q-39 8 -93 -39t-83 -39q-39 12 -63.5 49t-24.5 82z" />
<glyph unicode="&#xf2;" horiz-adv-x="847" d="M37 537q0 219 70.5 395t158.5 201.5t152 25.5q72 0 139.5 -24.5t125.5 -85t94 -185.5t36 -276q0 -256 -102.5 -448.5t-292.5 -192.5q-188 0 -284.5 172t-96.5 418zM223 1532q0 27 34 47t71 20q33 0 84 -53t101.5 -129t70.5 -131q4 -16 4 -22q0 -33 -35 -54.5t-82 -21.5 q-25 0 -48.5 10t-45 57.5t-33.5 73t-66.5 90t-54.5 113.5zM283 578q0 -201 21.5 -309t113.5 -122q57 -8 105 153t48 345q0 137 -29.5 225t-90.5 88q-74 0 -121 -122.5t-47 -257.5z" />
<glyph unicode="&#xf3;" horiz-adv-x="847" d="M37 537q0 219 70.5 395t158.5 201.5t152 25.5q72 0 139.5 -24.5t125.5 -85t94 -185.5t36 -276q0 -256 -102.5 -448.5t-292.5 -192.5q-188 0 -284.5 172t-96.5 418zM283 578q0 -201 21.5 -309t113.5 -122q57 -8 105 153t48 345q0 137 -29.5 225t-90.5 88 q-74 0 -121 -122.5t-47 -257.5zM326 1300q0 6 4 23q23 57 72 131t100 128t84 54q39 0 71.5 -19.5t32.5 -47.5q0 -53 -50 -108.5t-65 -80.5q-23 -51 -40.5 -93t-42.5 -52q-27 -10 -52 -10q-45 0 -79.5 21.5t-34.5 53.5z" />
<glyph unicode="&#xf4;" horiz-adv-x="847" d="M37 537q0 219 70.5 395t158.5 201.5t152 25.5q72 0 139.5 -24.5t125.5 -85t94 -185.5t36 -276q0 -256 -102.5 -448.5t-292.5 -192.5q-188 0 -284.5 172t-96.5 418zM182 1337q0 27 37 68t76 78q37 59 67.5 103t67.5 44q57 0 94 -39t68 -71q88 -76 124 -118t36 -69 q0 -6 -4 -18q-23 -57 -93 -58q-18 0 -31.5 5.5t-19.5 6.5t-49 48l-100 113q-53 -45 -87 -113t-61 -68q-39 -4 -82 23.5t-43 64.5zM283 578q0 -201 21.5 -309t113.5 -122q57 -8 105 153t48 345q0 137 -29.5 225t-90.5 88q-74 0 -121 -122.5t-47 -257.5z" />
<glyph unicode="&#xf5;" horiz-adv-x="847" d="M37 537q0 219 70.5 395t158.5 201.5t152 25.5q72 0 139.5 -24.5t125.5 -85t94 -185.5t36 -276q0 -256 -102.5 -448.5t-292.5 -192.5q-188 0 -284.5 172t-96.5 418zM121 1372q0 45 20.5 67.5t66.5 49.5t87 27q8 0 24 -5l222 -61q35 -10 86 41t73 45q23 -6 38.5 -46 t15.5 -85q0 -49 -17 -78q-31 -23 -69.5 -42t-73.5 -11l-209 45q-39 8 -93 -39t-83 -39q-39 12 -63.5 49t-24.5 82zM283 578q0 -201 21.5 -309t113.5 -122q57 -8 105 153t48 345q0 137 -29.5 225t-90.5 88q-74 0 -121 -122.5t-47 -257.5z" />
<glyph unicode="&#xf6;" horiz-adv-x="847" d="M37 537q0 219 70.5 395t158.5 201.5t152 25.5q72 0 139.5 -24.5t125.5 -85t94 -185.5t36 -276q0 -256 -102.5 -448.5t-292.5 -192.5q-188 0 -284.5 172t-96.5 418zM211 1313q0 12 6 28.5l14 38.5q4 20 5 31q-2 29 -3 43q0 14 3.5 24.5t19.5 25t55 14.5q41 0 79 -19.5 t46 -50.5q4 -25 -4 -49.5t-12 -36.5t-6.5 -50.5t-16.5 -54.5q-16 -18 -65 -18q-47 0 -84 19.5t-37 54.5zM283 578q0 -201 21.5 -309t113.5 -122q57 -8 105 153t48 345q0 137 -29.5 225t-90.5 88q-74 0 -121 -122.5t-47 -257.5zM526 1292q0 16 8.5 39t11.5 32t3 32 q-2 23 -2 35q0 31 19.5 50t62.5 19q41 0 77.5 -19.5t43.5 -49.5q4 -20 -3.5 -45t-13.5 -48q-4 -37 -5 -59.5t-17 -40.5t-66 -18q-45 0 -82 19t-37 54z" />
<glyph unicode="&#xf9;" horiz-adv-x="847" d="M72 588q0 98 7 181t19 181q-14 51 -14 84q0 61 37 98t100 37q51 0 94 -20.5t50.5 -41t7.5 -40.5q0 -27 -22.5 -85t-18.5 -93q-20 -119 -21 -289q0 -182 24.5 -305t78.5 -123q86 0 106.5 222t20.5 532q0 29 -4.5 53.5t-8.5 60.5q0 51 28 65.5t69 14.5q68 0 129 -31.5 t69 -89.5q4 -33 -15.5 -75.5t-21.5 -59.5v-133q0 -231 -21.5 -395t-101 -289t-233.5 -125q-201 0 -279.5 190.5t-78.5 475.5zM223 1532q0 27 34 47t71 20q33 0 84 -53t101.5 -129t70.5 -131q4 -16 4 -22q0 -33 -35 -54.5t-82 -21.5q-25 0 -48.5 10t-45 57.5t-33.5 73 t-66.5 90t-54.5 113.5z" />
<glyph unicode="&#xfa;" horiz-adv-x="847" d="M72 588q0 98 7 181t19 181q-14 51 -14 84q0 61 37 98t100 37q51 0 94 -20.5t50.5 -41t7.5 -40.5q0 -27 -22.5 -85t-18.5 -93q-20 -119 -21 -289q0 -182 24.5 -305t78.5 -123q86 0 106.5 222t20.5 532q0 29 -4.5 53.5t-8.5 60.5q0 51 28 65.5t69 14.5q68 0 129 -31.5 t69 -89.5q4 -33 -15.5 -75.5t-21.5 -59.5v-133q0 -231 -21.5 -395t-101 -289t-233.5 -125q-201 0 -279.5 190.5t-78.5 475.5zM399 1288q0 6 4 23q23 57 72 131t100.5 128t83.5 54q39 0 72 -19.5t33 -48.5q0 -53 -50 -108t-65 -80q-23 -51 -41 -93t-43 -52q-27 -10 -51 -11 q-45 0 -80 21.5t-35 54.5z" />
<glyph unicode="&#xfb;" horiz-adv-x="847" d="M72 588q0 98 7 181t19 181q-14 51 -14 84q0 61 37 98t100 37q51 0 94 -20.5t50.5 -41t7.5 -40.5q0 -27 -22.5 -85t-18.5 -93q-20 -119 -21 -289q0 -182 24.5 -305t78.5 -123q86 0 106.5 222t20.5 532q0 29 -4.5 53.5t-8.5 60.5q0 51 28 65.5t69 14.5q68 0 129 -31.5 t69 -89.5q4 -33 -15.5 -75.5t-21.5 -59.5v-133q0 -231 -21.5 -395t-101 -289t-233.5 -125q-201 0 -279.5 190.5t-78.5 475.5zM182 1337q0 27 37 68t76 78q37 59 67.5 103t67.5 44q57 0 94 -39t68 -71q88 -76 124 -118t36 -69q0 -6 -4 -18q-23 -57 -93 -58q-18 0 -31.5 5.5 t-19.5 6.5t-49 48l-100 113q-53 -45 -87 -113t-61 -68q-39 -4 -82 23.5t-43 64.5z" />
<glyph unicode="&#xfc;" horiz-adv-x="847" d="M72 588q0 98 7 181t19 181q-14 51 -14 84q0 61 37 98t100 37q51 0 94 -20.5t50.5 -41t7.5 -40.5q0 -27 -22.5 -85t-18.5 -93q-20 -119 -21 -289q0 -182 24.5 -305t78.5 -123q86 0 106.5 222t20.5 532q0 29 -4.5 53.5t-8.5 60.5q0 51 28 65.5t69 14.5q68 0 129 -31.5 t69 -89.5q4 -33 -15.5 -75.5t-21.5 -59.5v-133q0 -231 -21.5 -395t-101 -289t-233.5 -125q-201 0 -279.5 190.5t-78.5 475.5zM211 1313q0 12 6 28.5l14 38.5q4 20 5 31q-2 29 -3 43q0 14 3.5 24.5t19.5 25t55 14.5q41 0 79 -19.5t46 -50.5q4 -25 -4 -49.5t-12 -36.5 t-6.5 -50.5t-16.5 -54.5q-16 -18 -65 -18q-47 0 -84 19.5t-37 54.5zM526 1292q0 16 8.5 39t11.5 32t3 32q-2 23 -2 35q0 31 19.5 50t62.5 19q41 0 77.5 -19.5t43.5 -49.5q4 -20 -3.5 -45t-13.5 -48q-4 -37 -5 -59.5t-17 -40.5t-66 -18q-45 0 -82 19t-37 54z" />
<glyph unicode="&#xfd;" horiz-adv-x="0" />
<glyph unicode="&#xff;" horiz-adv-x="958" d="M-16 1065q0 8 8 38t47 47t92 17q72 0 122 -29.5t53 -121.5t13 -123l136 -426l209 528q0 2 14 71t42 85t52 16q59 0 118.5 -44t67.5 -103q6 -43 -30.5 -105.5t-85.5 -180.5t-104.5 -253t-104.5 -266t-76 -234.5t-34 -156.5t-7 -66q0 -14 2 -32.5t2 -20.5 q0 -27 -23.5 -59.5t-93.5 -32.5q-49 0 -92 23.5t-57 64.5q-8 23 -8 39q0 18 17.5 44t19.5 44l49 258l-295 848q-6 16 -29.5 60t-23.5 71zM211 1325q0 12 6 28.5t14 39.5q4 20 5 30q-2 29 -3 43q0 14 3.5 24.5t19.5 25t55 14.5q41 0 79 -19.5t46 -50.5q4 -25 -4 -49.5 t-12 -36.5t-6.5 -50t-16.5 -54q-16 -18 -65 -19q-47 0 -84 19.5t-37 54.5zM526 1305q0 16 8.5 38.5t11.5 31.5t3 32q-2 23 -2 35q0 31 19.5 50t62.5 19q41 0 77.5 -19t43.5 -50q4 -20 -3.5 -45t-13.5 -47q-4 -37 -5 -60t-17 -41t-66 -18q-45 0 -82 19.5t-37 54.5z" />
<glyph unicode="&#x178;" horiz-adv-x="954" d="M35 1268q0 16 9 33.5t49 27.5t83 10q74 0 108.5 -23.5t40 -71.5t9.5 -93l153 -479l201 518q20 61 35.5 91t48.5 44t68 14q61 0 108 -31.5t47 -82.5q0 -41 -57 -103.5t-59 -68.5l-312 -785l17 -166q6 -43 6 -63q0 -29 -12.5 -47.5t-43 -28.5t-67.5 -10q-72 0 -124 37 t-44 98q4 33 32.5 73.5t28.5 71.5l-16 181l-242 716q-6 16 -36.5 63.5t-30.5 74.5zM311 1468q0 12 8.5 33t11.5 28t3 27q-2 25 -2 37q0 25 15 40.5t56 15.5q37 0 71 -17.5t40 -44.5q4 -23 -3 -45t-11 -35.5t-6.5 -45.5t-14.5 -46q-16 -16 -57 -16q-39 0 -75 18.5t-36 50.5z M596 1423q0 14 8 35t10 29t2 26q-2 23 -2 35q0 25 17.5 42.5t56.5 17.5q37 0 70 -16.5t39 -45.5q4 -18 -2.5 -40.5t-10.5 -36t-8 -48.5t-14 -49q-16 -16 -57 -16t-75 18.5t-34 48.5z" />
<glyph unicode="&#x2000;" horiz-adv-x="889" />
<glyph unicode="&#x2001;" horiz-adv-x="1778" />
<glyph unicode="&#x2002;" horiz-adv-x="889" />
<glyph unicode="&#x2003;" horiz-adv-x="1778" />
<glyph unicode="&#x2004;" horiz-adv-x="592" />
<glyph unicode="&#x2005;" horiz-adv-x="444" />
<glyph unicode="&#x2006;" horiz-adv-x="296" />
<glyph unicode="&#x2007;" horiz-adv-x="296" />
<glyph unicode="&#x2008;" horiz-adv-x="222" />
<glyph unicode="&#x2009;" horiz-adv-x="355" />
<glyph unicode="&#x200a;" horiz-adv-x="98" />
<glyph unicode="&#x2010;" horiz-adv-x="811" d="M98 664q0 39 16.5 58t82 21t86.5 7l233 61q41 12 65.5 18.5t49.5 6.5q23 0 49.5 -14.5t42.5 -52.5t16 -81q0 -51 -21.5 -69.5t-45.5 -18.5q-8 0 -45 7t-58 3l-221 -53q-23 -4 -62.5 -21.5t-60.5 -17.5q-23 0 -41 10q-86 41 -86 136z" />
<glyph unicode="&#x2011;" horiz-adv-x="811" d="M98 664q0 39 16.5 58t82 21t86.5 7l233 61q41 12 65.5 18.5t49.5 6.5q23 0 49.5 -14.5t42.5 -52.5t16 -81q0 -51 -21.5 -69.5t-45.5 -18.5q-8 0 -45 7t-58 3l-221 -53q-23 -4 -62.5 -21.5t-60.5 -17.5q-23 0 -41 10q-86 41 -86 136z" />
<glyph unicode="&#x2012;" horiz-adv-x="811" d="M98 664q0 39 16.5 58t82 21t86.5 7l233 61q41 12 65.5 18.5t49.5 6.5q23 0 49.5 -14.5t42.5 -52.5t16 -81q0 -51 -21.5 -69.5t-45.5 -18.5q-8 0 -45 7t-58 3l-221 -53q-23 -4 -62.5 -21.5t-60.5 -17.5q-23 0 -41 10q-86 41 -86 136z" />
<glyph unicode="&#x2013;" horiz-adv-x="1024" d="M74 664q0 39 16 58t78.5 21t89.5 7l442 73q27 4 65 13.5t52 9.5q25 0 49.5 -13.5t41 -51.5t16.5 -81q0 -51 -21.5 -69.5t-48.5 -18.5q-12 0 -46 7.5t-54 3.5l-430 -66q-20 -4 -62.5 -21.5t-62.5 -17.5q-14 0 -39 10q-86 41 -86 136z" />
<glyph unicode="&#x2014;" horiz-adv-x="2048" d="M74 664q0 39 16 59t67.5 22.5t100.5 4.5l1511 172q25 2 64 12t55 10q25 0 48.5 -13t40 -51t16.5 -81q0 -51 -21.5 -69.5t-48.5 -18.5q-14 0 -47 6t-53 4l-1499 -164q-23 -2 -68 -20.5t-59 -18.5q-12 0 -37 10q-86 41 -86 136z" />
<glyph unicode="&#x2018;" horiz-adv-x="466" d="M31 1278q0 84 86 198t141 134q45 16 78 16q45 0 70.5 -21.5t25.5 -56.5q0 -16 -6 -32.5t-71.5 -64.5t-87 -73.5t-32 -100.5t-33 -99.5t-50.5 -24.5q-25 0 -51.5 15.5t-48 40t-21.5 69.5z" />
<glyph unicode="&#x2019;" horiz-adv-x="516" d="M47 1204q0 16 6 32.5t71.5 65t87 74t32 100t33 99t51.5 24.5q25 0 51.5 -15t48 -39.5t21.5 -69.5q0 -84 -86.5 -198t-141.5 -134q-45 -16 -78 -17q-45 0 -70.5 21.5t-25.5 56.5z" />
<glyph unicode="&#x201c;" horiz-adv-x="774" d="M31 1278q0 84 86 198t141 134q45 16 78 16q45 0 70.5 -21.5t25.5 -56.5q0 -16 -6 -32.5t-71.5 -64.5t-87 -73.5t-32 -100.5t-33 -99.5t-50.5 -24.5q-25 0 -51.5 15.5t-48 40t-21.5 69.5zM358 1274q0 84 86.5 198t141.5 134q45 16 78 16q45 0 70.5 -21.5t25.5 -56.5 q0 -16 -6 -32.5t-72 -64.5t-87.5 -73.5t-31.5 -100.5t-32.5 -99.5t-51.5 -24.5q-25 0 -51.5 15.5t-48 40t-21.5 69.5z" />
<glyph unicode="&#x201d;" horiz-adv-x="811" d="M47 1204q0 16 6 32.5t71.5 65t87 74t32 100t33 99t51.5 24.5q25 0 51.5 -15t48 -39.5t21.5 -69.5q0 -84 -86.5 -198t-141.5 -134q-45 -16 -78 -17q-45 0 -70.5 21.5t-25.5 56.5zM375 1200q0 16 6 32.5t71.5 65t87 74t32 100t33 99t50.5 24.5q25 0 51.5 -15t48 -39.5 t21.5 -70.5q0 -84 -86 -197.5t-141 -133.5q-45 -16 -78 -17q-45 0 -70.5 21.5t-25.5 56.5z" />
<glyph unicode="&#x2022;" horiz-adv-x="479" d="M-33 662q0 29 18.5 73.5t21.5 61t5 34t2 29.5q0 25 -2 53.5t-2 30.5q0 29 7.5 49.5t26.5 40t52 27.5t74 8q82 0 155.5 -37t82 -80t8.5 -51q0 -33 -18.5 -84t-22.5 -95t-7 -89t-32 -80q-35 -37 -129 -37q-92 0 -166 38t-74 108z" />
<glyph unicode="&#x2026;" horiz-adv-x="1228" d="M66 61q0 18 11 46t14 40.5t3 38.5q-2 31 -2 45q0 18 4 34t22.5 34t74.5 18q53 0 99 -23.5t54 -62.5q4 -27 -5 -56.5t-17 -57.5q-4 -47 -5.5 -74.5t-21.5 -50.5q-10 -10 -30.5 -16.5t-49.5 -6.5q-57 0 -104 24.5t-47 67.5zM475 61q0 18 11.5 46t14.5 40.5t3 38.5 q-2 31 -2 45q0 18 4 34t22.5 34t73.5 18q53 0 99.5 -23.5t54.5 -62.5q4 -27 -5.5 -56.5t-17.5 -57.5q-4 -47 -5 -74.5t-21 -50.5q-10 -10 -31 -16.5t-49 -6.5q-57 0 -104.5 24.5t-47.5 67.5zM885 61q0 18 11 46t14 40.5t3 38.5q-2 31 -2 45q0 18 4.5 34t22.5 34t74 18 q53 0 99 -23.5t54 -62.5q4 -27 -5 -56.5t-17 -57.5q-4 -47 -5.5 -74.5t-21.5 -50.5q-10 -10 -30.5 -16.5t-49.5 -6.5q-57 0 -104 24.5t-47 67.5z" />
<glyph unicode="&#x202f;" horiz-adv-x="355" />
<glyph unicode="&#x205f;" horiz-adv-x="444" />
<glyph unicode="&#x2122;" horiz-adv-x="1769" d="M57 1468q0 10 2 20.5t125 49.5t197 63.5t92.5 44t40.5 19.5q37 0 77 -45t40 -80q0 -16 -10.5 -34.5t-26.5 -23.5t-43 -5q-45 0 -55 -4l-107 -43q0 -231 2 -385t8 -287q0 -18 12.5 -45t12.5 -39q0 -18 -17.5 -43t-74.5 -25q-47 0 -89 25.5t-48 60.5q-2 16 20.5 43t22.5 43 q-2 145 -3.5 280.5t-3.5 323.5q-6 -2 -31.5 -11t-39.5 -9q-20 0 -41 18.5t-41.5 37t-20.5 50.5zM659 1561q0 23 23 46t76 23q82 0 118.5 -31.5t36.5 -56.5q0 -35 2 -39l244 -590l273 627q4 8 4 25q-2 20 -2 30q0 29 24.5 46.5t57.5 17.5q53 0 102 -32t49 -73 q0 -20 -17.5 -33.5t-17.5 -23.5l51 -725q0 -4 19.5 -40t19.5 -50t-11 -29.5t-33.5 -26t-47.5 -10.5q-49 0 -99 30t-56 59t13 57.5t17 46.5l-37 414l-211 -478q-4 -8 -4 -26q4 -39 4 -60q0 -29 -16 -41t-38.5 -18t-41.5 -6q-45 0 -78.5 21.5t-39 44t-5.5 29.5v9q0 25 2 52 l-176 473l29 -437q0 -14 7 -46.5t7 -47.5q0 -23 -13 -40t-39 -26.5t-36 -9.5q-37 0 -81 29t-56 74q-6 20 10.5 38.5t16.5 28.5l-27 693q0 18 -11.5 44.5t-11.5 37.5z" />
<glyph unicode="&#xe000;" horiz-adv-x="1177" d="M0 0v1178h1178v-1178h-1178z" />
</font>
</defs>
</svg>
