<?xml version="1.0" standalone="no"?>
<!DOCTYPE svg PUBLIC "-//W3C//DTD SVG 1.1//EN" "http://www.w3.org/Graphics/SVG/1.1/DTD/svg11.dtd" >
<svg xmlns="http://www.w3.org/2000/svg">
<metadata></metadata>
<defs>
<font id="cosmoslight" horiz-adv-x="1150" >
<font-face units-per-em="2048" ascent="1638" descent="-410" />
<missing-glyph horiz-adv-x="598" />
<glyph unicode="&#xfb01;" horiz-adv-x="1024" d="M16 924v118h148v129q0 35 2 71t11 68.5t27.5 63.5t53.5 58q29 20 74 38.5t110 18.5q47 0 82 -10.5t59.5 -24.5t40 -29.5l25.5 -25.5q-8 -10 -17 -21.5t-18 -21.5q-23 10 -49 18t-63 8q-49 0 -81 -19.5t-48 -45.5q-16 -29 -19.5 -68t-3.5 -106v-101h215v-118h-215v-924 h-186v924h-148zM680 1348q0 47 30.5 79.5t80.5 32.5q49 0 77.5 -32.5t28.5 -73.5q0 -35 -12.5 -57.5t-29.5 -35t-36.5 -17.5t-32.5 -5q-41 0 -73.5 29.5t-32.5 79.5zM696 0v1042h187v-1042h-187z" />
<glyph unicode="&#xfb02;" horiz-adv-x="1024" d="M16 924v118h148v129q0 35 2 71t11 68.5t27.5 63.5t53.5 58q29 20 74 38.5t110 18.5q47 0 82 -10.5t59.5 -25.5t40 -30.5t25.5 -23.5q-8 -10 -18 -21.5t-17 -21.5q-23 10 -49 18t-63 8q-49 0 -81 -19.5t-48 -45.5q-16 -29 -19.5 -68t-3.5 -106v-101h215v-118h-215v-924 h-186v924h-148zM696 0v1448h187v-1448h-187z" />
<glyph horiz-adv-x="2048" />
<glyph horiz-adv-x="2048" />
<glyph unicode="&#xd;" horiz-adv-x="598" />
<glyph unicode=" "  horiz-adv-x="598" />
<glyph unicode="&#x09;" horiz-adv-x="598" />
<glyph unicode="&#xa0;" horiz-adv-x="598" />
<glyph unicode="!" horiz-adv-x="555" d="M215 76q0 45 29.5 74.5t77.5 29.5q43 0 71.5 -27.5t32.5 -74.5q2 -53 -31 -81t-71 -28q-47 0 -78 31t-31 76zM223 1300v146h197v-135q-4 -184 -9 -315.5t-14.5 -234t-22 -190.5t-26.5 -188h-55q-41 229 -53.5 457.5t-16.5 459.5z" />
<glyph unicode="&#x22;" horiz-adv-x="811" d="M125 1427.5v14.5q0 47 29.5 69.5t64.5 22.5q37 0 64.5 -26.5t21.5 -73.5l-74 -523h-38l-66 496q-2 10 -2 20.5zM508 1427.5v14.5q0 47 29.5 69.5t64.5 22.5q37 0 64.5 -26.5t21.5 -73.5l-72 -523h-41l-65 496q-2 10 -2 20.5z" />
<glyph unicode="#" horiz-adv-x="1366" d="M84 530v111h360l27 199h-342v116h356l66 494h129l-72 -494h207l66 494h120l-67 -494h344v-116h-358l-27 -199h344v-111h-356l-76 -530h-125l78 530h-207l-78 -530h-119l74 530h-344zM565 641h207l27 199h-205z" />
<glyph unicode="$" d="M51 365q12 4 27.5 7t27.5 7q31 -61 68 -112.5t87 -88.5t122 -59.5t174 -28.5v539q-25 4 -69 11t-95 23.5t-104 44t-96 69.5t-71 100.5t-28 138.5q0 61 21.5 128.5t75 126t142.5 99.5t224 47v162h78v-162q135 -10 214 -53t122 -99.5t58 -115.5t22 -98q-10 -4 -23.5 -8.5 t-23.5 -8.5q-47 84 -100.5 132t-104.5 74t-94 33t-70 11v-493q82 -18 129 -29.5t88 -28.5q127 -45 190.5 -133t63.5 -209q0 -55 -18.5 -124.5t-69.5 -132t-143.5 -112t-239.5 -63.5v-188h-78v188q-61 4 -142 15.5t-157 51.5t-134 119.5t-73 219.5zM295 1042 q0 -68 24.5 -108.5t63.5 -66t85 -39t89 -23.5v479q-117 -18 -189.5 -75.5t-72.5 -166.5zM635 94q27 6 73 20.5t90 44t75.5 79t31.5 124.5q0 76 -37 132q-20 31 -44.5 50t-54.5 31.5t-62.5 20.5t-71.5 16v-518z" />
<glyph unicode="%" horiz-adv-x="1878" d="M49 954q0 94 20.5 179.5t63.5 150t111.5 102t165.5 37.5q59 0 121.5 -21.5t112.5 -73.5t83 -141t33 -224q0 -27 -2 -66t-8.5 -83t-19.5 -89t-36 -84q-47 -80 -123.5 -120t-164.5 -40q-96 0 -164 36t-111 98.5t-62.5 149.5t-19.5 189zM190 956q0 -53 6.5 -118.5t28 -124 t65.5 -98.5t118 -40q80 0 121.5 43.5t62 104.5t23.5 129t3 117q0 43 -6 104.5t-27.5 117.5t-63.5 96t-113 40q-82 0 -126 -46t-64.5 -107.5t-24 -123t-3.5 -94.5zM578 0l600 1405h120l-600 -1405h-120zM1116 455q0 94 20.5 179t63.5 149.5t111.5 102.5t165.5 38 q59 0 121.5 -21.5t112.5 -74t83 -142.5t33 -225q0 -27 -2 -65t-8.5 -82t-19.5 -89t-36 -84q-49 -82 -125.5 -120.5t-162.5 -38.5q-96 0 -164 35.5t-111 98t-62.5 149.5t-19.5 190zM1257 457q0 -53 6.5 -119t28 -124t65.5 -98t118 -40q80 0 121.5 43t62 104.5t24 129 t3.5 114.5q0 43 -6.5 105.5t-28 119t-63.5 96t-113 39.5q-82 0 -126 -46t-64.5 -107.5t-24 -124t-3.5 -92.5z" />
<glyph unicode="&#x26;" horiz-adv-x="1280" d="M57 358q0 102 39 174t92.5 118t108.5 72t88 38q-12 23 -28.5 52.5t-30 65t-23.5 76.5t-10 84q0 70 26.5 128.5t72.5 98.5t107.5 62.5t133.5 22.5q59 0 113.5 -18.5t95.5 -52.5t65.5 -85t24.5 -115q0 -78 -32 -135t-80 -99t-103 -71t-103 -49q37 -53 79 -107.5t84 -105.5 t83 -97t76 -83q37 78 52.5 139t12.5 152h62q6 -23 11 -49.5t5 -67.5q0 -90 -23.5 -160t-37.5 -102q55 -61 96 -99.5t74 -62t63.5 -36.5t67.5 -23v-50q-20 -4 -39.5 -6t-54.5 -2q-63 0 -110.5 11.5t-83.5 31t-63.5 44t-52.5 50.5q-45 -47 -99 -74.5t-107.5 -43t-100.5 -20.5 t-78 -5q-98 0 -185 28.5t-150.5 81t-100.5 126t-37 163.5zM242 387q0 -59 22.5 -112.5t63.5 -94.5t98 -65.5t127 -24.5q51 0 94 12.5t77 28.5t58.5 34t40.5 28q-33 35 -71.5 76.5t-83.5 97t-98.5 126t-116.5 162.5q-23 -10 -58 -28.5t-69.5 -50t-59 -78.5t-24.5 -111z M467 1057q0 -63 21.5 -121t56.5 -111q27 10 64.5 27.5t71.5 47.5t58.5 72t24.5 101q0 76 -42 119t-101 43q-72 0 -113 -50t-41 -128z" />
<glyph unicode="'" horiz-adv-x="425" d="M123 1427.5v14.5q0 47 29.5 69.5t64.5 22.5q37 0 64.5 -26.5t21.5 -73.5l-72 -523h-41l-65 496q-2 10 -2 20.5z" />
<glyph unicode="(" horiz-adv-x="555" d="M131 727q0 25 2 63.5t10.5 90t24.5 112t45 125.5q23 51 47.5 94t53 82t62.5 76t75 76h49q-72 -137 -125 -319.5t-53 -403.5q0 -133 19 -245.5t47 -204t58.5 -160t53.5 -113.5h-49q-31 31 -85.5 91.5t-106.5 150.5t-90 210.5t-38 274.5z" />
<glyph unicode=")" horiz-adv-x="555" d="M55 0q72 139 125 320.5t53 404.5q0 131 -19 244.5t-47 205t-58.5 160t-53.5 111.5h49q31 -31 85.5 -91.5t106.5 -150.5t90 -211t38 -274q0 -203 -82 -391q-23 -51 -47.5 -94.5t-53 -82t-62.5 -75.5t-75 -76h-49z" />
<glyph unicode="*" horiz-adv-x="724" d="M53 1176q4 20 7 34.5t7.5 26.5t9.5 26.5t15 32.5l209 -69v219q37 6 67.5 6t65.5 -6v-219l201 69q8 -20 14 -33.5t10.5 -26.5t6.5 -26.5t6 -33.5l-205 -70l125 -176q-31 -29 -48.5 -41t-54.5 -33l-122 174l-136 -174q-18 10 -30.5 17.5t-23.5 14.5t-22.5 17t-25.5 25 l133 176z" />
<glyph unicode="+" horiz-adv-x="1366" d="M86 535v122h537v533h122v-533h535v-122h-535v-535h-122v535h-537z" />
<glyph unicode="," horiz-adv-x="468" d="M55 -315l113 493h203l-250 -516z" />
<glyph unicode="-" horiz-adv-x="641" d="M51 489v113h539v-113h-539z" />
<glyph unicode="." horiz-adv-x="468" d="M129 76q0 45 29.5 74.5t77.5 29.5q35 0 67.5 -24.5t36.5 -77.5q2 -55 -32 -82t-70 -27q-47 0 -78 31t-31 76z" />
<glyph unicode="/" horiz-adv-x="811" d="M6 0l617 1446h182l-617 -1446h-182z" />
<glyph unicode="0" horiz-adv-x="1280" d="M90 705q0 139 30 276t107 248q51 68 107.5 108.5t113 62t107.5 28t92 6.5q94 0 190.5 -34t175.5 -116t128 -220t49 -347q0 -49 -3 -112.5t-14.5 -130t-32 -133.5t-53.5 -124q-74 -127 -192.5 -187.5t-253.5 -60.5q-23 0 -72 3t-110.5 24.5t-128 67t-121.5 129.5 q-72 109 -95.5 242.5t-23.5 269.5zM293 709q0 -53 3 -120t15.5 -134.5t36 -132t62.5 -113.5t96 -80t139 -31q86 0 144.5 33t96.5 86t58.5 121t29.5 137.5t11 136t2 115.5q0 45 -3 104.5t-15.5 124t-35 127t-60 110.5t-94 79t-134.5 31q-88 0 -148.5 -35t-99.5 -90.5 t-60.5 -123t-30.5 -133t-11 -123t-2 -89.5z" />
<glyph unicode="1" horiz-adv-x="1280" d="M324 1102l454 303h60v-1405h-199v1153l-295 -100q-4 10 -10 24.5t-10 24.5z" />
<glyph unicode="2" horiz-adv-x="1280" d="M152 0v63l434 469q72 76 125 139.5t88 120t52 109.5t17 111q0 49 -17 100t-52 93t-87.5 67.5t-123.5 25.5q-84 0 -145.5 -33.5t-105.5 -80.5t-72.5 -97.5t-43.5 -80.5l-55 18q4 27 10 61.5t20.5 73.5t39 79t63.5 77q59 53 140 86t194 33q119 0 203 -36t138 -93.5 t79.5 -129t25.5 -143.5q0 -78 -24.5 -145.5t-62.5 -128t-86 -115.5t-95 -106l-373 -404h717v-133h-1003z" />
<glyph unicode="3" horiz-adv-x="1280" d="M76 367q12 4 27.5 9t25.5 9q18 -29 51 -77t85 -94t126 -79t172 -33q74 0 137.5 22.5t109.5 62.5t72.5 95.5t26.5 118.5q0 47 -20.5 106.5t-79.5 106.5q-68 53 -147.5 62.5t-182.5 9.5v125q72 0 128.5 4t107.5 31q57 29 94 85t37 128q0 53 -21.5 97t-57.5 75t-84 48 t-103 17q-63 0 -122 -18t-110 -53q-82 -53 -121 -114.5t-59 -102.5q-12 2 -28.5 5t-26.5 7q4 27 13 67.5t29.5 85t56.5 90.5t93 87q33 23 106.5 54.5t196.5 31.5q104 0 185 -29t137.5 -76t86.5 -111.5t30 -134.5q0 -106 -68 -196q-53 -68 -107.5 -94.5t-93.5 -40.5 q39 -4 105.5 -23.5t130.5 -87.5q49 -51 72.5 -115.5t23.5 -134.5q0 -96 -41 -175t-111.5 -134t-167 -85t-206.5 -30q-63 0 -146.5 11.5t-165.5 64.5q-57 37 -93 80t-56.5 87t-30.5 84t-16 71z" />
<glyph unicode="4" horiz-adv-x="1280" d="M96 385v53l686 967h203v-891h201v-129h-201v-385h-188v385h-701zM332 514h465l4 674z" />
<glyph unicode="5" horiz-adv-x="1280" d="M152 367q10 4 26.5 9t26.5 9q16 -29 46 -76t78 -93t115.5 -79t159.5 -33q78 0 139.5 28t104.5 74t65.5 107.5t22.5 128.5q0 68 -22.5 131.5t-66.5 111.5t-111.5 78t-155.5 30q-66 0 -116 -14.5t-89 -36t-66.5 -44t-44.5 -39.5q-12 2 -29.5 4.5t-29.5 6.5l92 735h768 l-14 -131h-594l-49 -397q35 14 84 29.5t141 15.5q111 0 205 -35t161.5 -98.5t105.5 -151.5t38 -195q0 -102 -38 -188t-106.5 -149.5t-167 -99.5t-217.5 -36q-70 0 -145.5 17.5t-141 62.5t-113.5 122t-62 196z" />
<glyph unicode="6" horiz-adv-x="1280" d="M98 666q0 178 44 320t123 242.5t188.5 154t242.5 53.5q16 0 46 -1t68 -9.5t80 -24t85 -43.5q49 -33 77.5 -72t46 -75.5t24.5 -70.5t12 -59l-60 -16q-14 31 -34.5 67.5t-59.5 73.5q-12 12 -33.5 27.5t-52.5 30t-73 24.5t-93 10q-125 0 -208 -54t-133 -140t-70.5 -190.5 t-20.5 -204.5q14 18 45 51t79 64.5t114.5 56t154.5 24.5q106 0 196.5 -34.5t156 -96t102.5 -145.5t37 -180q0 -94 -37 -180.5t-104.5 -153t-165 -105.5t-220.5 -39q-133 0 -237 47q-63 29 -115.5 75t-91.5 104q-35 51 -56.5 111.5t-33.5 123t-17.5 122.5t-5.5 112zM338 442 q0 -72 24.5 -134t67.5 -108t102.5 -74t129.5 -28t127 24.5t98 70t63.5 107.5t22.5 136q0 55 -18.5 113.5t-56.5 107t-97.5 79t-138.5 30.5q-63 0 -122 -22.5t-104 -64.5t-71.5 -101.5t-26.5 -135.5z" />
<glyph unicode="7" horiz-adv-x="1280" d="M145 1276l13 129h1016v-51l-627 -1354h-203l604 1276h-803z" />
<glyph unicode="8" horiz-adv-x="1280" d="M104 391q0 25 6.5 74t36 104.5t89 108.5t165.5 84q-25 10 -62.5 30.5t-73.5 55.5t-61.5 88t-25.5 129t31 143.5t90 118.5t147.5 80t202.5 29q98 0 182 -25t145.5 -72t96.5 -114.5t35 -155.5q0 -78 -27.5 -132t-64.5 -89t-75.5 -55.5t-63.5 -30.5q109 -29 169 -82 t88.5 -109.5t35 -106.5t6.5 -71q0 -92 -38 -170t-107.5 -134t-168 -88t-219.5 -32q-123 0 -223.5 32t-170 88t-107.5 134t-38 168zM309 393q0 -61 22.5 -115.5t64.5 -94.5t104.5 -63.5t142.5 -23.5q150 0 238 82t86 221q-2 131 -88 212t-240 81q-80 0 -141.5 -23.5 t-103.5 -64.5t-63.5 -95t-21.5 -116zM369 1063q0 -109 78.5 -175.5t197.5 -66.5q59 0 109.5 18.5t86.5 51.5t55 79t19 101q-2 104 -73.5 172t-194.5 68q-68 0 -119 -20.5t-86.5 -55.5t-54 -80t-18.5 -92z" />
<glyph unicode="9" horiz-adv-x="1280" d="M90 946q0 104 39 194.5t108.5 156t166 102.5t210.5 37q156 0 274 -69t183 -187q55 -100 74.5 -212t19.5 -227q0 -113 -13 -195.5t-26 -129.5q-53 -207 -193 -327t-358 -120q-111 0 -178 27t-114 61q-49 39 -80 85t-47.5 89t-23.5 82t-11 64q12 4 29.5 8t29.5 8 q18 -41 40 -84t52 -78q10 -12 32 -32.5t57.5 -40t85 -34.5t112.5 -15q72 0 136.5 24.5t115.5 73.5q49 47 79 105.5t48 122t25.5 130t9.5 131.5q-12 -20 -30.5 -45.5t-59.5 -54.5q-63 -49 -140 -71.5t-159 -22.5q-113 0 -204 33.5t-155.5 94t-99.5 141.5t-35 175zM299 967 q0 -72 22.5 -131.5t63.5 -104.5t98.5 -69.5t126.5 -24.5q51 0 108.5 18.5t105.5 58.5t80 104.5t32 156.5q0 76 -25.5 137.5t-68.5 104.5t-100.5 66.5t-120.5 23.5q-70 0 -129.5 -26t-102.5 -71t-66.5 -107.5t-23.5 -135.5z" />
<glyph unicode=":" horiz-adv-x="555" d="M215 76q0 45 29.5 74.5t77.5 29.5q35 0 67.5 -24.5t36.5 -77.5q2 -55 -32 -82t-70 -27q-47 0 -78 31t-31 76zM215 956q0 45 29.5 75t77.5 30q35 0 67.5 -25t36.5 -78q2 -55 -32 -81.5t-70 -26.5q-47 0 -78 30.5t-31 75.5z" />
<glyph unicode=";" horiz-adv-x="555" d="M139 -315l113 495h205l-252 -518zM227 956q0 45 30 75t77 30q35 0 67.5 -25t36.5 -78q2 -55 -31.5 -81.5t-70.5 -26.5q-47 0 -78 30.5t-31 75.5z" />
<glyph unicode="&#x3c;" horiz-adv-x="1366" d="M0 653v144l1366 655v-131l-1229 -596l1229 -600v-131z" />
<glyph unicode="=" horiz-adv-x="1366" d="M0 354v119h1366v-119h-1366zM0 715v121h1366v-121h-1366z" />
<glyph unicode="&#x3e;" horiz-adv-x="1366" d="M0 -6v131l1229 600l-1229 596v131l1366 -655v-144z" />
<glyph unicode="?" horiz-adv-x="1024" d="M94 1061q2 25 8.5 66.5t22.5 89t45 96.5t77 88t118.5 63.5t171.5 24.5q104 0 183 -28.5t131 -77t77.5 -111t25.5 -129.5q0 -66 -16 -114t-44 -87t-64.5 -71.5t-77.5 -65.5q-57 -45 -96.5 -84t-66 -85t-42 -105.5t-23.5 -143.5h-59q-4 23 -13.5 76t-9.5 110 q0 61 12.5 107.5t34 84.5t51 68.5t62.5 59.5q37 31 64.5 57.5t47 53t30 56.5t10.5 66q0 92 -68 153.5t-178 61.5q-131 0 -216 -79.5t-140 -210.5zM391 76q0 43 29 73.5t78 30.5q41 0 71.5 -25.5t32.5 -76.5q2 -53 -29.5 -81t-72.5 -28q-47 0 -78 30t-31 77z" />
<glyph unicode="@" horiz-adv-x="1835" d="M141 479q0 186 70 363.5t194.5 313.5t298 219t381.5 83q139 0 252 -41t192 -117.5t122 -185t43 -244.5q0 -139 -40 -270t-105.5 -231.5t-149.5 -161t-172 -60.5q-63 0 -97 26t-48.5 58.5t-16.5 63.5t-2 43q-12 -16 -38 -48t-64.5 -62.5t-91 -54t-115.5 -23.5 q-53 0 -105.5 23.5t-91.5 74.5q-37 49 -50 108.5t-13 118.5q0 111 34.5 215.5t93 185t136.5 130t164 49.5q92 0 150 -51.5t93 -143.5l35 148h121l-68 -299q-18 -84 -29.5 -143.5t-18.5 -100.5t-9 -66.5t-2 -44.5q0 -63 24.5 -84.5t49.5 -21.5q49 0 106.5 50t107.5 135 t83.5 197.5t33.5 235.5q0 129 -41.5 223.5t-113.5 157t-166 92t-201 29.5q-178 0 -331.5 -73.5t-267 -196.5t-178 -284t-64.5 -335q0 -170 60 -291.5t157.5 -199.5t220.5 -115t250 -37q199 0 376 81t318 218l55 -65q-111 -109 -220.5 -173.5t-207.5 -98.5t-181 -43t-138 -9 q-139 0 -279.5 42t-253 131t-182.5 227.5t-70 332.5zM633 483q0 -45 10 -86t32.5 -71.5t55.5 -48t80 -17.5q70 0 128 44t98 110.5t62.5 145.5t22.5 151q0 76 -21.5 123t-51 71.5t-60.5 32.5t-51 8q-72 0 -128 -44t-95 -111.5t-60.5 -149.5t-21.5 -158z" />
<glyph unicode="A" horiz-adv-x="1409" d="M0 0l678 1446h57l672 -1446h-211l-186 412h-648l-186 -412h-176zM420 537h532l-219 485q-23 47 -31 77.5t-12 53.5q-4 -16 -7 -29.5t-7 -26t-11.5 -28.5t-17.5 -39z" />
<glyph unicode="B" horiz-adv-x="1236" d="M160 0v1446h450q78 0 163 -10.5t165 -67.5q76 -53 104.5 -127t28.5 -129q0 -53 -18.5 -106.5t-57.5 -100.5q-55 -70 -119.5 -94.5t-109.5 -34.5q27 0 59.5 -2t69.5 -11t77 -26.5t77 -48.5q61 -51 90.5 -119.5t29.5 -146.5q0 -72 -29.5 -153t-101.5 -150 q-70 -61 -156.5 -90t-230.5 -29h-491zM356 123h217q31 0 72 1t85 10t88 29.5t79 57.5t51.5 86t16.5 101q0 111 -56.5 173t-143.5 93t-195.5 38t-213.5 7v-596zM356 799q74 2 164 9t168 34.5t130 85t52 159.5q0 88 -38.5 136.5t-93 70t-110 25.5t-87.5 4h-185v-524z" />
<glyph unicode="C" horiz-adv-x="1366" d="M88 717q0 154 45 293t135 245.5t224.5 170t312.5 63.5q129 0 223 -36t158 -89q43 -37 69.5 -74t43 -71.5t23.5 -64.5t11 -48q-10 -4 -26.5 -12.5t-26.5 -12.5q-16 27 -49 72t-87 88t-133 75t-188 32q-133 0 -231 -48.5t-164 -132.5t-98.5 -197.5t-32.5 -246.5 q0 -150 42 -265.5t113.5 -195.5t168 -122t204.5 -42q106 0 187.5 33t137.5 77t90 89t50 68q12 -4 29 -11.5t27 -11.5q-6 -23 -17.5 -52.5t-30 -64.5t-48 -71.5t-72.5 -73.5q-53 -43 -107.5 -67.5t-106 -37t-96.5 -15.5t-77 -3q-178 0 -310.5 63.5t-219.5 170t-130 243.5 t-43 283z" />
<glyph unicode="D" horiz-adv-x="1492" d="M160 0v1446h481q154 0 286 -32t244 -130q100 -86 167 -228.5t67 -328.5q0 -180 -61.5 -314t-151.5 -220q-113 -109 -256 -151t-336 -42h-440zM358 123h195q70 0 127 4t106.5 14.5t92.5 28.5t84 47q33 23 72.5 61.5t75.5 99t60.5 142.5t24.5 191q0 143 -40 249.5 t-93 176.5q-55 70 -119.5 106.5t-132.5 54t-135.5 20.5t-128.5 3h-189v-1198z" />
<glyph unicode="E" d="M160 0v1448h884v-127h-688v-504h609v-123h-609v-569h783v-125h-979z" />
<glyph unicode="F" horiz-adv-x="1067" d="M160 0v1446h893v-129h-691v-506h603v-127h-603v-684h-202z" />
<glyph unicode="G" horiz-adv-x="1492" d="M86 702q0 164 53.5 307.5t151.5 250t235.5 168t304.5 61.5q63 0 142.5 -13.5t153 -51.5t133 -106.5t83.5 -180.5q-10 -4 -24 -9.5t-25 -9.5q-25 33 -59.5 73t-85.5 74.5t-124 59.5t-171 25q-109 0 -208 -39t-177 -118t-124 -196.5t-46 -275.5q0 -117 31.5 -230.5 t99.5 -203.5t172.5 -146.5t249.5 -56.5q88 0 173 21.5t165 58.5v383h-330v123h520v-564q-96 -49 -180 -78.5t-155.5 -45t-129 -20.5t-100.5 -5q-150 0 -283 49t-232 144.5t-156.5 233.5t-57.5 318z" />
<glyph unicode="H" horiz-adv-x="1492" d="M160 0v1446h198v-627h777v627h198v-1446h-198v692h-777v-692h-198z" />
<glyph unicode="I" horiz-adv-x="512" d="M158 0v1446h196v-1446h-196z" />
<glyph unicode="J" horiz-adv-x="937" d="M0 250q10 4 25.5 11t25.5 13q12 -20 33.5 -52t55.5 -61.5t83 -51t115 -21.5q49 0 84 12.5t58.5 28.5t37.5 32.5t21 26.5q20 31 31.5 64t17.5 77t7 105.5t1 147.5v864h195v-963q0 -125 -15.5 -222t-85.5 -173q-63 -72 -146 -101.5t-175 -29.5t-149.5 24.5t-94.5 55.5 q-61 49 -86 106.5t-39 106.5z" />
<glyph unicode="K" horiz-adv-x="1236" d="M160 0v1446h196v-662l656 662h207l-658 -662l758 -784h-254l-709 733v-733h-196z" />
<glyph unicode="L" horiz-adv-x="1067" d="M160 0v1448h200v-1321h707v-127h-907z" />
<glyph unicode="M" horiz-adv-x="1748" d="M55 0l217 1446h107l416 -952q29 -63 49 -121t33 -111q8 27 23 75t44 118l420 991h104l228 -1446h-199l-115 748q-12 72 -18 123t-8 89.5t-2 70.5t2 67q-12 -53 -23.5 -90t-23 -69t-24.5 -63.5t-32 -74.5l-340 -801h-104l-350 803q-29 63 -46.5 109t-27.5 79t-16.5 57.5 t-12.5 49.5q1 -27 1 -54v-26q-1 -39 -4 -83t-10 -100.5t-19 -129.5l-105 -705h-164z" />
<glyph unicode="N" horiz-adv-x="1536" d="M160 0v1446h168l751 -897q29 -35 47.5 -57.5t33 -40t25.5 -35t27 -41.5l-10 1071h174v-1464h-61l-866 1030q-33 39 -63 78.5t-56 80.5v-1171h-170z" />
<glyph unicode="O" horiz-adv-x="1579" d="M86 719q0 154 44 293t133 245.5t220 169t308 62.5q178 0 310 -65.5t219 -173t129 -244t42 -277.5q0 -166 -48 -307t-138.5 -244.5t-219.5 -162t-292 -58.5q-156 0 -286 54.5t-223.5 154.5t-145.5 240.5t-52 312.5zM295 725q0 -156 40 -275.5t107.5 -200.5t157.5 -123 t193 -42q117 0 208 49t153.5 136t95 205t32.5 257q0 119 -29.5 232.5t-91 201.5t-154 142.5t-216.5 54.5q-115 0 -206 -48t-155.5 -134t-99.5 -203t-35 -252z" />
<glyph unicode="P" d="M160 0v1446h452q104 0 178 -7t136 -36q35 -16 69.5 -42t63 -65t47 -92t18.5 -123q0 -86 -32.5 -164.5t-104.5 -137t-183.5 -93.5t-271.5 -35h-28t-29.5 1t-44.5 2t-72 3v-657h-198zM358 735q22 -1 52.5 -1t70.5 1q80 2 172 27q141 39 204 123t63 178q0 53 -17.5 97 t-42.5 73q-16 18 -37.5 35.5t-53.5 30t-79 19.5t-112 7h-220v-590z" />
<glyph unicode="Q" horiz-adv-x="1579" d="M86 719q0 156 45 295t133 244.5t220 168t307 62.5q178 0 310 -65.5t218 -173t129 -243t43 -276.5q0 -186 -59.5 -344t-178.5 -262q-51 -45 -99 -71.5t-90 -42t-76 -21.5t-58 -10q25 -8 40 -14.5t29.5 -12.5t31 -14.5t40.5 -20.5q18 -10 37.5 -19.5t38.5 -19.5 q106 -53 200.5 -86t172 -52.5t138 -27.5t101.5 -14q-4 -12 -7 -27.5t-7 -27.5q-18 -2 -44 -4t-65 -2q-35 0 -89 3t-129 14t-171 35.5t-215 67.5q-63 23 -140 55.5t-151.5 67.5t-141.5 69t-110 60q-41 23 -108.5 71t-133 131t-113.5 207t-48 300zM295 725q0 -154 40 -273.5 t107.5 -200.5t157.5 -123t193 -42q117 0 208 49t153.5 136t95 205t32.5 257q0 119 -29.5 231.5t-91 200.5t-154 142.5t-216.5 54.5q-115 0 -206 -48t-155.5 -134t-99.5 -203t-35 -252z" />
<glyph unicode="R" horiz-adv-x="1236" d="M160 0v1446h389q78 0 138.5 -4t108.5 -13.5t86 -24.5t72 -40q70 -47 106 -124t36 -163q0 -129 -74 -231q-51 -68 -105.5 -96.5t-89.5 -42.5l414 -707h-217l-387 666q-29 -4 -67 -8.5t-117 -4.5q-33 0 -53.5 1t-43.5 3v-657h-196zM356 731h19q113 -1 205 21 q100 24 169.5 67t106.5 105.5t37 140.5q0 37 -12.5 80t-46.5 82q-49 57 -117 75.5t-160 18.5h-201v-590z" />
<glyph unicode="S" horiz-adv-x="1110" d="M33 379q10 4 26.5 8t26.5 8q16 -35 47 -92t103 -113q72 -57 147.5 -76.5t134.5 -19.5q70 0 131.5 19.5t106.5 57.5t70.5 91t25.5 121q0 35 -10.5 75t-38.5 77q-14 18 -30.5 33.5t-42 29.5t-62.5 27.5t-88 27.5l-30 7.5t-46.5 11.5t-46 12t-29.5 8q-31 8 -87 28.5 t-112.5 63.5t-97.5 113t-41 178q0 84 33 159t94.5 132t147.5 90t192 33q180 0 301 -95.5t148 -287.5q-10 -4 -26 -10.5t-26 -10.5q-16 31 -42.5 76t-70.5 88t-108.5 74t-152.5 31q-68 0 -122.5 -19.5t-92 -55.5t-59 -83t-21.5 -102q0 -53 17 -91t46 -66t65 -45.5t70 -29.5 q12 -4 46 -13t72 -19.5t73 -18.5t49 -12q29 -8 84 -29.5t109.5 -64.5t95.5 -114t41 -179q0 -80 -31 -161t-94.5 -145.5t-161.5 -105.5t-234 -41q-135 0 -229 38t-152.5 98.5t-86 135t-31.5 148.5z" />
<glyph unicode="T" horiz-adv-x="1110" d="M0 1315v131h1108v-131h-453v-1315h-200v1315h-455z" />
<glyph unicode="U" horiz-adv-x="1492" d="M147 442v1006h197v-918q0 -117 11.5 -183t39.5 -109q37 -59 115 -100.5t182 -41.5q70 0 135.5 20.5t123 53.5t104.5 73t82 79v1126h196v-1448h-196v215q-109 -145 -232 -200.5t-266 -55.5q-129 0 -225.5 39t-155.5 100q-66 66 -88.5 148t-22.5 196z" />
<glyph unicode="V" horiz-adv-x="1366" d="M-20 1446h217l454 -1028q23 -51 32 -75t19 -52q2 10 4.5 18t7.5 20.5t13 30t21 48.5l458 1038h180l-675 -1464h-60z" />
<glyph unicode="W" horiz-adv-x="1835" d="M0 1446h213l272 -950q18 -66 25.5 -111t11.5 -72q4 68 22.5 133.5t43.5 128.5l315 871h60l340 -971q23 -63 27.5 -102t8.5 -60q10 78 32 166t46 168l256 799h162l-467 -1464h-65l-332 911q-10 31 -18.5 53.5t-14.5 42t-11 40t-12 46.5q-10 -53 -26.5 -105t-36.5 -110 l-330 -878h-61z" />
<glyph unicode="X" horiz-adv-x="1280" d="M-8 0l536 733l-512 713h232l395 -551l401 551h193l-496 -684l547 -762h-233l-430 600l-445 -600h-188z" />
<glyph unicode="Y" horiz-adv-x="1280" d="M-20 1446h210l351 -860q27 -68 44 -113t27.5 -76.5t15.5 -52t9 -35.5q6 20 12 36.5t14.5 36t19.5 47.5t30 71l415 946h172l-665 -1516q-29 -68 -58.5 -117t-62.5 -85.5t-72 -63t-84 -47.5q-94 -41 -181 -47q-65 -4 -125 -4h-40v67q115 6 194 40t134 88.5t94 123t76 146.5 l31 63z" />
<glyph unicode="Z" horiz-adv-x="1236" d="M0 0v57l911 1260h-813v129h1094v-57l-905 -1260h917v-129h-1204z" />
<glyph unicode="[" horiz-adv-x="512" d="M158 0v1446h356v-107h-190v-1233h190v-106h-356z" />
<glyph unicode="\" horiz-adv-x="811" d="M6 1446h182l617 -1446h-184z" />
<glyph unicode="]" horiz-adv-x="512" d="M0 0v106h190v1233h-190v107h356v-1446h-356z" />
<glyph unicode="^" horiz-adv-x="1492" d="M319 717l369 729h129l357 -729h-156l-268 559l-275 -559h-156z" />
<glyph unicode="_" horiz-adv-x="1024" d="M-20 -154h1064v-102h-1064v102z" />
<glyph unicode="`" horiz-adv-x="598" d="M82 1513h219l213 -313l-45 -39z" />
<glyph unicode="a" horiz-adv-x="1067" d="M66 285q0 66 26.5 131t81.5 118.5t142 86t210 32.5q23 0 79.5 -4t152.5 -24q-2 66 -7.5 116t-39.5 101q-6 8 -20.5 25.5t-39 34t-62.5 28.5t-91 12q-106 0 -184 -47t-136 -139q-10 4 -26.5 9t-26.5 9q84 311 416 311q16 0 53 -2t83 -14t94 -40t89 -79q57 -74 67.5 -154.5 t10.5 -168.5v-627h-180v123q-41 -57 -86 -90t-88 -49.5t-82 -20.5t-68 -4q-92 0 -160.5 26.5t-114.5 71.5t-69.5 104.5t-23.5 123.5zM262 297q0 -51 19.5 -91t51.5 -67.5t74 -42t87 -14.5q51 0 95 15.5t77.5 37t57.5 43t34 33.5v293q-27 6 -82 17t-127 11 q-80 0 -135.5 -22.5t-89 -57t-48 -76.5t-14.5 -79z" />
<glyph unicode="b" horiz-adv-x="1193" d="M141 0v1448h185v-528q16 18 44.5 46.5t69.5 55.5t95.5 45t126.5 18q106 0 189 -45t138 -120.5t84 -175t29 -209.5q0 -121 -31 -226.5t-90 -183.5t-144 -123t-194 -45q-72 0 -123 18.5t-89 44t-63.5 54t-41.5 51.5v-125h-185zM326 221q18 -20 42.5 -43.5t55.5 -44t71 -34 t91 -13.5q76 0 134 32t98 88t61.5 135t21.5 173q0 29 -2 68t-10 82t-22.5 87t-39.5 80q-25 41 -55.5 67t-61 39t-59 18.5t-51.5 5.5q-57 0 -102 -17.5t-79 -40t-57.5 -48.5t-35.5 -40v-594z" />
<glyph unicode="c" horiz-adv-x="1067" d="M94 506q0 123 36 228.5t102.5 184t161.5 122.5t216 44q72 0 141.5 -19t129.5 -60q45 -33 72.5 -69t43 -69.5t22.5 -64.5t11 -51l-28.5 -9.5l-28.5 -9.5q-23 41 -51.5 83t-79.5 77q-92 61 -199 61q-70 0 -133.5 -27.5t-112.5 -81.5t-77.5 -134t-28.5 -185 q0 -109 28.5 -189.5t76.5 -135t110.5 -81t128.5 -26.5q111 0 203 64q61 43 89.5 84t45.5 73q12 -4 28.5 -9t28.5 -9q-14 -49 -41.5 -113.5t-93.5 -124.5q-14 -12 -39 -29.5t-61.5 -33.5t-87 -27.5t-117.5 -11.5q-111 0 -203 39t-156.5 110.5t-100.5 173t-36 226.5z" />
<glyph unicode="d" horiz-adv-x="1193" d="M92 502q0 131 38 238.5t101.5 184t148.5 118.5t179 42q70 0 121 -17t88 -42t60.5 -51.5t37.5 -44.5v516h187v-1446h-187v121q-18 -23 -43.5 -51.5t-63.5 -53t-90.5 -41t-123.5 -16.5q-102 0 -185.5 39t-142.5 110.5t-92 172t-33 221.5zM291 518q0 -98 19.5 -170 t47.5 -119q41 -66 105.5 -104.5t150.5 -38.5q47 0 86 13.5t71 32t55.5 38.5t39.5 37v614q-12 14 -31.5 38t-49 44.5t-71.5 35.5t-98 15q-76 0 -142 -35.5t-112 -103.5q-23 -35 -37 -76t-21 -82t-10 -76.5t-3 -62.5z" />
<glyph unicode="e" d="M94 516q0 135 42 241.5t112.5 179.5t166 110.5t199.5 37.5q100 0 182.5 -31.5t143.5 -86.5t93 -122t45.5 -130.5t14.5 -115.5t1 -79h-805q2 -23 5 -55.5t12 -70.5t25.5 -80t47.5 -81q39 -51 84 -78.5t85 -40t70.5 -14.5t43.5 -2q82 0 144 26t106 59.5t71 69.5t41 58 q10 -4 25.5 -10t25.5 -10q-8 -29 -29.5 -84t-72.5 -110.5t-136 -97.5t-221 -42q-104 0 -198 35t-166 104.5t-115 175t-43 244.5zM291 633h620q-6 98 -38.5 160.5t-78.5 99.5t-95.5 50t-88.5 13q-47 0 -98 -16t-97 -55t-80 -100.5t-44 -151.5z" />
<glyph unicode="f" horiz-adv-x="555" d="M16 924v118h148v129q0 35 2 71t11 68.5t27.5 63.5t53.5 58q29 20 74 38.5t110 18.5q47 0 82 -10.5t59.5 -25.5t40 -30.5l23.5 -23.5q-6 -10 -16 -21.5t-17 -21.5q-23 10 -49 18t-63 8q-49 0 -81 -19.5t-48 -45.5q-16 -29 -19.5 -68t-3.5 -106v-101h215v-118h-215v-924 h-186v924h-148z" />
<glyph unicode="g" d="M94 541q0 135 35 236.5t93.5 170t134 103t157.5 34.5q70 0 120 -19t87 -47t61.5 -58.5t40.5 -53.5v135h187v-917q0 -59 -2 -114.5t-12.5 -108t-33 -99.5t-63.5 -90q-53 -53 -142 -94t-222 -41q-41 0 -103.5 9.5t-124 43t-115 98t-75.5 175.5l59 20q12 -27 29.5 -55.5 t52.5 -61.5q51 -47 122 -72.5t142 -25.5q66 0 126.5 22.5t101.5 71.5q55 63 64 140t9 188v59q-12 -16 -35.5 -42.5t-61.5 -53t-93 -45t-131 -18.5q-86 0 -161 33.5t-130 98t-86 160t-31 218.5zM289 555q0 -74 16.5 -144.5t51 -126t88 -89t128.5 -33.5q45 0 83 11t69 28.5 t55.5 36t42.5 32.5v516q-16 27 -38.5 59t-67.5 60q-72 47 -152 47q-63 0 -114.5 -28.5t-87 -80.5t-55 -126t-19.5 -162z" />
<glyph unicode="h" d="M141 0v1448h187v-561q23 29 54.5 63.5t75.5 64t101 50t133 20.5q63 0 122.5 -19t107.5 -62q33 -31 50 -65t25.5 -67.5t10.5 -66.5t2 -64v-741h-187v666q0 39 -3 88t-22.5 92t-62.5 72.5t-121 29.5q-66 0 -108.5 -21.5t-59.5 -31.5q-23 -14 -43 -34.5t-37.5 -40t-27.5 -35 t-10 -17.5v-768h-187z" />
<glyph unicode="i" horiz-adv-x="468" d="M127 1348q0 47 30.5 79.5t80.5 32.5q49 0 77.5 -32.5t28.5 -73.5q0 -35 -12.5 -57.5t-29.5 -35t-36.5 -17.5t-32.5 -5q-41 0 -73.5 30t-32.5 79zM141 0v1044h187v-1044h-187z" />
<glyph unicode="j" horiz-adv-x="468" d="M-23 -367q41 10 82 31t64 80q10 31 13 72t3 125v1101h191v-1001q0 -109 -9.5 -189.5t-56.5 -146.5q-29 -41 -63.5 -64.5t-70.5 -37t-73 -18.5t-69 -7q-2 10 -5 26.5t-6 28.5zM125 1346q0 47 30.5 79.5t80.5 32.5q47 0 76.5 -28.5t29.5 -75.5q0 -53 -30.5 -84t-78.5 -31 q-43 0 -75.5 28.5t-32.5 78.5z" />
<glyph unicode="k" horiz-adv-x="1024" d="M141 0v1446h187v-842l481 438h199l-490 -448l330 -361q55 -59 112.5 -117.5t116.5 -115.5h-217q-29 16 -66.5 45t-101.5 96l-364 398v-539h-187z" />
<glyph unicode="l" horiz-adv-x="468" d="M141 0v1446h187v-1446h-187z" />
<glyph unicode="m" horiz-adv-x="1748" d="M143 0v1042h185v-143q14 18 39.5 50t66.5 62.5t98.5 52t135.5 21.5q45 0 88 -9t82 -32q33 -18 54 -40.5t34.5 -44t20.5 -42t11 -36.5q16 25 38 53.5t63 62.5q72 57 137.5 72.5t118.5 15.5q102 0 161.5 -37.5t88.5 -84.5q33 -55 39 -129t6 -175v-659h-185v653q0 55 -2 87 t-6 59q-2 10 -8 35.5t-24.5 51t-54.5 46t-93 20.5q-55 0 -99 -19.5t-78 -46t-56.5 -54t-34.5 -44.5v-788h-185v641v76t-4 67q-8 59 -33.5 93t-56.5 50.5t-59.5 20.5t-42.5 4q-86 0 -149.5 -46t-110.5 -118v-788h-185z" />
<glyph unicode="n" d="M141 0v1042h185v-145q14 20 41.5 52t70.5 62.5t102.5 52t141.5 21.5q57 0 98 -10t71 -22.5t46 -25.5t25 -19q33 -31 50 -64t25.5 -67.5t10.5 -70.5t2 -73v-733h-185v592q0 84 -2 132t-12 89q-12 43 -36.5 69.5t-54.5 42t-60.5 20.5t-53.5 5q-76 0 -151.5 -41t-128.5 -133 v-776h-185z" />
<glyph unicode="o" horiz-adv-x="1193" d="M94 504q0 150 41 260t111.5 181t164 105.5t197.5 34.5q115 0 206 -40.5t155.5 -113.5t98.5 -174t34 -220q0 -133 -30 -233.5t-83 -168.5q-18 -25 -51 -55.5t-82 -58t-114.5 -46t-151.5 -18.5q-63 0 -152.5 20.5t-175.5 92.5q-59 51 -92 111.5t-50.5 119.5t-21.5 112.5 t-4 90.5zM293 528q0 -102 14.5 -167.5t26.5 -94.5q39 -104 112.5 -150t151.5 -46q59 0 114.5 24.5t97.5 77.5t67.5 140t25.5 212q0 88 -17.5 169t-54 142.5t-94 98.5t-137.5 37q-86 0 -144.5 -38t-94 -100.5t-52 -142.5t-16.5 -162z" />
<glyph unicode="p" horiz-adv-x="1193" d="M141 -408v1450h181v-122q18 18 47.5 45.5t72.5 54.5t99.5 46t126.5 19q100 0 181 -42t137 -115.5t86 -173t30 -215.5q0 -123 -33 -229.5t-94.5 -184.5t-148.5 -122t-193 -44q-66 0 -116 14.5t-87 36t-63.5 45t-44.5 41.5v-504h-181zM322 184q39 -37 80.5 -57.5 t77.5 -29.5t61.5 -11t31.5 -2q35 0 91.5 14.5t109.5 60.5t91 135t38 241q0 80 -18.5 156.5t-55 136t-94 95t-135.5 35.5q-84 0 -151.5 -37.5t-126.5 -97.5v-639z" />
<glyph unicode="q" horiz-adv-x="1193" d="M94 506q0 135 38 241.5t102.5 182.5t149.5 115.5t177 39.5q72 0 124 -19t88 -45t58.5 -53.5t34.5 -45.5v120h187v-1452h-187v521q-14 -18 -37.5 -44t-62.5 -50.5t-93.5 -42t-129.5 -17.5q-123 0 -208 51t-139.5 131t-78 177.5t-23.5 189.5zM291 526q0 -201 86 -320.5 t233 -119.5q49 0 91 13.5t75 32t55.5 36.5t34.5 31v614q-43 66 -108.5 107t-143.5 41q-59 0 -117.5 -27t-104.5 -81t-73.5 -136t-27.5 -191z" />
<glyph unicode="r" horiz-adv-x="724" d="M141 0v1042h189v-143q12 18 34.5 47t55.5 55.5t77 46t99 19.5q41 0 63.5 -7t45.5 -18v-168q-25 10 -66 27t-94 17q-47 0 -84 -15.5t-63.5 -36t-43 -42t-24.5 -31.5v-793h-189z" />
<glyph unicode="s" horiz-adv-x="937" d="M37 279q12 4 28.5 9t26.5 9q14 -23 34.5 -53.5t55.5 -61.5q51 -45 123 -70.5t150 -25.5q106 0 169.5 48t63.5 126q0 37 -12 63.5t-29.5 45t-35 29l-27.5 16.5q-31 16 -76 30.5t-131 40.5q-39 12 -88 31t-93 51.5t-74 82.5t-30 126q0 66 25.5 122t75 98t120 65.5 t158.5 23.5q61 0 131 -15t127 -56q39 -29 63.5 -59.5t38 -60.5t18.5 -55.5t7 -43.5q-10 -4 -26.5 -8.5t-26.5 -8.5q-12 20 -33.5 51t-56.5 58.5t-86.5 47t-124.5 19.5q-102 0 -162.5 -45t-60.5 -114q0 -66 48 -101t128 -61q2 0 17 -5t33.5 -10.5t35 -10.5t22.5 -7 q39 -12 93.5 -30.5t103.5 -54.5t84 -91t35 -137q0 -74 -31 -134.5t-84 -103.5q-63 -51 -140 -70.5t-163 -19.5q-78 0 -151.5 18.5t-135.5 63.5q-41 31 -65.5 64.5t-40 66.5t-21.5 60.5t-10 46.5z" />
<glyph unicode="t" horiz-adv-x="598" d="M10 924v118h144v277h186v-277h219v-118h-219v-598q0 -49 2 -97.5t16.5 -85.5t44 -59.5t84.5 -22.5q41 0 70 11.5t55 23.5q6 -10 14.5 -24.5t14.5 -24.5q-29 -25 -82 -57.5t-143 -32.5q-59 0 -103.5 16.5t-66.5 32.5q-63 45 -77.5 109.5t-14.5 158.5v650h-144z" />
<glyph unicode="u" d="M141 356v686h187v-608q0 -86 5 -140t23 -93q20 -41 67.5 -78t129.5 -37q8 0 35.5 2t65.5 15.5t82 41t87 80.5v817h187v-1042h-187v131q-12 -18 -35.5 -48t-61.5 -57.5t-94.5 -48t-133.5 -20.5q-96 0 -170 34t-115 83q-47 57 -59.5 125.5t-12.5 156.5z" />
<glyph unicode="v" horiz-adv-x="980" d="M0 1042h203l284 -698q2 -4 8.5 -22.5t12.5 -45.5q4 16 7 28.5t15 41.5l297 696h154l-461 -1054h-63z" />
<glyph unicode="w" horiz-adv-x="1492" d="M0 1042h195l221 -622q18 -53 22 -81t8 -46q4 23 8.5 47.5t20.5 62.5l254 639h59l252 -600q27 -61 32 -94t9 -55q4 23 8.5 39t16.5 53l233 657h154l-387 -1054h-64l-270 641q-4 10 -13 36.5t-20 65.5q-8 -43 -24.5 -87t-20.5 -54l-248 -602h-57z" />
<glyph unicode="x" horiz-adv-x="1024" d="M0 0l412 532l-373 510h223l262 -358l277 358h168l-361 -471l416 -571h-223l-307 422l-322 -422h-172z" />
<glyph unicode="y" horiz-adv-x="980" d="M6 -365q68 20 121 52t99 84.5t90 131.5t96 195l-406 944h207l295 -727l317 727h162l-455 -1032q-47 -106 -98 -188t-112.5 -137.5t-139.5 -82.5q-68 -23 -151 -23q-12 0 -25 1v55z" />
<glyph unicode="z" horiz-adv-x="937" d="M12 0v49l619 877h-559v116h821v-51l-617 -872h617v-119h-881z" />
<glyph unicode="{" horiz-adv-x="724" d="M150 705v40q51 8 79.5 34t43 67t17.5 97t3 126q2 86 12 160t64 131q27 29 53.5 45t59 25.5t76.5 12.5t104 7v-49q-74 -8 -115 -39t-60.5 -73t-23.5 -90t-4 -89l-2 -96q-2 -90 -19.5 -143.5t-43 -83t-55.5 -43t-54 -21.5q53 -18 85.5 -44t52 -62.5t27 -85t7.5 -111.5 l2 -109q2 -78 20.5 -125t48 -74.5t64.5 -42t70 -24.5v-49q-51 2 -87 5t-64 8t-50.5 13.5t-44.5 22.5q-37 25 -60.5 55.5t-37 67.5t-18.5 76t-5 78v106q-2 63 -8 109.5t-21.5 79t-43 53t-72.5 35.5z" />
<glyph unicode="|" horiz-adv-x="468" d="M174 -512v2048h123v-2048h-123z" />
<glyph unicode="}" horiz-adv-x="724" d="M63 -4v49q35 10 70 24.5t64.5 42t48 74.5t20.5 125l2 109q0 63 7.5 111.5t27 85t52 62.5t85.5 44q-25 8 -54.5 21.5t-55 43t-43 83t-19.5 143.5l-2 96q0 41 -4 89t-23.5 90t-60.5 73t-115 39v49q59 -4 103.5 -7t77 -12.5t59.5 -25.5t53 -45q51 -57 62.5 -130t13.5 -159 q0 -72 3 -127t17.5 -95t42 -65.5t80.5 -33.5v-50q-45 -14 -72.5 -34.5t-43 -53t-21.5 -79t-8 -109.5v-102q-2 -59 -13 -121t-52 -109q-27 -31 -56.5 -49t-65.5 -27.5t-80 -13.5t-100 -6z" />
<glyph unicode="~" horiz-adv-x="1492" d="M274 582q10 14 31 41.5t51.5 54.5t72.5 46t97 19q59 0 112.5 -20.5t119.5 -50.5l65 -31q66 -31 92.5 -36t40.5 -5q37 0 66 12.5t53.5 32t44 42t35.5 40.5l64 -113q-74 -94 -139.5 -125.5t-123.5 -31.5q-45 0 -86 14t-112 49l-60 31q-29 14 -76 32.5t-94 18.5 q-59 0 -95 -31.5t-91 -101.5z" />
<glyph unicode="&#xa1;" horiz-adv-x="555" d="M129 1368q-4 53 28.5 81t73.5 28q47 0 78 -31t31 -76t-29.5 -74.5t-77.5 -29.5q-43 0 -72.5 27.5t-31.5 74.5zM135 0v135q2 184 8.5 314.5t15.5 233.5t21.5 191.5t26.5 188.5h55q41 -229 53.5 -457.5t16.5 -460.5v-145h-197z" />
<glyph unicode="&#xa2;" horiz-adv-x="1067" d="M92 508q0 98 27.5 196.5t84 178.5t145.5 134t212 64v162h82v-162q41 -4 106.5 -21.5t133.5 -76.5q37 -33 59.5 -65.5t35.5 -63.5t19.5 -58.5t10.5 -50.5q-10 -4 -26.5 -10t-29.5 -10q-53 96 -121.5 155.5t-187.5 69.5v-856q35 2 73 11.5t78 32t79.5 64.5t78.5 113 q12 -4 28.5 -10l27.5 -10q-10 -41 -34 -99.5t-83 -117.5q-35 -35 -71 -56.5t-69.5 -34t-61 -18.5t-46.5 -8v-170h-82v170q-139 12 -230 67.5t-144.5 135.5t-74 171t-20.5 173zM289 522q0 -80 14 -138t33 -97q25 -53 56.5 -87t63 -54.5t59.5 -30t46 -15.5v844 q-80 -23 -133 -70t-84 -105t-43 -123.5t-12 -123.5z" />
<glyph unicode="&#xa3;" horiz-adv-x="1193" d="M25 590v121h274q-12 43 -28.5 112.5t-16.5 143.5q0 90 31.5 172t92 143t147.5 98t196 37q59 0 104 -9t80 -23.5t58.5 -31t40.5 -30.5q43 -39 68.5 -82t37.5 -86t15 -81t5 -68q-12 -2 -28.5 -5.5t-28.5 -5.5q-8 27 -26.5 75t-55.5 94t-96 80t-152 34q-59 0 -112 -19.5 t-94 -58.5t-64.5 -97.5t-23.5 -133.5q0 -68 16 -129q2 -12 7 -30.5t9 -38t7.5 -36t3.5 -24.5h327v-121h-303q2 -18 3 -33.5t1 -42.5q0 -84 -22.5 -148.5t-54 -110.5t-65.5 -77t-54 -49h856l-50 -129h-868q-53 0 -80.5 -7t-48.5 -16q-6 10 -15 25.5t-16 26.5q70 49 115 104 t70.5 113.5t35 119t9.5 121.5q0 35 -2 57.5t-6 45.5h-299z" />
<glyph unicode="&#xa4;" horiz-adv-x="1366" d="M117 223l151 150q-12 18 -31.5 47t-37 67.5t-29.5 90t-12 116.5q0 63 12 115.5t29.5 91.5t36 67.5t32.5 47.5l-147 149l92 92l147 -149q18 14 47 33.5t69 37t91 30t117 12.5q63 0 115.5 -12.5t91.5 -30t67.5 -37t47.5 -31.5l149 150l94 -95l-151 -149q14 -18 32.5 -47 t36 -67t29.5 -89t12 -117t-12 -118t-29.5 -92t-37 -67.5t-33.5 -45.5l151 -152l-94 -94l-149 154q-18 -14 -46 -33t-68 -36t-91 -29.5t-115 -12.5q-66 0 -118 12.5t-91 29.5t-67.5 35.5t-47.5 33.5l-151 -150zM281 694q0 -86 31.5 -159.5t86 -128t128 -85t157.5 -30.5 q88 0 162 31.5t126 87t81.5 129t29.5 157.5q0 92 -33.5 167t-89 127t-128 81t-150.5 29q-82 0 -154.5 -30t-128 -83t-87 -128t-31.5 -165z" />
<glyph unicode="&#xa5;" d="M-8 1405h205l288 -649q16 -37 27.5 -62.5t21 -49t18.5 -50.5t21 -66q16 37 24.5 53.5t14.5 32.5q2 6 10.5 23.5t17.5 38t17.5 38t12.5 25.5l317 666h172l-315 -657h198v-121h-258l-79 -170h337v-121h-395l-76 -154q-41 -86 -91 -145.5t-115.5 -94t-153.5 -49t-205 -12.5 v56q80 8 141.5 27.5t111.5 56t93 96t88 149.5l35 70h-397v121h344l-76 170h-268v121h213z" />
<glyph unicode="&#xa6;" horiz-adv-x="468" d="M174 358h123v-716h-123v716zM174 666v716h123v-716h-123z" />
<glyph unicode="&#xa7;" horiz-adv-x="980" d="M57 539q0 74 26 124t62.5 83.5t76.5 53t69 31.5q-25 14 -56.5 35t-60.5 54.5t-48.5 81t-19.5 112.5q0 74 28 140.5t80 116.5t126 81t164 31q78 0 146.5 -22.5t121.5 -71t85 -125t36 -183.5q-12 -2 -27.5 -5t-27.5 -5q-8 25 -25.5 71t-51.5 91t-89.5 79t-136.5 34 q-94 0 -159 -56.5t-65 -146.5q0 -55 22.5 -92t57.5 -62.5t77 -43t83 -30.5l65 -22q37 -14 92.5 -36.5t105.5 -60.5t86 -94.5t36 -138.5q0 -47 -16.5 -95t-53.5 -93q-45 -53 -87 -78t-74 -39q66 -35 100.5 -80t50.5 -88t19.5 -78t3.5 -47q0 -74 -28 -141.5t-80 -119.5 t-129 -83t-175 -31q-14 0 -45 1t-70 10.5t-82 29t-80 56.5q-66 61 -91 140t-31 171q12 2 29.5 4t29.5 4q6 -25 21.5 -71t49 -91t90 -78.5t146.5 -33.5q111 0 175.5 61.5t64.5 151.5q0 57 -20.5 96t-57.5 66.5t-87 48t-108 43.5q-57 20 -117.5 45.5t-110.5 64.5t-83 94.5 t-33 135.5zM244 590q0 -47 13 -78t32.5 -52.5t42 -34.5t39.5 -22q16 -8 32.5 -15t43 -17.5t70.5 -27.5t118 -44q14 12 34.5 28.5t37 40t29 56.5t12.5 78q0 57 -21.5 95t-53.5 64.5t-69 43t-67 28.5q-10 2 -35 11.5t-53.5 19.5t-54 19.5t-36.5 13.5q-16 -14 -35.5 -33 t-37 -43.5t-29.5 -57t-12 -73.5z" />
<glyph unicode="&#xa8;" horiz-adv-x="598" d="M-2 1341q0 45 31.5 78t81.5 33q41 0 73.5 -27.5t34.5 -78.5q2 -43 -25.5 -79t-82.5 -36q-53 0 -83 32.5t-30 77.5zM381 1341q0 45 30.5 78t80.5 33q41 0 73.5 -27.5t34.5 -78.5q2 -43 -25.5 -79t-82.5 -36q-53 0 -82 32.5t-29 77.5z" />
<glyph unicode="&#xa9;" horiz-adv-x="1705" d="M125 723q0 158 58.5 291t158.5 230t231.5 152.5t278.5 55.5q154 0 288 -56.5t232 -154.5t154.5 -232t56.5 -290q0 -145 -54 -276.5t-151.5 -231.5t-231.5 -158.5t-294 -58.5q-141 0 -273.5 53t-232.5 149.5t-160.5 230.5t-60.5 296zM190 723q0 -141 52.5 -262t142.5 -210 t211 -140.5t258 -51.5q143 0 265 53.5t211 144.5t138.5 210t49.5 252q0 139 -50.5 261t-139.5 212t-211 142t-265 52q-135 0 -255 -51t-211 -140t-143.5 -211t-52.5 -261zM395 727q0 98 36 185t99.5 150.5t149.5 100.5t184 37q86 0 151.5 -22.5t112 -53t76 -62.5t45.5 -50 l-86 -80q-16 18 -41.5 45t-61.5 51.5t-83 40.5t-109 16q-72 0 -136 -26.5t-112.5 -74.5t-77 -113.5t-28.5 -145.5q0 -78 28.5 -144.5t78 -113.5t113 -73.5t134.5 -26.5q61 0 109.5 16t84.5 39.5t60.5 50.5t40.5 45l86 -74q-53 -68 -110.5 -106.5t-109.5 -58t-96 -23.5 t-69 -4q-92 0 -176 32.5t-149.5 94t-104.5 149.5t-39 199z" />
<glyph unicode="&#xaa;" horiz-adv-x="681" d="M39 958q0 43 17.5 87.5t54 78t93 55t134.5 21.5q31 0 67.5 -5t71.5 -11q0 20 -3 53t-18.5 61.5t-48 50t-92.5 21.5q-47 0 -79.5 -14.5t-56 -33.5t-38 -38.5t-20.5 -32.5q-10 4 -22.5 7.5t-22.5 7.5q29 102 93 154.5t177 52.5q10 0 35 -1.5t53.5 -9.5t60 -26.5t58.5 -51.5 q39 -47 45 -98t6 -108v-406h-127v66q-35 -47 -87 -70t-111 -23t-104.5 18.5t-75 48.5t-45 68t-15.5 78zM176 967q0 -61 43 -96t98 -35q47 0 87 22.5t73 56.5v181q-66 16 -127 16q-49 0 -83 -14.5t-54 -36t-28.5 -47t-8.5 -47.5z" />
<glyph unicode="&#xab;" horiz-adv-x="811" d="M35 547l239 237h164l-233 -237l233 -240h-164zM369 547l237 237h170l-237 -237l237 -240h-170z" />
<glyph unicode="&#xac;" horiz-adv-x="1366" d="M0 537v120h1366v-657h-123v537h-1243z" />
<glyph unicode="&#xad;" horiz-adv-x="641" d="M51 489v113h539v-113h-539z" />
<glyph unicode="&#xae;" horiz-adv-x="1705" d="M125 723q0 158 58.5 291t158.5 230t231.5 152.5t278.5 55.5q154 0 287 -56.5t232 -154.5t155.5 -232t56.5 -290q0 -145 -55 -276.5t-152.5 -231.5t-231.5 -158.5t-292 -58.5q-141 0 -273.5 53t-232.5 149.5t-160.5 230.5t-60.5 296zM190 723q0 -141 52.5 -262t142.5 -210 t211 -140.5t256 -51.5q143 0 266 53.5t211 144.5t138.5 211t50.5 253q0 137 -50.5 259t-139.5 212t-211 142t-265 52q-135 0 -255 -51t-211 -140t-143.5 -211t-52.5 -261zM561 270v912h281q84 0 129 -3t82 -20q68 -25 103.5 -82t35.5 -123q0 -82 -51 -142t-152 -77 q80 -29 107.5 -79t38.5 -121q8 -51 14 -88t13 -66t16.5 -54.5t23.5 -56.5h-153q-10 18 -16.5 37t-11.5 40.5t-10 50t-12 71.5q-10 57 -19 100t-32.5 71t-67.5 41t-120 13h-66v-424h-133zM696 801h152q23 0 58.5 2t69.5 15t57.5 43t23.5 83q0 33 -16.5 68t-57.5 53 q-27 10 -59.5 12t-104.5 2h-123v-278z" />
<glyph unicode="&#xaf;" horiz-adv-x="598" d="M-31 1282v113h660v-113h-660z" />
<glyph unicode="&#xb0;" horiz-adv-x="724" d="M61 1231q0 63 24 117.5t64.5 95.5t96 64.5t116.5 23.5q63 0 118 -23.5t95.5 -64.5t64.5 -96.5t24 -116.5t-24 -116.5t-64.5 -96.5t-95 -64.5t-118.5 -23.5q-61 0 -116.5 23.5t-96 64.5t-64.5 96t-24 117zM184 1231q0 -74 51.5 -126t126.5 -52q74 0 126.5 52t52.5 126 t-52.5 126t-126.5 52q-76 0 -127 -52t-51 -126z" />
<glyph unicode="&#xb1;" horiz-adv-x="1366" d="M84 0v121h1198v-121h-1198zM84 776v121h541v524h120v-524h537v-121h-537v-524h-120v524h-541z" />
<glyph unicode="&#xb2;" horiz-adv-x="811" d="M90 500v49l277 299q92 98 135 164.5t43 134.5q0 31 -10.5 62.5t-32 57t-54 42t-75.5 16.5q-53 0 -91 -20.5t-66 -50t-45 -61.5t-28 -54q-10 2 -22 6t-23 6q2 23 13.5 68t43 91t90 79.5t156.5 33.5q76 0 130.5 -23.5t89 -60t52 -84t17.5 -94.5q0 -49 -15.5 -93t-40 -83 t-54 -73.5t-60.5 -67.5l-229 -248h446v-96h-647z" />
<glyph unicode="&#xb3;" horiz-adv-x="811" d="M45 743l43 15q12 -18 32.5 -49t53.5 -61t80 -50t108 -20q92 0 152.5 52t60.5 132q0 51 -27.5 92t-76.5 64q-35 14 -75 16t-95 2v92h43q12 0 45 2t66 19q37 18 58.5 53t21.5 78q0 66 -48.5 104.5t-115.5 38.5q-31 0 -67 -9t-75 -36q-51 -35 -75.5 -73t-38.5 -66l-47 10 q23 133 103.5 203.5t217.5 70.5q68 0 121 -18.5t89 -50t55.5 -72.5t19.5 -86q0 -74 -42 -127t-110 -82q70 -16 109 -48t57.5 -67.5t22.5 -68.5t4 -47q0 -59 -23.5 -109.5t-68.5 -87.5t-109.5 -57.5t-144.5 -20.5q-104 0 -166 32t-95.5 75t-46 87t-16.5 68z" />
<glyph unicode="&#xb4;" horiz-adv-x="598" d="M84 1202l211 309h219l-381 -348z" />
<glyph unicode="&#xb6;" horiz-adv-x="1366" d="M184 1049q0 49 16.5 117.5t64.5 131t136 105.5t234 43h455v-90h-70v-1698h-94v1698h-322v-1698h-94v1018q-98 12 -161.5 53t-99.5 95.5t-50.5 113.5t-14.5 111z" />
<glyph unicode="&#xb7;" horiz-adv-x="468" d="M129 553q0 45 29.5 74.5t77.5 29.5q35 0 67.5 -24.5t36.5 -77.5q2 -55 -32 -82t-70 -27q-47 0 -78 31t-31 76z" />
<glyph unicode="&#xb8;" horiz-adv-x="598" d="M84 -403l14 67q31 -6 59.5 -10t59.5 -4q66 0 97.5 27.5t31.5 62.5q0 27 -13.5 44t-33.5 25.5t-46 11.5t-52 3v186h125v-90q57 -2 94 -19.5t57.5 -41t27.5 -51t7 -48.5q0 -78 -65.5 -131t-194.5 -53q-16 0 -63.5 3t-104.5 18z" />
<glyph unicode="&#xb9;" horiz-adv-x="811" d="M197 1208l295 197h45v-905h-138v731l-184 -64q-8 20 -18 41z" />
<glyph unicode="&#xba;" horiz-adv-x="768" d="M57 1098q0 98 27 168.5t73 117t106.5 68t127.5 21.5q74 0 133.5 -26t100.5 -73t63.5 -111.5t22.5 -142.5q0 -109 -30 -181.5t-77 -115.5t-106.5 -60.5t-118.5 -17.5q-57 0 -114.5 18.5t-103.5 60.5t-75 108.5t-29 165.5zM197 1114q0 -16 3 -62t20.5 -95.5t55 -88.5 t109.5 -39q10 0 28.5 2.5t39 11.5t42 26.5t40.5 50.5q16 33 27 80t11 110q0 55 -11 105.5t-33.5 89t-58.5 61.5t-85 23q-53 0 -89 -24t-58.5 -62.5t-31.5 -88t-9 -100.5z" />
<glyph unicode="&#xbb;" horiz-adv-x="811" d="M35 307l237 238l-237 239h170l237 -239l-237 -238h-170zM373 307l233 238l-233 239h164l239 -239l-239 -238h-164z" />
<glyph unicode="&#xbc;" horiz-adv-x="1878" d="M111 1208l295 197h45v-905h-138v729l-184 -62q-8 20 -18 41zM479 0l602 1405h121l-600 -1405h-123zM1036 244v41l441 618h137v-565h127v-94h-127v-244h-131v244h-447zM1204 338h279l2 403z" />
<glyph unicode="&#xbd;" horiz-adv-x="1878" d="M111 1208l295 197h45v-905h-138v731l-184 -64q-8 20 -18 41zM446 0l601 1405h122l-600 -1405h-123zM1071 0v49l277 299q92 98 135 165t43 134q0 31 -10.5 62.5t-32 57.5t-54 42t-75.5 16q-53 0 -91 -20.5t-66 -50t-45 -61t-28 -54.5q-10 2 -23.5 6t-23.5 6q4 23 15.5 68 t43 91t90 80t156.5 34q76 0 130.5 -23.5t89 -60.5t52 -84t17.5 -94q0 -49 -15.5 -93.5t-40 -83.5t-54 -73.5t-60.5 -67.5l-229 -248h446v-96h-647z" />
<glyph unicode="&#xbe;" horiz-adv-x="1878" d="M45 743l43 15q12 -18 32.5 -49t53.5 -61t80 -50t108 -20q92 0 152.5 52t60.5 132q0 51 -27.5 92t-76.5 64q-35 14 -75 16t-95 2v92h43q12 0 45 2t66 19q37 18 58.5 53t21.5 78q0 66 -48.5 104.5t-115.5 38.5q-31 0 -67 -9t-75 -36q-51 -35 -75.5 -73t-38.5 -66l-47 10 q23 133 103.5 203.5t217.5 70.5q68 0 121 -18.5t89 -50t55.5 -72.5t19.5 -86q0 -74 -42 -127t-110 -82q70 -16 109 -48t57.5 -67.5t22.5 -68.5t4 -47q0 -59 -23.5 -109.5t-68.5 -87.5t-109.5 -57.5t-144.5 -20.5q-104 0 -166 32t-95.5 75t-46 87t-16.5 68zM616 0l603 1405 h120l-600 -1405h-123zM1120 244v41l439 620h139v-567h127v-94h-127v-244h-131v244h-447zM1288 338h279l2 403z" />
<glyph unicode="&#xbf;" horiz-adv-x="1024" d="M70 305q0 66 16 114t44 87t64.5 71.5t77.5 65.5q55 45 95.5 84t67 85t42 105.5t23.5 143.5h59q4 -23 13.5 -76t9.5 -111q0 -61 -12.5 -107t-34 -84t-51 -68.5t-62.5 -59.5q-37 -33 -64.5 -59.5t-47 -52t-30 -55.5t-10.5 -66q0 -92 68 -154t178 -62q131 0 216 79t142 212 l56 -10q-2 -25 -8.5 -66.5t-22.5 -89t-45 -96.5t-77 -88t-118.5 -63.5t-171.5 -24.5q-106 0 -184 28.5t-130 77t-77.5 111t-25.5 129.5zM422 1368q-2 51 29.5 80t74.5 29q47 0 77 -30t30 -77q0 -41 -27.5 -72.5t-79.5 -31.5q-41 0 -71.5 25.5t-32.5 76.5z" />
<glyph unicode="&#xc0;" horiz-adv-x="1409" d="M0 0l678 1446h57l672 -1446h-211l-186 412h-648l-186 -412h-176zM375 1876h219l213 -313l-45 -41zM420 537h532l-219 485q-23 47 -31 77.5t-12 53.5q-4 -16 -7 -29.5t-7 -26t-11.5 -28.5t-17.5 -39z" />
<glyph unicode="&#xc1;" horiz-adv-x="1409" d="M0 0l678 1446h57l672 -1446h-211l-186 412h-648l-186 -412h-176zM420 537h532l-219 485q-23 47 -31 77.5t-12 53.5q-4 -16 -7 -29.5t-7 -26t-11.5 -28.5t-17.5 -39zM596 1565l211 309h219l-381 -350z" />
<glyph unicode="&#xc2;" horiz-adv-x="1409" d="M0 0l678 1446h57l672 -1446h-211l-186 412h-648l-186 -412h-176zM412 1559l215 319h155l215 -319l-47 -43l-243 233l-248 -233zM420 537h532l-219 485q-23 47 -31 77.5t-12 53.5q-4 -16 -7 -29.5t-7 -26t-11.5 -28.5t-17.5 -39z" />
<glyph unicode="&#xc3;" horiz-adv-x="1409" d="M0 0l678 1446h57l672 -1446h-211l-186 412h-648l-186 -412h-176zM383 1638q8 16 22.5 41t37 46.5t56 37t83.5 15.5q29 0 53 -5.5t76 -15.5q41 -10 65.5 -17t39.5 -10.5t24.5 -4.5t21.5 -1q47 0 75 17.5t44 34.5l41 -39q-8 -16 -22.5 -39t-38 -45.5t-57.5 -38t-83 -15.5 q-33 0 -63.5 7.5t-59.5 13.5q-63 20 -93 27.5t-62 7.5q-49 0 -74 -16.5t-41 -32.5zM420 537h532l-219 485q-23 47 -31 77.5t-12 53.5q-4 -16 -7 -29.5t-7 -26t-11.5 -28.5t-17.5 -39z" />
<glyph unicode="&#xc4;" horiz-adv-x="1409" d="M0 0l678 1446h57l672 -1446h-211l-186 412h-648l-186 -412h-176zM408 1704q0 45 30.5 78t79.5 33q41 0 74 -28t35 -79q2 -43 -26 -79t-83 -36q-53 0 -81.5 33t-28.5 78zM420 537h532l-219 485q-23 47 -31 77.5t-12 53.5q-4 -16 -7 -29.5t-7 -26t-11.5 -28.5t-17.5 -39z M788 1704q0 45 31 78t80 33q41 0 74 -28t35 -79q2 -43 -26 -79t-83 -36q-53 0 -82 33t-29 78z" />
<glyph unicode="&#xc5;" horiz-adv-x="1409" d="M0 0l678 1446h57l672 -1446h-211l-186 412h-648l-186 -412h-176zM420 537h532l-219 485q-23 47 -31 77.5t-12 53.5q-4 -16 -7 -29.5t-7 -26t-11.5 -28.5t-17.5 -39zM551 1683q0 68 45 113t111 45q59 0 105 -41.5t46 -113.5q0 -70 -45 -111t-108 -41q-66 0 -110 42 t-44 107zM623 1688q0 -35 23.5 -58.5t60.5 -23.5q41 0 62 25.5t19 58.5q0 33 -22.5 57.5t-58.5 24.5q-33 0 -58.5 -21.5t-25.5 -62.5z" />
<glyph unicode="&#xc6;" horiz-adv-x="1921" d="M0 0l846 1448h973v-123h-682v-504h594v-127h-594v-567h768v-127h-967v418h-516l-242 -418h-180zM492 541h446v794z" />
<glyph unicode="&#xc7;" horiz-adv-x="1366" d="M88 717q0 154 45 293t135 245.5t224.5 170t312.5 63.5q76 0 160 -17.5t158.5 -61.5t131 -117.5t78.5 -186.5q-10 -4 -26.5 -12.5t-26.5 -12.5q-18 29 -51 74t-86 88t-132 74t-188 31q-133 0 -231 -48.5t-164 -132.5t-98.5 -197.5t-32.5 -246.5q0 -150 42 -265.5 t113.5 -195.5t168 -122t204.5 -42q106 0 187.5 33t137.5 77t90 89t50 68q12 -4 28.5 -11.5t27.5 -11.5q-43 -137 -116 -213t-152 -114t-152.5 -46t-116.5 -10q0 -8 1 -19.5t1 -19.5q96 -8 143 -57t47 -121q0 -84 -67.5 -142.5t-210.5 -58.5q-61 0 -101 9.5t-71 19.5l12 74 q51 -12 88 -14.5t49 -2.5q51 0 90 21.5t39 75.5q0 33 -15 52t-37.5 29.5t-48.5 13.5t-46 5v141q-147 16 -259 85t-186.5 171.5t-111.5 230.5t-37 265z" />
<glyph unicode="&#xc8;" d="M160 0v1448h884v-127h-688v-504h609v-123h-609v-569h783v-125h-979zM246 1876h219l213 -313l-45 -41z" />
<glyph unicode="&#xc9;" d="M160 0v1448h884v-127h-688v-504h609v-123h-609v-569h783v-125h-979zM510 1565l211 309h219l-381 -350z" />
<glyph unicode="&#xca;" d="M160 0v1448h884v-127h-688v-504h609v-123h-609v-569h783v-125h-979zM326 1559l215 319h155l215 -319l-47 -43l-243 233l-248 -233z" />
<glyph unicode="&#xcb;" d="M160 0v1448h884v-127h-688v-504h609v-123h-609v-569h783v-125h-979zM317 1704q0 45 31 78t80 33q41 0 74 -28t35 -79q2 -43 -26 -79t-83 -36q-53 0 -82 33t-29 78zM698 1704q0 45 31 78t80 33q41 0 74 -28t35 -79q2 -43 -26 -79t-83 -36q-53 0 -82 33t-29 78z" />
<glyph unicode="&#xcc;" horiz-adv-x="512" d="M-74 1876h219l213 -313l-45 -41zM158 0v1446h196v-1446h-196z" />
<glyph unicode="&#xcd;" horiz-adv-x="512" d="M147 1565l211 309h220l-381 -350zM158 0v1446h196v-1446h-196z" />
<glyph unicode="&#xce;" horiz-adv-x="512" d="M-37 1559l215 319h156l215 -319l-47 -43l-244 233l-248 -233zM158 0v1446h196v-1446h-196z" />
<glyph unicode="&#xcf;" horiz-adv-x="512" d="M-45 1704q0 45 30.5 78t80.5 33q41 0 73.5 -28t34.5 -79q2 -43 -25.5 -79t-82.5 -36q-53 0 -82 33t-29 78zM158 0v1446h196v-1446h-196zM336 1704q0 45 30.5 78t79.5 33q41 0 74 -28t35 -79q2 -43 -25.5 -79t-83.5 -36q-53 0 -81.5 33t-28.5 78z" />
<glyph unicode="&#xd0;" horiz-adv-x="1492" d="M0 709v110h160v627h481q154 0 286 -32t244 -130q100 -86 167 -228.5t67 -328.5q0 -178 -61.5 -313t-151.5 -221q-113 -109 -256 -151t-336 -42h-440v709h-160zM358 123h195q70 0 127 4t106.5 14.5t92.5 28.5t84 47q33 23 72.5 62.5t75.5 99t60.5 142.5t24.5 192 q0 141 -40 247.5t-93 176.5q-55 70 -119.5 106.5t-132.5 54t-135.5 20.5t-128.5 3h-189v-502h408v-110h-408v-586z" />
<glyph unicode="&#xd1;" horiz-adv-x="1536" d="M160 0v1446h168l751 -897q29 -35 47.5 -57.5t33 -40t25.5 -35t27 -41.5l-10 1071h174v-1464h-61l-866 1030q-33 39 -63 78.5t-56 80.5v-1171h-170zM446 1638q8 16 22.5 41t37 46.5t56.5 37t83 15.5q29 0 53.5 -5.5t75.5 -15.5q41 -10 65.5 -17t40 -10.5t24.5 -4.5t22 -1 q47 0 74.5 17.5t43.5 34.5l41 -39q-8 -16 -22 -39t-38 -45.5t-57.5 -38t-82.5 -15.5q-33 0 -63.5 7.5t-59.5 13.5q-63 20 -93 27.5t-63 7.5q-49 0 -73.5 -16.5t-40.5 -32.5z" />
<glyph unicode="&#xd2;" horiz-adv-x="1579" d="M86 719q0 154 44 293t133 245.5t220 169t308 62.5q178 0 310 -65.5t219 -173t129 -244t42 -277.5q0 -166 -48 -307t-138.5 -244.5t-219.5 -162t-292 -58.5q-156 0 -286 54.5t-223.5 154.5t-145.5 240.5t-52 312.5zM295 725q0 -156 40 -275.5t107.5 -200.5t157.5 -123 t193 -42q117 0 208 49t153.5 136t95 205t32.5 257q0 119 -29.5 232.5t-91 201.5t-154 142.5t-216.5 54.5q-115 0 -206 -48t-155.5 -134t-99.5 -203t-35 -252zM459 1876h219l213 -313l-45 -41z" />
<glyph unicode="&#xd3;" horiz-adv-x="1579" d="M86 719q0 154 44 293t133 245.5t220 169t308 62.5q178 0 310 -65.5t219 -173t129 -244t42 -277.5q0 -166 -48 -307t-138.5 -244.5t-219.5 -162t-292 -58.5q-156 0 -286 54.5t-223.5 154.5t-145.5 240.5t-52 312.5zM295 725q0 -156 40 -275.5t107.5 -200.5t157.5 -123 t193 -42q117 0 208 49t153.5 136t95 205t32.5 257q0 119 -29.5 232.5t-91 201.5t-154 142.5t-216.5 54.5q-115 0 -206 -48t-155.5 -134t-99.5 -203t-35 -252zM680 1565l211 309h219l-381 -350z" />
<glyph unicode="&#xd4;" horiz-adv-x="1579" d="M86 719q0 154 44 293t133 245.5t220 169t308 62.5q178 0 310 -65.5t219 -173t129 -244t42 -277.5q0 -166 -48 -307t-138.5 -244.5t-219.5 -162t-292 -58.5q-156 0 -286 54.5t-223.5 154.5t-145.5 240.5t-52 312.5zM295 725q0 -156 40 -275.5t107.5 -200.5t157.5 -123 t193 -42q117 0 208 49t153.5 136t95 205t32.5 257q0 119 -29.5 232.5t-91 201.5t-154 142.5t-216.5 54.5q-115 0 -206 -48t-155.5 -134t-99.5 -203t-35 -252zM496 1559l215 319h155l215 -319l-47 -43l-243 233l-248 -233z" />
<glyph unicode="&#xd5;" horiz-adv-x="1579" d="M86 719q0 154 44 293t133 245.5t220 169t308 62.5q178 0 310 -65.5t219 -173t129 -244t42 -277.5q0 -166 -48 -307t-138.5 -244.5t-219.5 -162t-292 -58.5q-156 0 -286 54.5t-223.5 154.5t-145.5 240.5t-52 312.5zM295 725q0 -156 40 -275.5t107.5 -200.5t157.5 -123 t193 -42q117 0 208 49t153.5 136t95 205t32.5 257q0 119 -29.5 232.5t-91 201.5t-154 142.5t-216.5 54.5q-115 0 -206 -48t-155.5 -134t-99.5 -203t-35 -252zM467 1638q8 16 22.5 41t37 46.5t56 37t83.5 15.5q29 0 53 -5.5t76 -15.5q41 -10 65.5 -17t39.5 -10.5t24.5 -4.5 t21.5 -1q47 0 75 17.5t44 34.5l41 -39q-8 -16 -22.5 -39t-38 -45.5t-57.5 -38t-83 -15.5q-33 0 -63.5 7.5t-59.5 13.5q-63 20 -93 27.5t-62 7.5q-49 0 -74 -16.5t-41 -32.5z" />
<glyph unicode="&#xd6;" horiz-adv-x="1579" d="M86 719q0 154 44 293t133 245.5t220 169t308 62.5q178 0 310 -65.5t219 -173t129 -244t42 -277.5q0 -166 -48 -307t-138.5 -244.5t-219.5 -162t-292 -58.5q-156 0 -286 54.5t-223.5 154.5t-145.5 240.5t-52 312.5zM295 725q0 -156 40 -275.5t107.5 -200.5t157.5 -123 t193 -42q117 0 208 49t153.5 136t95 205t32.5 257q0 119 -29.5 232.5t-91 201.5t-154 142.5t-216.5 54.5q-115 0 -206 -48t-155.5 -134t-99.5 -203t-35 -252zM489 1704q0 45 31 78t80 33q41 0 74 -28t35 -79q2 -43 -26 -79t-83 -36q-53 0 -82 33t-29 78zM870 1704 q0 45 31 78t80 33q41 0 74 -28t35 -79q2 -43 -26 -79t-83 -36q-53 0 -82 33t-29 78z" />
<glyph unicode="&#xd7;" horiz-adv-x="1366" d="M172 170l424 426l-424 422l86 86l424 -424l426 424l84 -86l-424 -422l424 -426l-84 -84l-426 424l-424 -424z" />
<glyph unicode="&#xd8;" horiz-adv-x="1579" d="M51 -16l201 221q-47 55 -79 118.5t-50.5 130t-26.5 131t-8 120.5q0 180 53.5 325.5t147.5 247.5t222 156.5t275 54.5q96 0 172 -17.5t134.5 -44t102.5 -58.5t75 -58l176 192l59 -57l-180 -199q18 -23 47 -63.5t54.5 -104t45 -151.5t19.5 -205q0 -182 -55.5 -324.5 t-150.5 -240t-223 -148.5t-271 -51q-49 0 -108.5 8t-123 28.5t-128 55.5t-122.5 90l-198 -213zM293 709q0 -78 8 -136.5t21.5 -103.5t28 -78t26.5 -55l780 850q-16 18 -45 49t-73 59.5t-106.5 49t-144.5 20.5q-113 0 -203.5 -47t-155 -133t-100.5 -207t-36 -268zM420 266 q14 -20 43 -51t75 -60.5t109.5 -51t149.5 -21.5q129 0 221 54t151.5 143.5t88 205t28.5 238.5q0 100 -19.5 198.5t-66.5 188.5z" />
<glyph unicode="&#xd9;" horiz-adv-x="1492" d="M147 442v1006h197v-918q0 -117 11.5 -183t39.5 -109q37 -59 115 -100.5t182 -41.5q70 0 135.5 20.5t123 53.5t104.5 73t82 79v1126h196v-1448h-196v215q-109 -145 -232 -200.5t-266 -55.5q-129 0 -225.5 39t-155.5 100q-66 66 -88.5 148t-22.5 196zM418 1876h219 l213 -313l-45 -41z" />
<glyph unicode="&#xda;" horiz-adv-x="1492" d="M147 442v1006h197v-918q0 -117 11.5 -183t39.5 -109q37 -59 115 -100.5t182 -41.5q70 0 135.5 20.5t123 53.5t104.5 73t82 79v1126h196v-1448h-196v215q-109 -145 -232 -200.5t-266 -55.5q-129 0 -225.5 39t-155.5 100q-66 66 -88.5 148t-22.5 196zM639 1565l211 309h219 l-381 -350z" />
<glyph unicode="&#xdb;" horiz-adv-x="1492" d="M147 442v1006h197v-918q0 -117 11.5 -183t39.5 -109q37 -59 115 -100.5t182 -41.5q70 0 135.5 20.5t123 53.5t104.5 73t82 79v1126h196v-1448h-196v215q-109 -145 -232 -200.5t-266 -55.5q-129 0 -225.5 39t-155.5 100q-66 66 -88.5 148t-22.5 196zM455 1559l215 319h155 l215 -319l-47 -43l-243 233l-248 -233z" />
<glyph unicode="&#xdc;" horiz-adv-x="1492" d="M147 442v1006h197v-918q0 -117 11.5 -183t39.5 -109q37 -59 115 -100.5t182 -41.5q70 0 135.5 20.5t123 53.5t104.5 73t82 79v1126h196v-1448h-196v215q-109 -145 -232 -200.5t-266 -55.5q-129 0 -225.5 39t-155.5 100q-66 66 -88.5 148t-22.5 196zM446 1704q0 45 31 78 t80 33q41 0 74 -28t35 -79q2 -43 -26 -79t-83 -36q-53 0 -82 33t-29 78zM827 1704q0 45 31 78t80 33q41 0 74 -28t35 -79q2 -43 -26 -79t-83 -36q-53 0 -82 33t-29 78z" />
<glyph unicode="&#xdd;" horiz-adv-x="1280" d="M-20 1446h210l351 -860q27 -68 44 -113t27.5 -76.5t15.5 -52t9 -35.5q6 20 12 36.5t14.5 36t19.5 47.5t30 71l415 946h172l-665 -1516q-29 -68 -58.5 -117t-62.5 -85.5t-72 -63t-84 -47.5q-94 -41 -181 -47t-165 -4v67q115 6 194 40t134 88.5t94 123t76 146.5l31 63z M530 1565l211 309h220l-381 -350z" />
<glyph unicode="&#xde;" d="M160 0v1163v283h198v-283h254q104 0 178 -7t136 -36q35 -16 69.5 -41.5t63 -64.5t47 -92.5t18.5 -122.5q0 -88 -32.5 -166t-104.5 -137.5t-183.5 -94t-271.5 -34.5h-28t-29.5 1t-44.5 2t-72 3v-373h-198zM358 451q43 -2 123 0t172 26q141 39 204 123t63 178 q0 53 -17.5 97.5t-42.5 74.5q-16 18 -37.5 36t-53.5 30t-79 19t-112 7h-220v-591z" />
<glyph unicode="&#xdf;" d="M141 0v977q0 113 20.5 204t92.5 167q57 61 147.5 101t210.5 40q88 0 156 -23.5t115 -63.5t71.5 -93.5t24.5 -110.5q0 -68 -29.5 -124t-76 -101t-103.5 -80t-115 -57q121 -33 205 -87.5t136.5 -121t75 -141t22.5 -144.5q0 -94 -33 -166t-85 -120t-118.5 -72.5 t-134.5 -24.5q-74 0 -126 20.5t-88 48t-55.5 56.5t-27.5 43l39 39q47 -43 96 -67.5t109 -24.5q106 0 170.5 77.5t64.5 202.5q0 76 -29.5 155t-87.5 138q-35 37 -75.5 61.5t-80.5 41t-75 25.5t-57 16v59q88 27 142 69t85 88t42 89t11 71q0 37 -12 74t-36.5 66.5t-62.5 48 t-89 18.5q-74 0 -133.5 -41t-88.5 -123q-20 -57 -24 -136t-4 -175v-899h-189z" />
<glyph unicode="&#xe0;" horiz-adv-x="1067" d="M66 285q0 66 26.5 131t81.5 118.5t142 86t210 32.5q23 0 79.5 -4t152.5 -24q-2 66 -7.5 116t-39.5 101q-6 8 -20.5 25.5t-39 34t-62.5 28.5t-91 12q-106 0 -184 -47t-136 -139q-10 4 -26.5 9t-26.5 9q84 311 416 311q16 0 53 -2t83 -14t94 -40t89 -79q57 -74 67.5 -154.5 t10.5 -168.5v-627h-180v123q-41 -57 -86 -90t-88 -49.5t-82 -20.5t-68 -4q-92 0 -160.5 26.5t-114.5 71.5t-69.5 104.5t-23.5 123.5zM217 1513h219l213 -313l-45 -39zM262 297q0 -51 19.5 -91t51.5 -67.5t74 -42t87 -14.5q51 0 95 15.5t77.5 37t57.5 43t34 33.5v293 q-27 6 -82 17t-127 11q-80 0 -135.5 -22.5t-89 -57t-48 -76.5t-14.5 -79z" />
<glyph unicode="&#xe1;" horiz-adv-x="1067" d="M66 285q0 66 26.5 131t81.5 118.5t142 86t210 32.5q23 0 79.5 -4t152.5 -24q-2 66 -7.5 116t-39.5 101q-6 8 -20.5 25.5t-39 34t-62.5 28.5t-91 12q-106 0 -184 -47t-136 -139q-10 4 -26.5 9t-26.5 9q84 311 416 311q16 0 53 -2t83 -14t94 -40t89 -79q57 -74 67.5 -154.5 t10.5 -168.5v-627h-180v123q-41 -57 -86 -90t-88 -49.5t-82 -20.5t-68 -4q-92 0 -160.5 26.5t-114.5 71.5t-69.5 104.5t-23.5 123.5zM262 297q0 -51 19.5 -91t51.5 -67.5t74 -42t87 -14.5q51 0 95 15.5t77.5 37t57.5 43t34 33.5v293q-27 6 -82 17t-127 11 q-80 0 -135.5 -22.5t-89 -57t-48 -76.5t-14.5 -79zM438 1202l211 309h219l-381 -348z" />
<glyph unicode="&#xe2;" horiz-adv-x="1067" d="M66 285q0 66 26.5 131t81.5 118.5t142 86t210 32.5q23 0 79.5 -4t152.5 -24q-2 66 -7.5 116t-39.5 101q-6 8 -20.5 25.5t-39 34t-62.5 28.5t-91 12q-106 0 -184 -47t-136 -139q-10 4 -26.5 9t-26.5 9q84 311 416 311q16 0 53 -2t83 -14t94 -40t89 -79q57 -74 67.5 -154.5 t10.5 -168.5v-627h-180v123q-41 -57 -86 -90t-88 -49.5t-82 -20.5t-68 -4q-92 0 -160.5 26.5t-114.5 71.5t-69.5 104.5t-23.5 123.5zM254 1198l215 320h156l215 -320l-47 -43l-244 234l-248 -234zM262 297q0 -51 19.5 -91t51.5 -67.5t74 -42t87 -14.5q51 0 95 15.5t77.5 37 t57.5 43t34 33.5v293q-27 6 -82 17t-127 11q-80 0 -135.5 -22.5t-89 -57t-48 -76.5t-14.5 -79z" />
<glyph unicode="&#xe3;" horiz-adv-x="1067" d="M66 285q0 66 26.5 131t81.5 118.5t142 86t210 32.5q23 0 79.5 -4t152.5 -24q-2 66 -7.5 116t-39.5 101q-6 8 -20.5 25.5t-39 34t-62.5 28.5t-91 12q-106 0 -184 -47t-136 -139q-10 4 -26.5 9t-26.5 9q84 311 416 311q16 0 53 -2t83 -14t94 -40t89 -79q57 -74 67.5 -154.5 t10.5 -168.5v-627h-180v123q-41 -57 -86 -90t-88 -49.5t-82 -20.5t-68 -4q-92 0 -160.5 26.5t-114.5 71.5t-69.5 104.5t-23.5 123.5zM226 1278q8 16 22 40.5t36.5 46t56.5 37t83 15.5q31 0 64.5 -6t64.5 -16q43 -10 68.5 -17.5t41 -10.5t25 -4t17.5 -1q47 0 73.5 17.5 t45.5 33.5q8 -8 20 -19.5t20 -21.5q-6 -12 -20 -35.5t-37.5 -45t-58.5 -38t-84 -16.5q-10 0 -38 3t-85 20q-41 12 -64.5 18t-39 10t-26.5 5t-26 1q-47 0 -71.5 -16t-42.5 -33zM262 297q0 -51 19.5 -91t51.5 -67.5t74 -42t87 -14.5q51 0 95 15.5t77.5 37t57.5 43t34 33.5v293 q-27 6 -82 17t-127 11q-80 0 -135.5 -22.5t-89 -57t-48 -76.5t-14.5 -79z" />
<glyph unicode="&#xe4;" horiz-adv-x="1067" d="M66 285q0 66 26.5 131t81.5 118.5t142 86t210 32.5q23 0 79.5 -4t152.5 -24q-2 66 -7.5 116t-39.5 101q-6 8 -20.5 25.5t-39 34t-62.5 28.5t-91 12q-106 0 -184 -47t-136 -139q-10 4 -26.5 9t-26.5 9q84 311 416 311q16 0 53 -2t83 -14t94 -40t89 -79q57 -74 67.5 -154.5 t10.5 -168.5v-627h-180v123q-41 -57 -86 -90t-88 -49.5t-82 -20.5t-68 -4q-92 0 -160.5 26.5t-114.5 71.5t-69.5 104.5t-23.5 123.5zM236 1341q0 45 31.5 78t81.5 33q41 0 73.5 -27.5t34.5 -78.5q2 -43 -25.5 -79t-82.5 -36q-53 0 -83 32.5t-30 77.5zM262 297 q0 -51 19.5 -91t51.5 -67.5t74 -42t87 -14.5q51 0 95 15.5t77.5 37t57.5 43t34 33.5v293q-27 6 -82 17t-127 11q-80 0 -135.5 -22.5t-89 -57t-48 -76.5t-14.5 -79zM619 1341q0 45 30.5 78t80.5 33q41 0 73.5 -27.5t34.5 -78.5q2 -43 -25.5 -79t-82.5 -36q-53 0 -82 32.5 t-29 77.5z" />
<glyph unicode="&#xe5;" horiz-adv-x="1067" d="M66 285q0 66 26.5 131t81.5 118.5t142 86t210 32.5q23 0 79.5 -4t152.5 -24q-2 66 -7.5 116t-39.5 101q-6 8 -20.5 25.5t-39 34t-62.5 28.5t-91 12q-106 0 -184 -47t-136 -139q-10 4 -26.5 9t-26.5 9q84 311 416 311q16 0 53 -2t83 -14t94 -40t89 -79q57 -74 67.5 -154.5 t10.5 -168.5v-627h-180v123q-41 -57 -86 -90t-88 -49.5t-82 -20.5t-68 -4q-92 0 -160.5 26.5t-114.5 71.5t-69.5 104.5t-23.5 123.5zM262 297q0 -51 19.5 -91t51.5 -67.5t74 -42t87 -14.5q51 0 95 15.5t77.5 37t57.5 43t34 33.5v293q-27 6 -82 17t-127 11 q-80 0 -135.5 -22.5t-89 -57t-48 -76.5t-14.5 -79zM383 1323q0 68 45.5 113t110.5 45q59 0 105.5 -42t46.5 -114t-45.5 -113t-108.5 -41q-66 0 -110 42t-44 110zM455 1327q0 -37 23.5 -60.5t60.5 -23.5q41 0 62.5 26.5t19.5 59.5q0 33 -22.5 57.5t-59.5 24.5 q-33 0 -58.5 -22.5t-25.5 -61.5z" />
<glyph unicode="&#xe6;" horiz-adv-x="1792" d="M66 285q0 18 4 51t18 71.5t42 78.5t77 74t119.5 54.5t173.5 20.5h260q-4 57 -11.5 106.5t-41.5 98.5q-25 35 -55.5 55t-61.5 31.5t-58.5 14.5t-46.5 3q-29 0 -65.5 -6t-77.5 -25.5t-84 -56.5t-84 -96q-10 4 -24.5 10t-24.5 10q18 90 63 148.5t103.5 93.5t123 49t124.5 14 q113 0 198 -43q37 -16 60.5 -34.5t40 -37t26.5 -37t19 -32.5q14 18 42.5 49t75 60.5t112 52t151.5 22.5q106 0 195 -38.5t152.5 -111.5t96.5 -178.5t27 -236.5h-779q0 -18 2.5 -49t9.5 -66.5t21.5 -76.5t40.5 -80q47 -72 123 -113t162 -41q78 0 137 25.5t102 60.5t70 71 t43 58q10 -4 23.5 -11t23.5 -11q-16 -51 -45 -114.5t-106 -123.5q-66 -51 -141.5 -71.5t-149.5 -20.5q-86 0 -153.5 22.5t-110.5 47.5q-84 47 -121 100t-56 90q-25 -43 -57.5 -88t-79.5 -84t-111.5 -63.5t-150.5 -24.5q-80 0 -147.5 24.5t-116.5 68.5t-75.5 103.5 t-26.5 131.5zM262 295q0 -94 61.5 -154.5t153.5 -60.5q18 0 50 5t74 25.5t92 63.5t106 119q-18 47 -28.5 95t-12.5 132h-205q-31 0 -80 -6t-96 -28.5t-81 -67.5t-34 -123zM956 635h594q-10 119 -52 184.5t-91 95t-91 34.5t-48 5q-41 0 -89.5 -13t-93.5 -49t-79.5 -98.5 t-49.5 -158.5z" />
<glyph unicode="&#xe7;" horiz-adv-x="1067" d="M94 506q0 123 36 228.5t101.5 184t160.5 122.5t216 44q35 0 97.5 -8t128 -42t120 -100.5t74.5 -182.5l-28.5 -9.5l-28.5 -9.5q-16 27 -40 66t-63 72.5t-94 58t-133 24.5q-70 0 -133.5 -27.5t-111.5 -81.5t-76.5 -134t-28.5 -185q0 -109 28.5 -189.5t76.5 -135t109.5 -81 t129.5 -26.5q37 0 81 9.5t89 34t88 67.5t78 110q12 -4 28.5 -9t28.5 -9q-23 -78 -54.5 -137.5t-79.5 -100.5t-113.5 -66.5t-153.5 -33.5v-39q57 -2 94 -19.5t57.5 -41t28.5 -51t8 -48.5q0 -80 -66.5 -132t-195.5 -52q-16 0 -62.5 3t-105.5 18l14 67q31 -6 58.5 -10t60.5 -4 q66 0 98.5 27.5t32.5 62.5q0 27 -13 44t-34.5 25.5t-47.5 11.5t-52 3v137q-98 18 -174 65.5t-128.5 118t-79 162.5t-26.5 199z" />
<glyph unicode="&#xe8;" d="M94 516q0 135 42 241.5t112.5 179.5t166 110.5t199.5 37.5q100 0 182.5 -31.5t143.5 -86.5t93 -122t45.5 -130.5t14.5 -115.5t1 -79h-805q2 -23 5 -55.5t12 -70.5t25.5 -80t47.5 -81q39 -51 84 -78.5t85 -40t70.5 -14.5t43.5 -2q82 0 144 26t106 59.5t71 69.5t41 58 q10 -4 25.5 -10t25.5 -10q-8 -29 -29.5 -84t-72.5 -110.5t-136 -97.5t-221 -42q-104 0 -198 35t-166 104.5t-115 175t-43 244.5zM279 1513h219l213 -313l-45 -39zM291 633h620q-6 98 -38.5 160.5t-78.5 99.5t-95.5 50t-88.5 13q-47 0 -98 -16t-97 -55t-80 -100.5t-44 -151.5 z" />
<glyph unicode="&#xe9;" d="M94 516q0 135 42 241.5t112.5 179.5t166 110.5t199.5 37.5q100 0 182.5 -31.5t143.5 -86.5t93 -122t45.5 -130.5t14.5 -115.5t1 -79h-805q2 -23 5 -55.5t12 -70.5t25.5 -80t47.5 -81q39 -51 84 -78.5t85 -40t70.5 -14.5t43.5 -2q82 0 144 26t106 59.5t71 69.5t41 58 q10 -4 25.5 -10t25.5 -10q-8 -29 -29.5 -84t-72.5 -110.5t-136 -97.5t-221 -42q-104 0 -198 35t-166 104.5t-115 175t-43 244.5zM291 633h620q-6 98 -38.5 160.5t-78.5 99.5t-95.5 50t-88.5 13q-47 0 -98 -16t-97 -55t-80 -100.5t-44 -151.5zM500 1202l211 309h219 l-381 -348z" />
<glyph unicode="&#xea;" d="M94 516q0 135 42 241.5t112.5 179.5t166 110.5t199.5 37.5q100 0 182.5 -31.5t143.5 -86.5t93 -122t45.5 -130.5t14.5 -115.5t1 -79h-805q2 -23 5 -55.5t12 -70.5t25.5 -80t47.5 -81q39 -51 84 -78.5t85 -40t70.5 -14.5t43.5 -2q82 0 144 26t106 59.5t71 69.5t41 58 q10 -4 25.5 -10t25.5 -10q-8 -29 -29.5 -84t-72.5 -110.5t-136 -97.5t-221 -42q-104 0 -198 35t-166 104.5t-115 175t-43 244.5zM291 633h620q-6 98 -38.5 160.5t-78.5 99.5t-95.5 50t-88.5 13q-47 0 -98 -16t-97 -55t-80 -100.5t-44 -151.5zM315 1198l215 320h156l215 -320 l-47 -43l-244 234l-248 -234z" />
<glyph unicode="&#xeb;" d="M94 516q0 135 42 241.5t112.5 179.5t166 110.5t199.5 37.5q100 0 182.5 -31.5t143.5 -86.5t93 -122t45.5 -130.5t14.5 -115.5t1 -79h-805q2 -23 5 -55.5t12 -70.5t25.5 -80t47.5 -81q39 -51 84 -78.5t85 -40t70.5 -14.5t43.5 -2q82 0 144 26t106 59.5t71 69.5t41 58 q10 -4 25.5 -10t25.5 -10q-8 -29 -29.5 -84t-72.5 -110.5t-136 -97.5t-221 -42q-104 0 -198 35t-166 104.5t-115 175t-43 244.5zM291 633h620q-6 98 -38.5 160.5t-78.5 99.5t-95.5 50t-88.5 13q-47 0 -98 -16t-97 -55t-80 -100.5t-44 -151.5zM305 1341q0 45 31.5 78t81.5 33 q41 0 73.5 -27.5t34.5 -78.5q2 -43 -25.5 -79t-82.5 -36q-53 0 -83 32.5t-30 77.5zM688 1341q0 45 30.5 78t80.5 33q41 0 73.5 -27.5t34.5 -78.5q2 -43 -25.5 -79t-82.5 -36q-53 0 -82 32.5t-29 77.5z" />
<glyph unicode="&#xec;" horiz-adv-x="468" d="M-92 1513h219l213 -313l-45 -39zM141 0v1042h187v-1042h-187z" />
<glyph unicode="&#xed;" horiz-adv-x="468" d="M127 1202l211 309h219l-381 -348zM141 0v1042h187v-1042h-187z" />
<glyph unicode="&#xee;" horiz-adv-x="468" d="M-55 1198l215 320h156l215 -320l-47 -43l-244 234l-248 -234zM141 0v1042h187v-1042h-187z" />
<glyph unicode="&#xef;" horiz-adv-x="468" d="M-65 1341q0 45 31.5 78t81.5 33q41 0 73.5 -27.5t34.5 -78.5q2 -43 -25.5 -79t-82.5 -36q-53 0 -83 32.5t-30 77.5zM141 0v1042h187v-1042h-187zM318 1341q0 45 30.5 78t80.5 33q41 0 73.5 -27.5t34.5 -78.5q2 -43 -25.5 -79t-82.5 -36q-53 0 -82 32.5t-29 77.5z" />
<glyph unicode="&#xf0;" horiz-adv-x="1193" d="M90 498q0 29 2 68.5t11.5 86.5t25.5 98.5t47 100.5q68 113 177.5 167t226.5 54q49 0 88 -8t69.5 -19.5t52 -23.5t35.5 -21q-35 72 -69.5 122.5t-63.5 84.5l-364 -121l-52 99l330 108q-51 43 -88 66.5t-72 42.5l185 59q23 -10 60.5 -33.5t94.5 -74.5l179 59l51 -98 l-146 -49q59 -74 98.5 -143.5t69.5 -159.5q55 -166 56 -371q0 -164 -38 -285t-105.5 -199.5t-161 -117.5t-203.5 -39q-78 0 -164 23.5t-164 88.5q-59 51 -93 113t-50.5 121t-20.5 112.5t-4 88.5zM289 522q0 -102 14 -167.5t27 -94.5q20 -53 50 -91t64.5 -61.5t72.5 -34 t75 -10.5q47 0 100 18.5t99.5 70t76 139.5t29.5 227q0 82 -15.5 162t-50 143.5t-92 102.5t-143.5 39t-144.5 -38t-94 -100.5t-52 -142.5t-16.5 -162z" />
<glyph unicode="&#xf1;" d="M141 0v1042h185v-145q14 20 41.5 52t70.5 62.5t102.5 52t141.5 21.5q57 0 98 -10t71 -22.5t46 -25.5t25 -19q33 -31 50 -64t25.5 -67.5t10.5 -70.5t2 -73v-733h-185v592q0 84 -2 132t-12 89q-12 43 -36.5 69.5t-54.5 42t-60.5 20.5t-53.5 5q-76 0 -151.5 -41t-128.5 -133 v-776h-185zM254 1278q8 16 22 40.5t36.5 46t56.5 37t83 15.5q31 0 64.5 -6t64.5 -16q43 -10 68.5 -17.5t41 -10.5t25 -4t17.5 -1q47 0 73.5 17.5t45.5 33.5q8 -8 20 -19.5t20 -21.5q-6 -12 -20 -35.5t-37.5 -45t-58.5 -38t-84 -16.5q-10 0 -38 3t-85 20q-41 12 -64.5 18 t-39 10t-26.5 5t-26 1q-47 0 -71.5 -16t-42.5 -33z" />
<glyph unicode="&#xf2;" horiz-adv-x="1193" d="M94 504q0 150 41 260t111.5 181t164 105.5t197.5 34.5q115 0 206 -40.5t155.5 -113.5t98.5 -174t34 -220q0 -133 -30 -233.5t-83 -168.5q-18 -25 -51 -55.5t-82 -58t-114.5 -46t-151.5 -18.5q-63 0 -152.5 20.5t-175.5 92.5q-59 51 -92 111.5t-50.5 119.5t-21.5 112.5 t-4 90.5zM270 1513h219l213 -313l-45 -39zM293 528q0 -102 14.5 -167.5t26.5 -94.5q39 -104 112.5 -150t151.5 -46q59 0 114.5 24.5t97.5 77.5t67.5 140t25.5 212q0 88 -17.5 169t-54 142.5t-94 98.5t-137.5 37q-86 0 -144.5 -38t-94 -100.5t-52 -142.5t-16.5 -162z" />
<glyph unicode="&#xf3;" horiz-adv-x="1193" d="M94 504q0 150 41 260t111.5 181t164 105.5t197.5 34.5q115 0 206 -40.5t155.5 -113.5t98.5 -174t34 -220q0 -133 -30 -233.5t-83 -168.5q-18 -25 -51 -55.5t-82 -58t-114.5 -46t-151.5 -18.5q-63 0 -152.5 20.5t-175.5 92.5q-59 51 -92 111.5t-50.5 119.5t-21.5 112.5 t-4 90.5zM293 528q0 -102 14.5 -167.5t26.5 -94.5q39 -104 112.5 -150t151.5 -46q59 0 114.5 24.5t97.5 77.5t67.5 140t25.5 212q0 88 -17.5 169t-54 142.5t-94 98.5t-137.5 37q-86 0 -144.5 -38t-94 -100.5t-52 -142.5t-16.5 -162zM492 1202l211 309h219l-381 -348z" />
<glyph unicode="&#xf4;" horiz-adv-x="1193" d="M94 504q0 150 41 260t111.5 181t164 105.5t197.5 34.5q115 0 206 -40.5t155.5 -113.5t98.5 -174t34 -220q0 -133 -30 -233.5t-83 -168.5q-18 -25 -51 -55.5t-82 -58t-114.5 -46t-151.5 -18.5q-63 0 -152.5 20.5t-175.5 92.5q-59 51 -92 111.5t-50.5 119.5t-21.5 112.5 t-4 90.5zM293 528q0 -102 14.5 -167.5t26.5 -94.5q39 -104 112.5 -150t151.5 -46q59 0 114.5 24.5t97.5 77.5t67.5 140t25.5 212q0 88 -17.5 169t-54 142.5t-94 98.5t-137.5 37q-86 0 -144.5 -38t-94 -100.5t-52 -142.5t-16.5 -162zM307 1198l215 320h156l215 -320l-47 -43 l-244 234l-248 -234z" />
<glyph unicode="&#xf5;" horiz-adv-x="1193" d="M94 504q0 150 41 260t111.5 181t164 105.5t197.5 34.5q115 0 206 -40.5t155.5 -113.5t98.5 -174t34 -220q0 -133 -30 -233.5t-83 -168.5q-18 -25 -51 -55.5t-82 -58t-114.5 -46t-151.5 -18.5q-63 0 -152.5 20.5t-175.5 92.5q-59 51 -92 111.5t-50.5 119.5t-21.5 112.5 t-4 90.5zM279 1278q8 16 22 40.5t36.5 46t56.5 37t83 15.5q31 0 64.5 -6t64.5 -16q43 -10 68.5 -17.5t41 -10.5t25 -4t17.5 -1q47 0 73.5 17.5t45.5 33.5q8 -8 20 -19.5t20 -21.5q-6 -12 -20 -35.5t-37.5 -45t-58.5 -38t-84 -16.5q-10 0 -38 3t-85 20q-41 12 -64.5 18 t-39 10t-26.5 5t-26 1q-47 0 -71.5 -16t-42.5 -33zM293 528q0 -102 14.5 -167.5t26.5 -94.5q39 -104 112.5 -150t151.5 -46q59 0 114.5 24.5t97.5 77.5t67.5 140t25.5 212q0 88 -17.5 169t-54 142.5t-94 98.5t-137.5 37q-86 0 -144.5 -38t-94 -100.5t-52 -142.5t-16.5 -162z " />
<glyph unicode="&#xf6;" horiz-adv-x="1193" d="M94 504q0 150 41 260t111.5 181t164 105.5t197.5 34.5q115 0 206 -40.5t155.5 -113.5t98.5 -174t34 -220q0 -133 -30 -233.5t-83 -168.5q-18 -25 -51 -55.5t-82 -58t-114.5 -46t-151.5 -18.5q-63 0 -152.5 20.5t-175.5 92.5q-59 51 -92 111.5t-50.5 119.5t-21.5 112.5 t-4 90.5zM293 528q0 -102 14.5 -167.5t26.5 -94.5q39 -104 112.5 -150t151.5 -46q59 0 114.5 24.5t97.5 77.5t67.5 140t25.5 212q0 88 -17.5 169t-54 142.5t-94 98.5t-137.5 37q-86 0 -144.5 -38t-94 -100.5t-52 -142.5t-16.5 -162zM297 1341q0 45 31.5 78t81.5 33 q41 0 73.5 -27.5t34.5 -78.5q2 -43 -25.5 -79t-82.5 -36q-53 0 -83 32.5t-30 77.5zM680 1341q0 45 30.5 78t80.5 33q41 0 73.5 -27.5t34.5 -78.5q2 -43 -25.5 -79t-82.5 -36q-53 0 -82 32.5t-29 77.5z" />
<glyph unicode="&#xf7;" horiz-adv-x="1366" d="M0 535v120h1364v-120h-1364zM592 328q0 35 25.5 64.5t68.5 29.5t68.5 -28.5t25.5 -65.5q0 -35 -25.5 -63.5t-68.5 -28.5q-41 0 -67.5 26.5t-26.5 65.5zM592 860q0 35 25.5 64.5t68.5 29.5t68.5 -28.5t25.5 -65.5q0 -35 -25.5 -63.5t-68.5 -28.5q-41 0 -67.5 26.5 t-26.5 65.5z" />
<glyph unicode="&#xf8;" horiz-adv-x="1193" d="M61 10l132 137q-10 16 -28 44t-33 71t-26.5 101.5t-11.5 136.5q0 129 37 236.5t103.5 185t160.5 120.5t211 43q66 0 117 -11t91 -29.5t72 -41t56 -42.5l123 129l55 -56l-123 -133q18 -31 38 -63.5t34 -75.5t23.5 -97.5t9.5 -125.5q0 -135 -38 -243t-105.5 -182.5 t-160.5 -114.5t-204 -40q-76 0 -134.5 15.5t-101.5 36t-70.5 42t-43.5 35.5l-125 -131zM293 512q0 -90 10 -139t21 -82l514 553q-12 16 -31 38.5t-47.5 42t-67.5 34t-90 14.5q-88 0 -147.5 -41t-95 -106.5t-51 -147.5t-15.5 -166zM352 207q12 -16 33 -40t49.5 -44.5 t67.5 -34.5t92 -14t113.5 22.5t107.5 85.5q55 74 72.5 163t17.5 181q0 90 -12 146.5t-23 91.5z" />
<glyph unicode="&#xf9;" d="M141 356v686h187v-608q0 -86 5 -140t23 -93q20 -41 67.5 -78t129.5 -37q8 0 35.5 2t65.5 15.5t82 41t87 80.5v817h187v-1042h-187v131q-12 -18 -35.5 -48t-61.5 -57.5t-94.5 -48t-133.5 -20.5q-96 0 -170 34t-115 83q-47 57 -59.5 125.5t-12.5 156.5zM246 1513h219 l213 -313l-45 -39z" />
<glyph unicode="&#xfa;" d="M141 356v686h187v-608q0 -86 5 -140t23 -93q20 -41 67.5 -78t129.5 -37q8 0 35.5 2t65.5 15.5t82 41t87 80.5v817h187v-1042h-187v131q-12 -18 -35.5 -48t-61.5 -57.5t-94.5 -48t-133.5 -20.5q-96 0 -170 34t-115 83q-47 57 -59.5 125.5t-12.5 156.5zM467 1202l211 309 h219l-381 -348z" />
<glyph unicode="&#xfb;" d="M141 356v686h187v-608q0 -86 5 -140t23 -93q20 -41 67.5 -78t129.5 -37q8 0 35.5 2t65.5 15.5t82 41t87 80.5v817h187v-1042h-187v131q-12 -18 -35.5 -48t-61.5 -57.5t-94.5 -48t-133.5 -20.5q-96 0 -170 34t-115 83q-47 57 -59.5 125.5t-12.5 156.5zM282 1198l215 320 h156l215 -320l-47 -43l-244 234l-248 -234z" />
<glyph unicode="&#xfc;" d="M141 356v686h187v-608q0 -86 5 -140t23 -93q20 -41 67.5 -78t129.5 -37q8 0 35.5 2t65.5 15.5t82 41t87 80.5v817h187v-1042h-187v131q-12 -18 -35.5 -48t-61.5 -57.5t-94.5 -48t-133.5 -20.5q-96 0 -170 34t-115 83q-47 57 -59.5 125.5t-12.5 156.5zM274 1341 q0 45 31.5 78t81.5 33q41 0 73.5 -27.5t34.5 -78.5q2 -43 -25.5 -79t-82.5 -36q-53 0 -83 32.5t-30 77.5zM657 1341q0 45 30.5 78t80.5 33q41 0 73.5 -27.5t34.5 -78.5q2 -43 -25.5 -79t-82.5 -36q-53 0 -82 32.5t-29 77.5z" />
<glyph unicode="&#xfd;" horiz-adv-x="980" d="M6 -365q68 20 121 52t99 84.5t90 131.5t96 195l-406 944h207l295 -727l317 727h162l-455 -1032q-47 -106 -98 -188t-112.5 -137.5t-139.5 -82t-176 -22.5v55zM383 1202l211 309h219l-381 -348z" />
<glyph unicode="&#xfe;" horiz-adv-x="1193" d="M141 -408v1854h181v-526q18 18 47.5 45.5t72.5 54.5t99.5 46t126.5 19q100 0 181 -42t137 -115.5t86 -173t30 -215.5q0 -125 -33 -230.5t-94.5 -183.5t-148.5 -122t-193 -44q-66 0 -114 13.5t-85 34t-64.5 45t-47.5 44.5v-504h-181zM322 184q51 -47 115.5 -73.5 t135.5 -26.5q35 0 91.5 14.5t109.5 60.5t91 135t38 241q0 80 -18.5 156.5t-56 136t-95 95t-135.5 35.5q-53 0 -98 -16t-80 -37.5t-60.5 -45t-37.5 -36.5v-639z" />
<glyph unicode="&#xff;" horiz-adv-x="980" d="M6 -365q68 20 121 52t99 84.5t90 131.5t96 195l-406 944h207l295 -727l317 727h162l-455 -1032q-47 -106 -98 -188t-112.5 -137.5t-139.5 -82t-176 -22.5v55zM188 1341q0 45 31.5 78t81.5 33q41 0 73.5 -27.5t34.5 -78.5q2 -43 -25.5 -79t-82.5 -36q-53 0 -83 32.5 t-30 77.5zM571 1341q0 45 30.5 78t80.5 33q41 0 73.5 -27.5t34.5 -78.5q2 -43 -25.5 -79t-82.5 -36q-53 0 -82 32.5t-29 77.5z" />
<glyph unicode="&#x152;" horiz-adv-x="2134" d="M88 731q0 156 48 294t140.5 241.5t225.5 163t303 59.5q45 0 88 -4t84 -10q57 -8 97 -14.5t67.5 -9.5t45 -4t30.5 -1h813v-123h-682v-504h604v-125h-604v-569h772v-125h-934q-23 0 -61 -6t-103 -17q-55 -8 -103.5 -14t-103.5 -6q-143 0 -274 48t-231.5 144.5t-161 242 t-60.5 339.5zM297 725q0 -137 35 -255t101.5 -204t162.5 -134t219 -48q41 0 131 14.5t203 73.5v1108q-74 45 -157 66.5t-169 21.5q-127 0 -225 -49t-164.5 -135t-101.5 -204t-35 -255z" />
<glyph unicode="&#x153;" horiz-adv-x="1961" d="M94 510q0 119 33 224.5t97.5 183t161.5 122.5t224 45q94 0 164 -23.5t117 -55t76.5 -67.5t48.5 -60q20 25 54 60.5t83 67t116.5 55t157.5 23.5q117 0 208 -43t152.5 -119.5t91.5 -180t24 -222.5h-795q4 -100 32.5 -178t76 -132t112 -83t141.5 -29q82 0 142.5 24.5 t103.5 59.5t71 71t44 60q10 -6 26.5 -13t26.5 -11q-12 -45 -39.5 -106.5t-107.5 -127.5q-63 -49 -139 -72.5t-156 -23.5q-98 0 -170 23.5t-123 57.5t-83 68.5t-50 57.5q-25 -31 -57.5 -67t-82 -66.5t-117 -52t-159.5 -21.5q-102 0 -194.5 34t-162 102.5t-109.5 172 t-40 242.5zM295 528q0 -27 2 -61.5t7 -73.5t16.5 -79t29.5 -74q45 -84 115 -122t141 -38q14 0 43 3t62.5 16.5t70.5 41t67 76.5t49.5 124t19.5 181q0 18 -2.5 59.5t-12.5 90.5t-28.5 101t-53.5 94t-86 70t-125 28q-29 0 -82 -12.5t-105 -56.5t-90 -131t-38 -237zM1110 633 h608q-6 80 -28.5 136t-53 92t-64.5 55.5t-63.5 28.5t-52 10t-29.5 1q-49 0 -100 -18t-96 -57t-78 -100.5t-43 -147.5z" />
<glyph unicode="&#x178;" horiz-adv-x="1280" d="M-20 1446h210l351 -860q27 -68 44 -113t27.5 -76.5t15.5 -52t9 -35.5q6 20 12 36.5t14.5 36t19.5 47.5t30 71l415 946h172l-665 -1516q-29 -68 -58.5 -117t-62.5 -85.5t-72 -63t-84 -47.5q-94 -41 -181 -47t-165 -4v67q115 6 194 40t134 88.5t94 123t76 146.5l31 63z M338 1704q0 45 30.5 78t80.5 33q41 0 73.5 -28t34.5 -79q2 -43 -25.5 -79t-82.5 -36q-53 0 -82 33t-29 78zM719 1704q0 45 30.5 78t79.5 33q41 0 74 -28t35 -79q2 -43 -25.5 -79t-83.5 -36q-53 0 -81.5 33t-28.5 78z" />
<glyph unicode="&#x2c6;" horiz-adv-x="598" d="M6 1198l215 320h156l215 -320l-47 -43l-244 234l-248 -234z" />
<glyph unicode="&#x2dc;" horiz-adv-x="598" d="M-20 1278q8 16 22 40.5t36.5 46t56.5 37t83 15.5q31 0 64.5 -6t64.5 -16q43 -10 68.5 -17.5t41 -10.5t25 -4t17.5 -1q47 0 73.5 17.5t45.5 33.5q8 -8 20 -19.5t20 -21.5q-6 -12 -20 -35.5t-37.5 -45t-58.5 -38t-84 -16.5q-10 0 -38 3t-85 20q-41 12 -64.5 18t-39 10 t-26.5 5t-26 1q-47 0 -71.5 -16t-42.5 -33z" />
<glyph unicode="&#x2000;" horiz-adv-x="939" />
<glyph unicode="&#x2001;" horiz-adv-x="1878" />
<glyph unicode="&#x2002;" horiz-adv-x="939" />
<glyph unicode="&#x2003;" horiz-adv-x="1878" />
<glyph unicode="&#x2004;" horiz-adv-x="626" />
<glyph unicode="&#x2005;" horiz-adv-x="469" />
<glyph unicode="&#x2006;" horiz-adv-x="313" />
<glyph unicode="&#x2007;" horiz-adv-x="313" />
<glyph unicode="&#x2008;" horiz-adv-x="234" />
<glyph unicode="&#x2009;" horiz-adv-x="375" />
<glyph unicode="&#x200a;" horiz-adv-x="104" />
<glyph unicode="&#x2010;" horiz-adv-x="641" d="M51 489v113h539v-113h-539z" />
<glyph unicode="&#x2011;" horiz-adv-x="641" d="M51 489v113h539v-113h-539z" />
<glyph unicode="&#x2012;" horiz-adv-x="641" d="M51 489v113h539v-113h-539z" />
<glyph unicode="&#x2013;" horiz-adv-x="1280" d="M51 489v113h1178v-113h-1178z" />
<glyph unicode="&#x2014;" horiz-adv-x="1536" d="M51 489v113h1434v-113h-1434z" />
<glyph unicode="&#x2018;" horiz-adv-x="468" d="M102 1010l232 458l65 -22l-108 -436h-189z" />
<glyph unicode="&#x2019;" horiz-adv-x="468" d="M70 1010l108 436h189l-232 -457z" />
<glyph unicode="&#x201a;" horiz-adv-x="468" d="M70 -258l108 436h189l-232 -459z" />
<glyph unicode="&#x201c;" horiz-adv-x="768" d="M102 1010l234 456l70 -20l-113 -436h-191zM401 1010l230 456l67 -20l-108 -436h-189z" />
<glyph unicode="&#x201d;" horiz-adv-x="768" d="M70 1010l108 436h189l-230 -457zM362 1010l113 436h191l-234 -457z" />
<glyph unicode="&#x201e;" horiz-adv-x="768" d="M70 -258l108 436h189l-232 -459zM362 -260l113 438h191l-234 -454z" />
<glyph unicode="&#x2022;" horiz-adv-x="681" d="M96 723q0 47 18.5 91t51.5 78t78 54.5t98 20.5q55 0 99 -19.5t77 -53.5t50.5 -78t17.5 -93t-17.5 -94t-49.5 -78t-77 -52.5t-98 -19.5t-99 19.5t-79 52.5t-51.5 78t-18.5 94z" />
<glyph unicode="&#x2026;" horiz-adv-x="2048" d="M236 76q0 45 29.5 74.5t76.5 29.5q35 0 67.5 -24.5t36.5 -77.5q2 -55 -31.5 -82t-70.5 -27q-47 0 -77.5 31t-30.5 76zM918 76q0 45 29.5 74.5t76.5 29.5q35 0 67.5 -24.5t36.5 -77.5q2 -55 -31.5 -82t-70.5 -27q-47 0 -77.5 31t-30.5 76zM1599 76q0 45 30 74.5t77 29.5 q35 0 67.5 -24.5t36.5 -77.5q2 -55 -31.5 -82t-70.5 -27q-47 0 -78 31t-31 76z" />
<glyph unicode="&#x202f;" horiz-adv-x="375" />
<glyph unicode="&#x2039;" horiz-adv-x="468" d="M31 547l237 237h170l-237 -237l237 -240h-170z" />
<glyph unicode="&#x203a;" horiz-adv-x="468" d="M31 307l237 238l-237 239h170l237 -239l-237 -238h-170z" />
<glyph unicode="&#x205f;" horiz-adv-x="469" />
<glyph unicode="&#x2122;" horiz-adv-x="1406" d="M47 1362v86h539v-86h-219v-594h-97v594h-223zM643 768v680h137l176 -559l177 559h137v-680h-94v444q0 6 1 27t1 43.5t1 43t1 26.5q-4 -16 -14.5 -51t-20.5 -68l-148 -465h-86l-147 465q-2 6 -6 22.5t-10.5 35t-11.5 35.5t-7 24q0 -12 1 -29.5t2 -38t1 -39v-31.5l2 -444 h-92z" />
<glyph unicode="&#xe000;" horiz-adv-x="1044" d="M0 0v1044h1044v-1044h-1044z" />
</font>
</defs>
</svg>
