<?xml version="1.0" standalone="no"?> <!DOCTYPE svg PUBLIC "-//W3C//DTD SVG 1.0//EN" "http://www.w3.org/TR/2001/REC-SVG-20010904/DTD/svg10.dtd" > <svg xmlns="http://www.w3.org/2000/svg" width="100%" height="100%">
<defs >
<font id="colabreg" horiz-adv-x="416" ><font-face
    font-family="Colaborate-Regular"
    units-per-em="1000"
    panose-1="2 0 5 3 6 0 0 2 0 4"
    ascent="835"
    descent="-227"
    alphabetic="0" />
<missing-glyph horiz-adv-x="1000" />
<glyph unicode=" " glyph-name="space" horiz-adv-x="257" />
<glyph unicode="!" glyph-name="exclam" horiz-adv-x="257" d="M173 176H84V647H173V176ZM179 0H79V97H179V0Z" />
<glyph unicode="&quot;" glyph-name="quotedbl" horiz-adv-x="380" d="M304 647L296 430H229L221 647H304ZM160 647L152 430H85L77 647H160Z" />
<glyph unicode="#" glyph-name="numbersign" horiz-adv-x="514" d="M499 392H392L366 247H460V181H355L323 0H245L277 181H181L150 0H72L104 181H14V247H115L141 392H53V458H153L186 647H264L231 458H326L359 647H437L404 458H499V392ZM314 392H218L193 247H289L314 392Z" />
<glyph unicode="$" glyph-name="dollar" horiz-adv-x="514" d="M461 168Q461 9 289 -14V-98H216V-18Q154 -17 44 12L76 97Q81 95 98 88T122 79T143 72T167 65T190 61T216 59V296Q184 308 165 316T119 341T78 376T52 422T41 485Q41 561 89 603T216 656V746H289V658Q374
652 433 632L401 547Q337 576 289 580V369Q327 354 352 341T405 305T447 248T461 168ZM217 398V577Q140 560 140 485Q140 454 160 434T217 398ZM362 166Q362 226 288 264V69Q362 91 362 166Z" />
<glyph unicode="%" glyph-name="percent" horiz-adv-x="784" d="M736 166Q736 83 706 36T599 -12Q523 -12 494 35T465 166Q465 338 600 338Q677 338 706 293T736 166ZM612 629L249 0H169L531 629H612ZM319 487Q319 403 290 356T183 308Q107 308 78 355T49 487Q49
658 184 658Q261 658 290 614T319 487ZM671 166Q671 230 658 260T600 291Q559 291 545 258T531 166Q531 133 533 113T541 73T562 44T599 35Q642 35 656 68T671 166ZM255 487Q255 551 242 581T184 611Q143 611 129 578T114 487Q114 421 127 389T183 356T240 389T255
487Z" />
<glyph unicode="&amp;" glyph-name="ampersand" horiz-adv-x="514" d="M468 0H386L372 49Q354 22 319 4T249 -15Q162 -15 104 32T46 177Q46 306 159 363Q157 365 142 376T121 392T102 410T83 434T72 461T66 495Q66 569 107 615T237 662Q319 662 363 622T408 502Q408
406 246 338Q191 315 165 278T138 179Q138 129 166 92T257 54Q318 54 366 126V227H270V291H454V140Q454 110 461 56T468 0ZM318 503Q318 593 235 593Q157 593 157 496Q157 482 161 470T175 446T190 428T209 412T224 399Q266 417 292 441T318 503Z" />
<glyph unicode="&apos;" glyph-name="quotesingle" horiz-adv-x="257" d="M170 647L162 430H95L87 647H170Z" />
<glyph unicode="(" glyph-name="parenleft" horiz-adv-x="295" d="M243 -128H162Q99 -19 78 60T56 254Q56 384 78 465T157 647H238Q185 550 166 466T147 254Q147 142 166 60T243 -128Z" />
<glyph unicode=")" glyph-name="parenright" horiz-adv-x="295" d="M241 254Q241 140 220 61T135 -128H53Q111 -23 130 59T149 254Q149 382 130 466T58 647H140Q196 546 218 465T241 254Z" />
<glyph unicode="*" glyph-name="asterisk" horiz-adv-x="410" d="M399 484L252 448L251 441L347 317L295 280L212 408H204L119 280L67 318L163 441L161 448L12 485L32 548L175 494L183 500L176 649H239L231 497L238 493L381 546L399 484Z" />
<glyph unicode="+" glyph-name="plus" horiz-adv-x="514" d="M470 182H297V0H217V182H44V253H217V428H297V253H470V182Z" />
<glyph unicode="," glyph-name="comma" horiz-adv-x="257" d="M178 75L97 -103H28L79 75H178Z" />
<glyph unicode="-" glyph-name="hyphen" horiz-adv-x="338" d="M310 196H28V272H310V196Z" />
<glyph unicode="." glyph-name="period" horiz-adv-x="257" d="M178 0H79V96H178V0Z" />
<glyph unicode="/" glyph-name="slash" horiz-adv-x="277" d="M284 657L72 -11H-7L206 657H284Z" />
<glyph unicode="0" glyph-name="zero" horiz-adv-x="514" d="M476 381T476 308T467 181T435 80T367 9T255 -16Q189 -16 145 8T78 80T47 180T38 308Q38 620 256 620Q322 620 367 597T435 530T467 433ZM376 308Q376 356 374 387T366 451T347 502T311 533T256 545Q218
545 193 526T157 470T142 396T138 308Q138 259 139 228T147 161T166 105T201 72T255 59Q295 59 320 77T357 134T372 211T376 308Z" />
<glyph unicode="1" glyph-name="one" horiz-adv-x="514" d="M359 -1H259V507L144 412L113 487L263 607H359V-1Z" />
<glyph unicode="2" glyph-name="two" horiz-adv-x="514" d="M466 0H72L43 82Q54 91 97 126T166 182T232 241T295 306T335 367T353 428Q353 492 325 519T242 546Q184 546 91 498L60 581Q124 605 161 613T244 621Q336 621 395 577T454 432Q454 394 433 350T385 271T313
194T242 131T174 76H466V0Z" />
<glyph unicode="3" glyph-name="three" horiz-adv-x="514" d="M441 164Q441 114 422 78T368 22T296 -7T214 -16Q110 -16 38 9L68 92Q148 59 217 59Q272 59 306 87T341 165Q341 214 315 241T251 275T150 283V355Q242 355 284 374T326 456Q326 546 225 546Q171 546
79 501L49 584Q81 600 134 610T227 621Q426 621 426 458Q426 396 388 362T291 320Q354 310 397 273T441 164Z" />
<glyph unicode="4" glyph-name="four" horiz-adv-x="514" d="M492 164H396V0H298V164H56L23 242L293 607H396V240H492V164ZM298 240V505L103 240H298Z" />
<glyph unicode="5" glyph-name="five" horiz-adv-x="514" d="M463 193Q463 94 399 39T232 -16Q120 -16 50 7L81 90Q158 59 233 59Q365 59 365 195Q365 256 337 285T261 315Q235 315 209 308T173 295T137 275L69 302V607H438V532H167V373Q226 392 267 392Q359 392
411 341T463 193Z" />
<glyph unicode="6" glyph-name="six" horiz-adv-x="514" d="M468 188Q468 101 410 43T264 -16Q45 -16 45 283Q45 368 69 442T153 568T299 621Q368 621 435 603L404 520Q349 546 304 546Q222 546 180 481T138 315Q158 355 197 378T272 402Q369 402 418 346T468
188ZM368 188Q368 216 365 237T352 280T320 315T266 327Q181 327 147 239Q147 137 176 98T265 59Q310 59 339 92T368 188Z" />
<glyph unicode="7" glyph-name="seven" horiz-adv-x="514" d="M449 539L228 0H120L361 531H48V606H417L449 539Z" />
<glyph unicode="8" glyph-name="eight" horiz-adv-x="514" d="M476 152Q476 -16 254 -16Q37 -16 37 152Q37 281 184 320L174 324Q163 328 160 330T145 337T127 347T111 358T94 372T80 389T68 409T61 432T58 459Q58 537 110 579T259 621Q362 621 411 583T461 460Q461
418 435 385T381 338T329 319Q402 298 439 258T476 152ZM365 457Q365 503 340 525T259 547Q204 547 180 525T155 457Q155 417 185 391T255 353Q298 365 331 391T365 457ZM379 154Q379 245 257 284Q201 266 168 238T135 154Q135 109 165 84T254 58Q314 58 346 83T379
154Z" />
<glyph unicode="9" glyph-name="nine" horiz-adv-x="514" d="M469 322Q469 259 454 201T410 94T330 14T214 -16Q146 -16 79 2L110 85Q165 59 209 59Q291 59 333 124T376 290Q356 250 317 227T242 203Q145 203 95 258T45 416Q45 503 104 562T249 621Q315 621 360
596T428 526T460 433T469 322ZM367 366Q367 468 337 507T248 546Q203 546 175 512T146 416Q146 388 149 367T162 324T193 290T247 278Q333 278 367 366Z" />
<glyph unicode=":" glyph-name="colon" horiz-adv-x="257" d="M178 356H79V452H178V356ZM178 0H79V96H178V0Z" />
<glyph unicode=";" glyph-name="semicolon" horiz-adv-x="257" d="M177 356H78V452H177V356ZM178 75L97 -103H28L78 75H178Z" />
<glyph unicode="&lt;" glyph-name="less" horiz-adv-x="514" d="M474 29L40 186V286L474 445V356L130 236L474 118V29Z" />
<glyph unicode="=" glyph-name="equal" horiz-adv-x="514" d="M474 256H40V328H474V256ZM474 83H40V155H474V83Z" />
<glyph unicode="&gt;" glyph-name="greater" horiz-adv-x="514" d="M474 188L40 29V118L384 238L40 356V445L474 287V188Z" />
<glyph unicode="?" glyph-name="question" horiz-adv-x="435" d="M404 497Q404 464 387 437T346 389T299 350T258 307T241 256V170H151V261Q151 299 167 329T206 378T253 414T292 452T308 497Q308 542 287 561T214 580Q186 580 141 569T69 545L51 627Q137 657
214 657Q252 657 281 651T341 630T387 581T404 497ZM246 0H146V97H246V0Z" />
<glyph unicode="@" glyph-name="at" horiz-adv-x="870" d="M789 381Q789 312 764 261T695 182T597 140T479 126Q374 126 315 176T256 321Q256 404 308 458T458 512Q511 512 556 498V325L583 327L609 260L475 246V438Q467 443 452 443Q406 443 376 415T345 322Q345
283 358 256T393 216T436 198T481 192Q586 192 642 232T699 380Q699 438 679 480T625 546T551 579T466 590Q427 590 389 583T311 557T240 509T191 431T171 320Q171 257 190 208T240 130T312 83T390 58T468 51Q564 51 680 85L711 11Q603 -18 465 -18Q290 -18 186
69T81 320Q81 485 189 572T466 659Q522 659 576 644T680 597T759 509T789 381Z" />
<glyph unicode="A" glyph-name="A" horiz-adv-x="657" d="M626 0H516L452 183H204L136 0H31L294 647H382L626 0ZM427 258L333 531L232 258H427Z" />
<glyph unicode="B" glyph-name="B" horiz-adv-x="603" d="M547 186Q547 0 332 0H96V647H299Q402 647 459 609T517 473Q517 424 489 389T414 339Q476 328 511 290T547 186ZM415 422T415 472T388 546T299 570H196V371H313Q358 371 386 396ZM444 186Q444 295 315
295H196V77H326Q382 77 413 100T444 186Z" />
<glyph unicode="C" glyph-name="C" horiz-adv-x="559" d="M521 12Q436 -18 345 -18Q61 -18 61 323Q61 394 75 452T122 558T212 632T350 659Q437 659 514 634L482 549Q405 582 350 582Q164 582 164 324Q164 196 205 128T344 59Q395 59 489 97L521 12Z" />
<glyph unicode="D" glyph-name="D" horiz-adv-x="651" d="M590 326Q590 151 518 76T281 0H96V647H281Q445 647 517 574T590 326ZM487 325Q487 400 474 449T433 524T370 560T281 570H196V77H290Q389 77 438 133T487 325Z" />
<glyph unicode="E" glyph-name="E" horiz-adv-x="559" d="M476 0H96V647H467V570H196V373H446V296H196V77H476V0Z" />
<glyph unicode="F" glyph-name="F" horiz-adv-x="521" d="M467 569H196V369H455V293H196V0H96V647H467V569Z" />
<glyph unicode="G" glyph-name="G" horiz-adv-x="615" d="M554 39Q499 9 454 -4T346 -18Q61 -18 61 324Q61 481 132 570T355 659Q415 659 511 634L479 549Q403 582 356 582Q261 582 213 522T164 324Q164 196 204 128T349 59Q408 59 465 91V256H322V333H554V39Z" />
<glyph unicode="H" glyph-name="H" horiz-adv-x="670" d="M574 0H474V295H196V0H96V647H196V373H474V647H574V0Z" />
<glyph unicode="I" glyph-name="I" horiz-adv-x="268" d="M184 0H84V647H184V0Z" />
<glyph unicode="J" glyph-name="J" horiz-adv-x="421" d="M325 204Q325 165 319 132T298 74T269 28T231 -8T188 -34T140 -55T93 -70T46 -83Q43 -84 42 -84L16 0Q23 1 43 5T73 11T100 18T128 27T153 40T177 57T196 80T212 110T221 147T225 194V647H325V204Z" />
<glyph unicode="K" glyph-name="K" horiz-adv-x="624" d="M609 0H479L196 304V0H96V647H196V363L458 647H570L288 342L609 0Z" />
<glyph unicode="L" glyph-name="L" horiz-adv-x="485" d="M478 0H96V647H196V80H478V0Z" />
<glyph unicode="M" glyph-name="M" horiz-adv-x="881" d="M785 0H688V541L487 0H392L190 541V0H96V647H255L443 136L634 647H785V0Z" />
<glyph unicode="N" glyph-name="N" horiz-adv-x="701" d="M605 0H457L190 529V0H96V647H242L507 118V647H605V0Z" />
<glyph unicode="O" glyph-name="O" horiz-adv-x="703" d="M642 321Q642 165 574 74T353 -18Q61 -18 61 321Q61 476 131 567T354 659Q642 659 642 321ZM539 321Q539 453 496 517T353 582Q253 582 209 518T164 321Q164 187 208 123T353 59T496 125T539 321Z" />
<glyph unicode="P" glyph-name="P" horiz-adv-x="578" d="M526 458Q526 263 314 263H196V0H96V647H303Q526 647 526 458ZM424 458Q424 524 393 547T301 570H196V340H306Q364 340 394 366T424 458Z" />
<glyph unicode="Q" glyph-name="Q" horiz-adv-x="703" d="M642 321Q642 165 574 74T353 -18Q61 -18 61 321Q61 476 130 567T354 659Q642 659 642 321ZM574 -61L539 -131L320 -98L355 -41L574 -61ZM539 321Q539 453 496 517T353 582Q253 582 209 518T164 321Q164
187 208 123T353 59T496 125T539 321Z" />
<glyph unicode="R" glyph-name="R" horiz-adv-x="614" d="M570 0H449L243 279H196V0H96V647H318Q360 647 395 639T463 611T513 556T531 467Q531 392 491 342T359 282L570 0ZM429 467Q429 516 402 543T323 570H196V356H324Q378 356 403 386T429 467Z" />
<glyph unicode="S" glyph-name="S" horiz-adv-x="572" d="M506 168Q506 -18 250 -18Q176 -18 66 12L98 97Q199 59 251 59Q404 59 404 166Q404 187 395 205T375 233T339 257T301 275T254 293Q219 306 199 314T150 340T106 375T78 421T66 485Q66 545 100 585T185
642T299 659Q387 659 466 632L434 547Q432 548 421 553T406 559T391 565T375 570T359 575T340 579T321 581T298 582Q168 582 168 485Q168 458 187 438T228 407T293 382Q393 347 431 319Q506 265 506 168Z" />
<glyph unicode="T" glyph-name="T" horiz-adv-x="517" d="M493 569H308V0H209V569H24V647H493V569Z" />
<glyph unicode="U" glyph-name="U" horiz-adv-x="701" d="M605 237Q605 -18 357 -18Q222 -18 159 45T96 239V647H196V249Q196 139 235 99T357 59Q431 59 468 103T505 249V647H605V237Z" />
<glyph unicode="V" glyph-name="V" horiz-adv-x="628" d="M599 647L364 0H273L29 647H139L321 127L494 647H599Z" />
<glyph unicode="W" glyph-name="W" horiz-adv-x="923" d="M888 647L719 0H598L463 483L311 0H190L35 647H140L263 125L410 620H530L661 124L792 647H888Z" />
<glyph unicode="X" glyph-name="X" horiz-adv-x="605" d="M568 0H449L300 256L138 0H31L247 334L57 647H172L306 421L448 647H555L356 340L568 0Z" />
<glyph unicode="Y" glyph-name="Y" horiz-adv-x="590" d="M575 647L347 291V0H247V287L15 647H128L301 377L469 647H575Z" />
<glyph unicode="Z" glyph-name="Z" horiz-adv-x="550" d="M506 565L152 78H498V0H72L44 82L398 569H81V647H478L506 565Z" />
<glyph unicode="[" glyph-name="bracketleft" horiz-adv-x="289" d="M242 -127H83V676H242V611H163V-59H242V-127Z" />
<glyph unicode="\" glyph-name="backslash" horiz-adv-x="277" d="M284 -11H205L-7 657H71L284 -11Z" />
<glyph unicode="]" glyph-name="bracketright" horiz-adv-x="289" d="M212 -126H53V-59H132V612H53V677H212V-126Z" />
<glyph unicode="^" glyph-name="asciicircum" horiz-adv-x="514" d="M481 269H394L256 564L118 269H34L215 647H296L481 269Z" />
<glyph unicode="_" glyph-name="underscore" horiz-adv-x="500" d="M501 -109H-1V-41H501V-109Z" />
<glyph unicode="`" glyph-name="grave" horiz-adv-x="228" d="M209 530H143L19 647H113L209 530Z" />
<glyph unicode="a" glyph-name="a" horiz-adv-x="501" d="M440 0H357Q357 2 349 25T341 50Q288 -12 217 -12Q137 -12 91 21T45 120Q45 197 100 239T293 282H334V311Q334 400 256 400Q179 400 95 360L64 434Q159 469 259 469Q335 469 379 432T424 323V140Q424 124
426 102T433 50T440 0ZM335 111V220H307Q215 220 177 197T139 124Q139 91 164 74T231 57Q302 57 335 111Z" />
<glyph unicode="b" glyph-name="b" horiz-adv-x="511" d="M466 336T466 231T415 57T267 -12Q229 -12 200 6T154 50L138 0H57Q68 86 68 140V657H157V393Q209 469 280 469Q376 469 421 403ZM374 229Q374 400 268 400Q239 400 215 383T179 349T155 307V124Q169 93
196 75T255 57Q374 57 374 229Z" />
<glyph unicode="c" glyph-name="c" horiz-adv-x="451" d="M415 19Q390 7 339 -2T259 -12Q154 -12 100 52T45 225Q45 340 99 404T262 469Q291 469 338 459T412 438L381 364Q309 400 261 400Q195 400 166 357T137 225Q137 57 260 57Q314 57 384 93L415 19Z" />
<glyph unicode="d" glyph-name="d" horiz-adv-x="511" d="M454 0H373L357 50Q340 24 310 6T244 -12Q142 -12 94 56T45 231Q45 333 93 401T233 469Q302 469 354 393V657H443V140Q443 86 454 0ZM356 124V307Q310 400 244 400Q137 400 137 229Q137 139 166 98T256
57Q314 57 356 124Z" />
<glyph unicode="e" glyph-name="e" horiz-adv-x="501" d="M454 194H140Q150 55 261 55Q322 55 400 94L429 24Q351 -12 253 -12Q151 -12 98 55T45 224Q45 268 54 308T86 386T149 446T248 469Q364 469 409 401T454 194ZM367 261Q363 400 249 400Q205 400 174 366T139
261H367Z" />
<glyph unicode="f" glyph-name="f" horiz-adv-x="309" d="M309 600Q171 585 171 495V457H275V388H171V0H82V388H13V457H82V488Q82 534 102 570T154 628T219 661T286 675L309 600Z" />
<glyph unicode="g" glyph-name="g" horiz-adv-x="521" d="M490 470L465 407H405Q424 391 439 361T455 298Q455 226 409 175T258 124Q240 124 207 129T160 143Q137 122 137 104Q137 85 164 75T274 59Q398 49 442 19T487 -69Q487 -136 423 -168T264 -200Q142 -200
90 -167T38 -72Q38 -11 123 18Q61 45 61 100Q61 136 110 177Q61 237 61 298Q61 317 65 336T82 381T115 424T171 456T256 469Q296 469 333 459Q446 468 490 470ZM362 300Q362 401 258 401Q210 401 182 374T154 296T181 218T259 191Q313 191 337 222T362 300ZM394
-69Q394 -17 184 -8Q160 -16 146 -33T131 -69Q131 -99 167 -117T264 -135Q334 -135 364 -119T394 -69Z" />
<glyph unicode="h" glyph-name="h" horiz-adv-x="509" d="M441 0H352V287Q352 342 335 371T266 400Q198 400 157 309V0H68V657H157V393Q175 422 206 446T280 470Q369 470 405 422T441 291V0Z" />
<glyph unicode="i" glyph-name="i" horiz-adv-x="228" d="M162 559H66V647H162V559ZM159 0H69V457H159V0Z" />
<glyph unicode="j" glyph-name="j" horiz-adv-x="224" d="M158 559H61V647H158V559ZM154 6Q154 -130 2 -178L-28 -103Q24 -92 44 -70T65 -3V457H154V6Z" />
<glyph unicode="k" glyph-name="k" horiz-adv-x="464" d="M450 0H346L157 234V0H68V657H157V273L329 457H426L240 259L450 0Z" />
<glyph unicode="l" glyph-name="l" horiz-adv-x="225" d="M157 0H68V657H157V0Z" />
<glyph unicode="m" glyph-name="m" horiz-adv-x="790" d="M722 0H633V290Q633 345 615 372T550 400Q511 400 481 372T437 304V0H348V290Q348 349 328 374T263 400Q229 400 200 371T157 310V0H68V352Q68 374 63 411T57 457H138L155 392Q174 420 207 445T278 470Q335
470 366 450T422 387Q444 422 480 446T562 470Q722 470 722 292V0Z" />
<glyph unicode="n" glyph-name="n" horiz-adv-x="509" d="M441 0H352V289Q352 342 336 371T266 400Q230 400 202 373T157 309V0H68V360Q68 382 63 414T57 457H138L154 393L162 404Q171 414 175 418T189 432T207 447T227 458T252 467T279 470Q369 470 405 423T441 288V0Z" />
<glyph unicode="o" glyph-name="o" horiz-adv-x="517" d="M472 231Q472 122 421 55T259 -13Q147 -13 96 54T45 231Q45 335 96 402T259 470Q371 470 421 405T472 231ZM380 231Q380 317 352 358T259 400Q137 400 137 231Q137 57 259 57Q380 57 380 231Z" />
<glyph unicode="p" glyph-name="p" horiz-adv-x="511" d="M466 226Q466 123 419 55T280 -13Q243 -13 210 4T157 49V-180H68V319Q68 375 57 457H138L156 393Q208 470 274 470Q342 470 386 435T448 348T466 226ZM374 228Q374 317 346 358T256 400Q223 400 197 374T156
310V124Q198 57 267 57Q374 57 374 228Z" />
<glyph unicode="q" glyph-name="q" horiz-adv-x="511" d="M454 457Q443 375 443 319V-180H354V49Q334 22 302 5T232 -13Q136 -13 91 54T45 226Q45 332 93 401T237 470Q303 470 355 393L373 457H454ZM356 124V310Q341 347 314 373T254 400Q137 400 137 228Q137
57 244 57Q314 57 356 124Z" />
<glyph unicode="r" glyph-name="r" horiz-adv-x="360" d="M347 447L315 372Q272 400 246 400Q230 400 217 392T194 369T178 342T165 311T157 290V0H68V355Q68 373 57 457H138L154 377Q172 411 200 440T262 470Q309 470 347 447Z" />
<glyph unicode="s" glyph-name="s" horiz-adv-x="433" d="M388 124Q388 54 336 21T207 -13Q117 -13 40 18L71 92Q146 62 180 59Q194 57 209 57Q257 57 276 74T296 123Q296 138 289 148T264 168T234 182T193 196Q159 207 140 215T95 239T58 280T46 337Q46 386 74
417T141 459T229 470Q291 470 381 440L349 365Q318 379 306 384T272 394T227 400Q138 400 138 340Q138 324 151 312T179 294T224 278Q307 252 337 230Q388 192 388 124Z" />
<glyph unicode="t" glyph-name="t" horiz-adv-x="312" d="M300 0L269 -81Q187 -61 137 -11T87 113V388H13V458H87V577H177V458H283V388H177V111Q177 25 300 0Z" />
<glyph unicode="u" glyph-name="u" horiz-adv-x="502" d="M445 0H364L348 64Q347 62 338 51T324 34T307 18T285 2T259 -8T227 -13Q68 -13 68 169V457H157V168Q157 134 161 113T185 74T240 57Q304 57 345 148V457H434V97Q434 75 439 43T445 0Z" />
<glyph unicode="v" glyph-name="v" horiz-adv-x="513" d="M475 457L299 0H215L38 457H134L260 109L383 457H475Z" />
<glyph unicode="w" glyph-name="w" horiz-adv-x="754" d="M720 457L567 0H476L379 301L274 0H181L34 457H129L236 110L340 415H426L524 111L630 457H720Z" />
<glyph unicode="x" glyph-name="x" horiz-adv-x="472" d="M448 0H345L235 169L119 0H24L189 231L35 457H138L240 298L346 457H440L285 238L448 0Z" />
<glyph unicode="y" glyph-name="y" horiz-adv-x="508" d="M470 457L279 -73Q258 -132 223 -168T122 -227L93 -152Q164 -133 181 -87L221 19L38 457H134L265 122L378 457H470Z" />
<glyph unicode="z" glyph-name="z" horiz-adv-x="427" d="M396 383L133 69H382V0H62L31 74L295 388H59V457H364L396 383Z" />
<glyph unicode="{" glyph-name="braceleft" horiz-adv-x="374" d="M309 -118Q259 -117 224 -102T172 -62T145 -8T132 54T126 117T115 172T93 212T48 230V301Q83 302 100 327T120 391T129 473T148 554T201 618T309 647V576Q260 576 237 550T209 484T202 401T182
320T128 264Q160 252 178 224T199 161T206 90T216 22T245 -27T309 -47V-118Z" />
<glyph unicode="|" glyph-name="bar" horiz-adv-x="257" d="M167 -166H90V702H167V-166Z" />
<glyph unicode="}" glyph-name="braceright" horiz-adv-x="374" d="M326 230Q298 228 282 212T259 172T249 117T242 55T230 -7T202 -62T150 -101T64 -118V-47Q112 -47 135 -20T163 48T170 132T190 212T246 264Q209 281 192 320T173 401T165 483T137 550T64 576V647Q115
645 151 630T204 590T232 535T245 473T251 411T261 356T282 317T326 301V230Z" />
<glyph unicode="~" glyph-name="asciitilde" horiz-adv-x="514" d="M486 262Q486 212 451 180T358 147Q321 147 283 168T214 211T167 232Q133 232 117 215T100 157L27 195Q27 246 61 278T153 310Q191 310 231 289T301 248T345 227Q379 227 396 244T414 301L486 262Z" />
</font>
</defs>
</svg>
