<?xml version="1.0" standalone="no"?> <!DOCTYPE svg PUBLIC "-//W3C//DTD SVG 1.0//EN" "http://www.w3.org/TR/2001/REC-SVG-20010904/DTD/svg10.dtd" > <svg xmlns="http://www.w3.org/2000/svg" width="100%" height="100%">
<defs >
<font id="colabmed" horiz-adv-x="436" ><font-face
    font-family="Colaborate-Medium"
    units-per-em="1000"
    panose-1="2 0 6 3 7 0 0 2 0 4"
    ascent="835"
    descent="-245"
    alphabetic="0" />
<missing-glyph horiz-adv-x="1000" />
<glyph unicode=" " glyph-name="space" horiz-adv-x="270" />
<glyph unicode="!" glyph-name="exclam" horiz-adv-x="270" d="M191 182H79V647H191V182ZM195 0H75V110H195V0Z" />
<glyph unicode="&quot;" glyph-name="quotedbl" horiz-adv-x="400" d="M325 647L317 430H234L226 647H325ZM175 647L167 430H83L75 647H175Z" />
<glyph unicode="#" glyph-name="numbersign" horiz-adv-x="540" d="M524 389H414L390 250H485V171H376L346 0H252L282 171H201L171 0H77L107 171H16V250H121L145 389H55V468H160L191 647H285L254 468H335L366 647H460L429 468H524V389ZM320 389H239L215 250H296L320 389Z" />
<glyph unicode="$" glyph-name="dollar" horiz-adv-x="540" d="M484 168Q484 81 438 40T308 -14V-98H220V-19Q150 -18 42 12L81 118Q87 116 107 108T136 97T162 88T192 81T220 78V285Q177 302 153 314T98 349T53 405T38 482Q38 559 89 602T220 657V746H308V659Q393
653 456 632L417 526Q352 555 308 561V376Q346 362 372 348T427 310T469 251T484 168ZM222 411V557Q162 541 162 482Q162 441 222 411ZM360 166Q360 212 306 245V89Q360 109 360 166Z" />
<glyph unicode="%" glyph-name="percent" horiz-adv-x="830" d="M787 166Q787 80 754 34T642 -13Q564 -13 532 33T499 166Q499 338 643 338Q722 338 754 295T787 166ZM640 629L277 0H180L542 629H640ZM332 488Q332 402 299 356T186 309Q108 309 76 355T43 488Q43
660 187 660Q266 660 299 617T332 488ZM707 105T707 166T694 253T643 280T593 251T580 166Q580 101 592 73T642 45T693 75ZM251 427T251 488T238 575T187 602T137 573T124 488Q124 423 136 395T186 367T237 397Z" />
<glyph unicode="&amp;" glyph-name="ampersand" horiz-adv-x="540" d="M495 0H389L373 45Q356 21 320 3T253 -16Q166 -16 106 30T46 181Q46 311 154 366L138 378Q123 389 118 393T100 411T82 435T71 462T66 495Q66 569 111 616T249 663Q336 663 384 622T432 499Q432
410 258 335Q206 313 184 278T162 183Q162 137 186 104T265 70Q314 70 366 137V216H278V296H478V140Q478 113 486 59T495 0ZM319 500Q319 577 247 577Q179 577 179 496Q179 484 182 474T193 454T205 438T220 424T233 412Q272 429 295 449T319 500Z" />
<glyph unicode="&apos;" glyph-name="quotesingle" horiz-adv-x="270" d="M185 647L177 430H93L85 647H185Z" />
<glyph unicode="(" glyph-name="parenleft" horiz-adv-x="315" d="M263 -128H160Q97 -19 76 60T54 254Q54 384 76 465T155 647H258Q205 550 186 466T167 254Q167 142 186 60T263 -128Z" />
<glyph unicode=")" glyph-name="parenright" horiz-adv-x="315" d="M263 254Q263 140 242 61T157 -128H54Q112 -23 131 59T150 254Q150 382 131 466T59 647H162Q218 546 240 465T263 254Z" />
<glyph unicode="*" glyph-name="asterisk" horiz-adv-x="430" d="M420 473L270 437L269 428L367 300L309 259L224 391H214L126 258L68 302L167 428L164 437L10 474L33 545L181 490L190 497L183 650H253L246 494L254 489L401 543L420 473Z" />
<glyph unicode="+" glyph-name="plus" horiz-adv-x="540" d="M488 178H318V0H222V178H52V264H222V431H318V264H488V178Z" />
<glyph unicode="," glyph-name="comma" horiz-adv-x="270" d="M195 75L114 -103H28L75 75H195Z" />
<glyph unicode="-" glyph-name="hyphen" horiz-adv-x="350" d="M323 178H27V272H323V178Z" />
<glyph unicode="." glyph-name="period" horiz-adv-x="270" d="M195 0H75V110H195V0Z" />
<glyph unicode="/" glyph-name="slash" horiz-adv-x="300" d="M304 657L93 -11H-4L209 657H304Z" />
<glyph unicode="0" glyph-name="zero" horiz-adv-x="540" d="M502 308Q502 231 491 175T455 73T383 6T268 -17Q139 -17 89 65T38 308Q38 461 92 541T269 621Q399 621 450 543T502 308ZM376 308Q376 426 356 476T269 527Q234 527 212 511T180 460T167 393T164 308Q164
259 165 229T172 167T189 117T220 89T268 77T316 88T347 119T365 169T374 232T376 308Z" />
<glyph unicode="1" glyph-name="one" horiz-adv-x="540" d="M392 -1H266V487L152 396L114 487L270 607H392V-1Z" />
<glyph unicode="2" glyph-name="two" horiz-adv-x="540" d="M496 0H83L48 103Q55 108 83 128T126 160T170 193T217 230T260 268T299 308T329 346T351 384T358 420Q358 528 260 528Q199 528 105 478L68 581Q143 607 178 614T262 622Q306 622 343 613T414 582T465
520T484 424Q484 379 457 329T386 235T300 157T216 94H496V0Z" />
<glyph unicode="3" glyph-name="three" horiz-adv-x="540" d="M469 170Q469 117 448 79T390 21T315 -8T230 -17Q115 -17 40 9L77 112Q99 101 144 89T233 77Q284 77 313 104T343 171Q343 198 334 217T310 247T269 264T218 271T153 273V365Q250 365 289 380T328
451Q328 528 239 528Q182 528 88 482L51 585Q82 600 142 611T243 622Q454 622 454 453Q454 394 415 361T317 320Q380 310 424 274T469 170Z" />
<glyph unicode="4" glyph-name="four" horiz-adv-x="540" d="M518 161H422V0H298V161H56L15 257L286 607H422V256H518V161ZM298 256V490L117 256H298Z" />
<glyph unicode="5" glyph-name="five" horiz-adv-x="540" d="M489 196Q489 96 419 40T243 -17Q120 -17 47 7L84 110Q167 77 244 77Q365 77 365 198Q365 299 274 299Q259 299 245 297T222 293T200 285T183 277T165 267T150 258L69 289V607H464V513H193V380Q232
395 283 395Q378 395 433 345T489 196Z" />
<glyph unicode="6" glyph-name="six" horiz-adv-x="540" d="M494 184Q494 96 430 40T277 -17Q45 -17 45 283Q45 346 60 404T105 512T189 592T312 622Q386 622 457 603L420 500Q364 528 317 528Q237 528 200 470T163 331Q182 368 220 386T288 405Q391 405 442 348T494
184ZM368 184V190Q368 214 366 229T357 266T330 299T279 311Q201 311 172 236Q172 143 199 110T278 77Q317 77 342 104T368 184Z" />
<glyph unicode="7" glyph-name="seven" horiz-adv-x="540" d="M474 526L259 0H125L362 513H53V606H435L474 526Z" />
<glyph unicode="8" glyph-name="eight" horiz-adv-x="540" d="M502 155Q502 -17 268 -17Q38 -17 38 155Q38 287 184 320Q121 344 96 369Q59 404 59 456Q59 535 113 578T273 622Q386 622 436 583T487 457Q487 414 461 382T408 337T356 319Q429 300 465 262T502
155ZM365 452Q365 489 346 509T273 529Q221 529 201 510T181 452Q181 392 269 362Q365 393 365 452ZM379 158Q379 205 350 231T271 275Q217 257 189 233T161 158Q161 121 187 99T268 76Q379 76 379 158Z" />
<glyph unicode="9" glyph-name="nine" horiz-adv-x="540" d="M495 322Q495 259 480 201T435 93T351 13T228 -17Q154 -17 83 2L120 105Q176 77 223 77Q303 77 340 135T377 274Q358 237 320 219T252 200Q149 200 98 256T46 420Q46 508 111 565T263 622Q320 622 362
605T429 560T469 491T490 411T495 322ZM368 369Q368 462 341 495T262 528Q223 528 198 501T172 420V414Q172 396 173 384T178 353T192 323T218 303T261 294Q339 294 368 369Z" />
<glyph unicode=":" glyph-name="colon" horiz-adv-x="270" d="M195 342H75V452H195V342ZM195 0H75V110H195V0Z" />
<glyph unicode=";" glyph-name="semicolon" horiz-adv-x="270" d="M195 342H75V452H195V342ZM195 75L114 -103H28L75 75H195Z" />
<glyph unicode="&lt;" glyph-name="less" horiz-adv-x="540" d="M495 37L45 184V304L495 453V344L158 244L495 146V37Z" />
<glyph unicode="=" glyph-name="equal" horiz-adv-x="540" d="M495 242H45V328H495V242ZM495 69H45V155H495V69Z" />
<glyph unicode="&gt;" glyph-name="greater" horiz-adv-x="540" d="M495 186L45 37V146L382 246L45 344V453L495 306V186Z" />
<glyph unicode="?" glyph-name="question" horiz-adv-x="460" d="M429 490Q429 457 412 430T371 383T322 345T281 304T264 256V176H152V261Q152 299 168 328T207 377T253 412T292 447T308 490Q308 527 291 543T227 560Q198 560 147 549T69 525L51 627Q84 638 138
647T227 657Q257 657 280 655T333 642T382 615T415 566T429 490ZM268 0H148V110H268V0Z" />
<glyph unicode="@" glyph-name="at" horiz-adv-x="900" d="M820 381Q820 309 793 258T719 179T616 139T496 126Q382 126 322 176T262 322Q262 406 314 459T472 512Q536 512 581 498V345H601L632 263L479 250V421Q471 426 463 426Q373 426 373 322Q373 208 498
208Q548 208 581 213T645 236T692 288T707 380T687 476T633 536T562 564T482 573Q448 573 415 569T340 548T267 506T215 432T193 320Q193 255 215 207T268 132T343 91T419 72T486 68Q574 68 699 100L738 7Q620 -19 483 -19Q301 -19 191 66T80 320Q80 434 135 512T279
625T482 660Q526 660 570 652T660 623T741 571T798 491T820 381Z" />
<glyph unicode="A" glyph-name="A" horiz-adv-x="681" d="M652 0H513L455 173H224L163 0H29L292 647H408L652 0ZM423 268L344 507L259 268H423Z" />
<glyph unicode="B" glyph-name="B" horiz-adv-x="625" d="M571 189Q571 0 356 0H94V647H323Q541 647 541 469Q541 420 513 386T438 339Q500 330 535 293T571 189ZM413 468Q413 550 323 550H220V381H337Q371 381 392 403T413 468ZM442 189Q442 285 339 285H220V97H350Q442
97 442 189Z" />
<glyph unicode="C" glyph-name="C" horiz-adv-x="575" d="M539 12Q451 -19 357 -19Q59 -19 59 323Q59 394 74 452T123 558T217 633T361 660Q452 660 532 634L493 528Q411 563 361 563Q269 563 229 503T189 324Q189 200 227 139T355 78Q366 78 376 79T398 82T418
87T439 93T457 100T479 109T500 118L539 12Z" />
<glyph unicode="D" glyph-name="D" horiz-adv-x="673" d="M614 326Q614 150 541 75T305 0H94V647H305Q465 647 539 573T614 326ZM484 325Q484 399 471 446T431 514T376 543T305 550H220V97H314Q398 97 441 145T484 325Z" />
<glyph unicode="E" glyph-name="E" horiz-adv-x="581" d="M487 0H94V647H478V550H220V383H457V286H220V97H487V0Z" />
<glyph unicode="F" glyph-name="F" horiz-adv-x="530" d="M478 549H220V379H466V283H220V0H94V647H478V549Z" />
<glyph unicode="G" glyph-name="G" horiz-adv-x="634" d="M575 39Q522 8 474 -5T357 -19Q59 -19 59 324Q59 481 134 570T366 660Q429 660 529 634L490 528Q410 563 367 563Q281 563 235 510T189 324Q189 200 227 139T360 78Q420 78 463 103V249H320V346H575V39Z" />
<glyph unicode="H" glyph-name="H" horiz-adv-x="692" d="M598 0H472V285H220V0H94V647H220V383H472V647H598V0Z" />
<glyph unicode="I" glyph-name="I" horiz-adv-x="290" d="M208 0H82V647H208V0Z" />
<glyph unicode="J" glyph-name="J" horiz-adv-x="443" d="M349 204Q349 158 339 119T313 53T272 2T223 -36T165 -65T107 -87T47 -104L14 0Q21 1 41 5T71 11T98 18T126 27T151 40T175 57T194 80T210 110T219 147T223 194V647H349V204Z" />
<glyph unicode="K" glyph-name="K" horiz-adv-x="659" d="M645 0H482L220 295V0H94V647H220V374L459 647H601L337 343L645 0Z" />
<glyph unicode="L" glyph-name="L" horiz-adv-x="495" d="M489 0H94V647H220V100H489V0Z" />
<glyph unicode="M" glyph-name="M" horiz-adv-x="925" d="M831 0H707V513L525 0H396L214 513V0H94V647H301L465 169L633 647H831V0Z" />
<glyph unicode="N" glyph-name="N" horiz-adv-x="727" d="M633 0H444L214 498V0H94V647H281L509 149V647H633V0Z" />
<glyph unicode="O" glyph-name="O" horiz-adv-x="725" d="M666 321Q666 165 595 73T364 -19Q59 -19 59 321Q59 475 132 567T365 660Q666 660 666 321ZM536 321Q536 449 495 506T364 563Q274 563 232 505T189 321Q189 190 230 134T364 78Q455 78 495 137T536 321Z" />
<glyph unicode="P" glyph-name="P" horiz-adv-x="600" d="M550 453Q550 253 332 253H220V0H94V647H321Q550 647 550 453ZM422 453Q422 513 395 531T319 550H220V350H324Q422 350 422 453Z" />
<glyph unicode="Q" glyph-name="Q" horiz-adv-x="725" d="M666 321Q666 165 595 73T364 -19Q59 -19 59 321Q59 476 131 568T365 660Q666 660 666 321ZM592 -64L549 -147L323 -113L366 -43L592 -64ZM536 321Q536 449 495 506T364 563Q274 563 232 505T189 321Q189
190 230 134T364 78Q455 78 495 137T536 321Z" />
<glyph unicode="R" glyph-name="R" horiz-adv-x="642" d="M599 0H445L248 269H220V0H94V647H336Q379 647 414 639T483 612T536 554T555 460Q555 388 518 337T395 273L599 0ZM427 418T427 460T406 526T341 550H220V366H342Q384 366 405 392Z" />
<glyph unicode="S" glyph-name="S" horiz-adv-x="594" d="M525 168Q525 -19 258 -19Q178 -19 64 12L103 118Q210 78 259 78Q327 78 362 96T397 166Q397 176 395 185T389 202T378 217T365 230T348 242T330 252T308 262T286 270T262 280T238 289Q199 304 174 317T120
353T78 408T64 482Q64 543 103 584T196 643T315 660Q415 660 497 632L458 526Q372 563 312 563Q248 563 220 540T192 482Q192 468 199 456T214 435T242 418T273 404T311 390Q318 387 322 386Q367 370 394 357T456 319T508 256T525 168Z" />
<glyph unicode="T" glyph-name="T" horiz-adv-x="526" d="M504 549H326V0H200V549H22V647H504V549Z" />
<glyph unicode="U" glyph-name="U" horiz-adv-x="723" d="M629 237Q629 110 562 46T368 -19Q94 -19 94 239V647H220V249Q220 149 259 114T368 78Q503 78 503 249V647H629V237Z" />
<glyph unicode="V" glyph-name="V" horiz-adv-x="652" d="M624 647L388 0H272L28 647H167L333 155L490 647H624Z" />
<glyph unicode="W" glyph-name="W" horiz-adv-x="967" d="M933 647L767 0H611L485 452L337 0H181L34 647H167L275 153L417 620H573L691 153L810 647H933Z" />
<glyph unicode="X" glyph-name="X" horiz-adv-x="632" d="M596 0H447L313 234L165 0H30L246 334L56 647H201L320 444L447 647H582L384 339L596 0Z" />
<glyph unicode="Y" glyph-name="Y" horiz-adv-x="619" d="M605 647L372 291V0H246V287L14 647H157L314 399L469 647H605Z" />
<glyph unicode="Z" glyph-name="Z" horiz-adv-x="561" d="M518 545L180 98H510V0H76L43 102L382 549H80V647H485L518 545Z" />
<glyph unicode="[" glyph-name="bracketleft" horiz-adv-x="305" d="M258 -127H83V676H258V596H179V-44H258V-127Z" />
<glyph unicode="\" glyph-name="backslash" horiz-adv-x="300" d="M304 -11H207L-4 657H91L304 -11Z" />
<glyph unicode="]" glyph-name="bracketright" horiz-adv-x="305" d="M232 -127H57V-44H136V596H57V676H232V-127Z" />
<glyph unicode="^" glyph-name="asciicircum" horiz-adv-x="540" d="M508 269H403L269 561L134 269H32L213 647H323L508 269Z" />
<glyph unicode="_" glyph-name="underscore" horiz-adv-x="500" d="M501 -116H-1V-30H501V-116Z" />
<glyph unicode="`" glyph-name="grave" horiz-adv-x="247" d="M228 530H150L19 647H132L228 530Z" />
<glyph unicode="a" glyph-name="a" horiz-adv-x="522" d="M464 0H357L340 46Q279 -13 221 -13Q134 -13 89 21T43 120Q43 287 294 287H332V309Q332 342 319 362T267 383Q184 383 100 343L61 436Q155 470 273 470Q352 470 399 433T446 324V140Q446 119 454 66T464
0ZM333 121V211H308Q230 211 196 190T161 125Q161 74 242 74Q299 74 333 121Z" />
<glyph unicode="b" glyph-name="b" horiz-adv-x="531" d="M488 335T488 231T435 57T283 -13Q245 -13 218 5T176 46L158 0H54Q66 93 66 140V657H179V397Q232 470 299 470Q396 470 442 403ZM372 229Q372 383 278 383Q245 383 223 360T177 295V138Q207 74 265 74Q372
74 372 229Z" />
<glyph unicode="c" glyph-name="c" horiz-adv-x="464" d="M430 19Q405 7 352 -3T269 -13Q160 -13 102 52T43 225Q43 339 101 404T272 470Q301 470 350 460T426 438L387 345Q311 383 271 383Q213 383 186 347T159 225Q159 74 270 74Q317 74 391 112L430 19Z" />
<glyph unicode="d" glyph-name="d" horiz-adv-x="531" d="M477 0H373L355 46Q341 24 314 6T248 -13Q141 -13 92 55T43 231Q43 334 91 402T232 470Q299 470 352 397V657H465V140Q465 93 477 0ZM354 138V295Q331 337 309 360T253 383Q159 383 159 229Q159 142 185
108T266 74Q324 74 354 138Z" />
<glyph unicode="e" glyph-name="e" horiz-adv-x="521" d="M476 185H162Q169 130 197 101T272 71Q337 71 415 110L452 23Q373 -13 264 -13Q158 -13 101 55T43 224Q43 267 53 307T87 386T155 447T260 470Q377 470 426 401T476 185ZM367 266Q360 383 259 383Q223
383 194 357T162 266H367Z" />
<glyph unicode="f" glyph-name="f" horiz-adv-x="334" d="M334 582Q263 575 228 551T193 479V457H297V370H193V0H80V370H11V457H80V470Q80 520 101 559T158 622T230 659T306 675L334 582Z" />
<glyph unicode="g" glyph-name="g" horiz-adv-x="545" d="M517 473L488 397H432Q478 351 478 296Q478 264 468 235T435 180T370 137T270 121Q253 121 220 126T170 138Q149 127 149 105Q149 87 175 79T286 64Q416 54 463 23T510 -69Q510 -105 490 -131T436 -172T362
-194T276 -201Q147 -201 93 -168T38 -72Q38 -15 112 15Q54 41 54 100Q54 141 107 180Q61 238 61 297Q61 322 69 347T96 402T160 451T268 470Q300 470 345 461Q468 471 517 473ZM362 299Q362 340 339 362T270 385Q177 385 177 295Q177 206 271 206Q319 206 340 233T362
299ZM394 -69Q394 -28 187 -23Q154 -39 154 -68Q154 -91 190 -104T276 -118Q343 -118 368 -108T394 -69Z" />
<glyph unicode="h" glyph-name="h" horiz-adv-x="529" d="M463 0H350V293Q350 314 348 327T340 354T318 376T279 384Q223 384 179 298V0H66V657H179V397Q235 471 298 471Q392 471 427 424T463 288V0Z" />
<glyph unicode="i" glyph-name="i" horiz-adv-x="247" d="M183 549H64V647H183V549ZM180 0H67V457H180V0Z" />
<glyph unicode="j" glyph-name="j" horiz-adv-x="244" d="M180 549H59V647H180V549ZM176 6Q176 -75 132 -122T9 -196L-30 -103Q22 -92 42 -70T63 -3V457H176V6Z" />
<glyph unicode="k" glyph-name="k" horiz-adv-x="487" d="M475 0H345L179 229V0H66V657H179V277L329 457H451L285 259L475 0Z" />
<glyph unicode="l" glyph-name="l" horiz-adv-x="245" d="M179 0H66V657H179V0Z" />
<glyph unicode="m" glyph-name="m" horiz-adv-x="810" d="M744 0H631V290Q631 341 616 362T566 384Q528 384 501 358T459 293V0H346V290Q346 345 330 364T276 384Q245 384 219 357T179 299V0H66V352Q66 374 61 410T54 457H158L176 396Q193 421 227 446T297 471Q354
471 383 455T443 397Q489 471 583 471Q744 471 744 292V0Z" />
<glyph unicode="n" glyph-name="n" horiz-adv-x="529" d="M463 0H350V293Q350 314 348 327T340 354T318 376T279 384Q221 384 179 298V0H66V360Q66 377 64 393T59 427T54 457H158L176 397Q178 399 187 409T202 425T220 441T242 456T268 466T298 471Q392 471 427
424T463 288V0Z" />
<glyph unicode="o" glyph-name="o" horiz-adv-x="537" d="M494 231Q494 180 482 137T444 60T373 6T269 -14Q153 -14 98 54T43 231Q43 336 98 403T269 471Q386 471 440 405T494 231ZM378 231Q378 314 353 349T269 384Q213 384 186 349T159 231Q159 73 269 73Q378
73 378 231Z" />
<glyph unicode="p" glyph-name="p" horiz-adv-x="531" d="M488 226Q488 123 440 55T299 -14Q266 -14 232 2T179 45V-180H66V317Q66 364 54 457H158L178 397Q231 471 292 471Q393 471 440 403T488 226ZM372 228Q372 315 346 349T265 384Q217 384 177 299V139Q214
73 278 73Q372 73 372 228Z" />
<glyph unicode="q" glyph-name="q" horiz-adv-x="531" d="M477 457Q465 364 465 317V-180H352V45Q333 19 299 3T232 -14Q165 -14 121 20T60 106T43 226Q43 332 92 401T239 471Q277 471 307 448T353 397L373 457H477ZM354 139V299Q314 384 264 384Q210 384 185
350T159 228Q159 73 253 73Q317 73 354 139Z" />
<glyph unicode="r" glyph-name="r" horiz-adv-x="390" d="M377 449L338 356Q301 384 272 384Q263 384 255 382T240 373T227 362T215 347T205 331T196 314T189 298T183 284L179 273V0H66V355Q66 375 64 394T59 432T54 457H158L176 379Q193 409 225 440T290 471Q335
471 377 449Z" />
<glyph unicode="s" glyph-name="s" horiz-adv-x="451" d="M410 125Q410 74 380 42T308 -2T213 -14Q127 -14 38 18L77 111Q86 108 111 98T146 85T176 77T215 73Q263 73 278 86T294 124Q294 138 280 148T251 164T205 179Q170 189 149 198T101 224T61 269T47 335Q47
471 241 471Q307 471 398 442L359 349Q356 351 345 356T331 362T319 367T306 372T295 376T282 380T270 382T256 383T242 384Q163 384 163 338Q163 318 183 307T248 282Q277 273 293 268T335 249T374 220T399 181T410 125Z" />
<glyph unicode="t" glyph-name="t" horiz-adv-x="335" d="M326 0L296 -97Q206 -74 148 -19T89 120V370H13V458H89V580H202V458H309V370H202V111Q202 65 233 40T326 0Z" />
<glyph unicode="u" glyph-name="u" horiz-adv-x="522" d="M468 0H364L346 60Q344 58 333 45T314 25T293 7T263 -9T228 -14Q139 -14 103 34T66 169V457H179V164Q179 144 181 131T189 103T210 81T247 73Q301 73 343 159V457H456V97Q456 80 458 64T463 30T468 0Z" />
<glyph unicode="v" glyph-name="v" horiz-adv-x="537" d="M501 457L324 0H213L36 457H157L272 133L383 457H501Z" />
<glyph unicode="w" glyph-name="w" horiz-adv-x="797" d="M767 457L616 0H498L404 280L300 0H181L30 457H150L251 138L352 417H463L559 138L651 457H767Z" />
<glyph unicode="x" glyph-name="x" horiz-adv-x="494" d="M471 0H344L246 152L142 0H23L188 231L34 457H161L251 314L345 457H463L307 238L471 0Z" />
<glyph unicode="y" glyph-name="y" horiz-adv-x="530" d="M494 457L303 -73Q280 -136 240 -178T129 -245L91 -152Q162 -133 179 -87L219 19L36 457H157L274 146L376 457H494Z" />
<glyph unicode="z" glyph-name="z" horiz-adv-x="444" d="M418 364L156 87H402V0H65L26 93L291 370H58V457H379L418 364Z" />
<glyph unicode="{" glyph-name="braceleft" horiz-adv-x="390" d="M316 -118Q248 -116 207 -91T153 -29T133 51T123 131T102 193T48 222V309Q79 310 95 328T117 376T125 441T136 511T162 576T218 625T316 647V560Q275 560 255 536T231 473T223 395T201 318T146
264Q184 250 202 214T224 138T231 59T255 -5T316 -31V-118Z" />
<glyph unicode="|" glyph-name="bar" horiz-adv-x="270" d="M183 -166H87V702H183V-166Z" />
<glyph unicode="}" glyph-name="braceright" horiz-adv-x="390" d="M342 222Q306 219 288 194T268 131T258 51T237 -28T183 -90T74 -118V-31Q115 -31 134 -6T158 58T166 137T187 214T244 264Q207 281 189 318T168 395T160 473T135 535T74 560V647Q133 645 172
626T228 577T253 512T265 441T273 377T294 329T342 309V222Z" />
<glyph unicode="~" glyph-name="asciitilde" horiz-adv-x="540" d="M511 269Q511 216 475 180T373 144Q334 144 294 166T226 211T185 234Q150 234 134 218T118 157L29 205Q29 258 65 294T165 330Q208 330 249 308T318 264T354 242Q390 242 406 257T422 317L511 269Z" />
</font>
</defs>
</svg>
